<?xml version="1.0" encoding="UTF-8"?>
<!DOCTYPE svg PUBLIC "-//W3C//DTD SVG 1.1//EN" "http://www.w3.org/Graphics/SVG/1.1/DTD/svg11.dtd">
<!-- Creator: CorelDRAW 2020 (64-Bit) -->
<svg xmlns="http://www.w3.org/2000/svg" xml:space="preserve" width="175px" height="71px" version="1.1" style="shape-rendering:geometricPrecision; text-rendering:geometricPrecision; image-rendering:optimizeQuality; fill-rule:evenodd; clip-rule:evenodd"
viewBox="0 0 175 70.71"
 xmlns:xlink="http://www.w3.org/1999/xlink"
 xmlns:xodm="http://www.corel.com/coreldraw/odm/2003">
 <defs>
  <style type="text/css">
   <![CDATA[
    .str0 {stroke:white;stroke-width:0.04;stroke-miterlimit:22.9256}
    .fil9 {fill:none;fill-rule:nonzero}
    .fil12 {fill:#FEFEFE}
    .fil11 {fill:#898989}
    .fil10 {fill:#BDBABE}
    .fil2 {fill:#389C45}
    .fil1 {fill:white}
    .fil13 {fill:#FEFEFE;fill-rule:nonzero}
    .fil6 {fill:#56709D;fill-rule:nonzero}
    .fil8 {fill:#35AFE0;fill-rule:nonzero}
    .fil3 {fill:#23A5DC;fill-rule:nonzero}
    .fil7 {fill:#3DAB46;fill-rule:nonzero}
    .fil5 {fill:#389C45;fill-rule:nonzero}
    .fil4 {fill:#0A5072;fill-rule:nonzero}
    .fil0 {fill:white;fill-rule:nonzero}
   ]]>
  </style>
 </defs>
 <g id="Layer_x0020_1">
  <metadata id="CorelCorpID_0Corel-Layer"/>
  <g id="_2887130534016">
   <path class="fil0" d="M76.37 43.76l-1.3 3.52 2.59 0 -1.29 -3.52zm-1.69 4.57l-0.39 1.06 -1.3 0 2.73 -7.38 1.29 0 2.73 7.38 -1.3 0 -0.39 -1.06 -3.37 0zm10.47 -3.16l3.89 0 0 1.06 -3.89 0 0 1.05c0,0.7 0.43,1.05 1.29,1.05l3.03 0 0 1.06 -3.03 0c-1.72,0 -2.59,-0.71 -2.59,-2.11l0 -3.16c0,-1.41 0.87,-2.11 2.59,-2.11l3.03 0 0 1.05 -3.03 0c-0.86,0 -1.29,0.35 -1.29,1.06l0 1.05zm12.21 2.11l-1.96 0 0 2.11 -1.3 0 0 -5.27c0,-1.41 0.87,-2.11 2.6,-2.11l0.86 0c1.73,0 2.59,0.7 2.59,2.11l0 1.05c0,1.02 -0.45,1.67 -1.35,1.95l1.53 2.27 -1.56 0 -1.41 -2.11zm-1.96 -1.05l2.16 0c0.87,0 1.3,-0.36 1.3,-1.06l0 -1.05c0,-0.71 -0.43,-1.06 -1.3,-1.06l-0.86 0c-0.87,0 -1.3,0.35 -1.3,1.06l0 2.11zm12.09 -4.22l0.86 0c1.73,0 2.59,0.7 2.59,2.11l0 3.16c0,1.4 -0.86,2.11 -2.59,2.11l-0.86 0c-1.73,0 -2.6,-0.71 -2.6,-2.11l0 -3.16c0,-1.41 0.87,-2.11 2.6,-2.11zm0.86 1.05l-0.86 0c-0.87,0 -1.3,0.35 -1.3,1.06l0 3.16c0,0.7 0.43,1.05 1.3,1.05l0.86 0c0.87,0 1.3,-0.35 1.3,-1.05l0 -3.16c0,-0.71 -0.43,-1.06 -1.3,-1.06zm10.72 -1.05c1.73,0 2.6,0.7 2.6,2.11l-1.3 0c0,-0.71 -0.43,-1.06 -1.3,-1.06l-0.86 0c-0.87,0 -1.3,0.18 -1.3,0.53 0,0.35 0.79,0.97 2.38,1.85 1.58,0.87 2.38,1.66 2.38,2.37 0,1.05 -0.87,1.58 -2.6,1.58l-0.86 0c-1.73,0 -2.6,-0.71 -2.6,-2.11l1.3 0c0,0.7 0.43,1.05 1.3,1.05l0.86 0c0.87,0 1.3,-0.17 1.3,-0.52 0,-0.35 -0.79,-0.97 -2.38,-1.85 -1.58,-0.88 -2.38,-1.67 -2.38,-2.37 0,-1.06 0.87,-1.58 2.6,-1.58l0.86 0zm9.88 4.22l0.86 0c0.86,0 1.3,-0.36 1.3,-1.06l0 -1.05c0,-0.71 -0.44,-1.06 -1.3,-1.06l-0.86 0c-0.87,0 -1.3,0.35 -1.3,1.06l0 1.05c0,0.7 0.43,1.06 1.3,1.06zm0.86 1.05l-0.86 0c-0.51,0 -0.94,-0.06 -1.3,-0.18l0 2.29 -1.3 0 0 -5.27c0,-1.41 0.87,-2.11 2.6,-2.11l0.86 0c1.73,0 2.59,0.7 2.59,2.11l0 1.05c0,1.41 -0.86,2.11 -2.59,2.11zm9.45 -3.52l-1.3 3.52 2.59 0 -1.29 -3.52zm-1.69 4.57l-0.39 1.06 -1.3 0 2.73 -7.38 1.29 0 2.72 7.38 -1.29 0 -0.39 -1.06 -3.37 0zm15.22 -4.21l0 0.52 -1.29 0 0 -0.52c0,-0.71 -0.44,-1.06 -1.3,-1.06l-0.87 0c-0.86,0 -1.29,0.35 -1.29,1.06l0 3.16c0,0.7 0.43,1.05 1.29,1.05l0.87 0c0.86,0 1.3,-0.35 1.3,-1.05l0 -0.53 1.29 0 0 0.53c0,1.4 -0.86,2.11 -2.59,2.11l-0.87 0c-1.72,0 -2.59,-0.71 -2.59,-2.11l0 -3.16c0,-1.41 0.87,-2.11 2.59,-2.11l0.87 0c1.73,0 2.59,0.7 2.59,2.11zm6.1 1.05l3.89 0 0 1.06 -3.89 0 0 1.05c0,0.7 0.43,1.05 1.3,1.05l3.02 0 0 1.06 -3.02 0c-1.73,0 -2.6,-0.71 -2.6,-2.11l0 -3.16c0,-1.41 0.87,-2.11 2.6,-2.11l3.02 0 0 1.05 -3.02 0c-0.87,0 -1.3,0.35 -1.3,1.06l0 1.05z"/>
   <path class="fil0" d="M68.19 32.5l0 7.1 -4.84 1.21 0 -18.15 4.84 0 0 7.11 7.1 -7.11 6.85 0 -8.47 8.47 8.47 8.47 -6.85 0 -7.1 -7.1zm18.15 2.26l12.09 0 0 4.84 -14.51 0 -2.42 -2.42 0 -12.1 2.42 -2.42 15.72 0 -2.42 4.84 -10.88 0 0 7.26zm12.09 -1.21l-10.89 0 0 -4.84 10.89 0 0 4.84zm13.31 -6.05l-10.89 0 -2.42 -4.84 15.72 0 2.42 2.42 0 6.05 -2.42 2.42 -9.67 0 0 6.05 -4.84 0 0 -10.89 12.1 0 0 -1.21zm10.88 7.26l12.1 0 0 4.84 -14.52 0 -2.42 -2.42 0 -14.52 4.84 0 0 12.1zm18.15 0l12.09 0 0 4.84 -14.51 0 -2.42 -2.42 0 -12.1 2.42 -2.42 15.72 0 -2.42 4.84 -10.88 0 0 7.26zm12.09 -1.21l-10.89 0 0 -4.84 10.89 0 0 4.84zm13.31 -6.05l-10.89 0 -2.42 -4.84 15.73 0 2.41 2.42 0 6.05 -2.41 2.42 -1.78 0 6.04 6.05 -6.84 0 -6.05 -6.05 -1.05 0 0 6.05 -4.84 0 0 -10.89 12.1 0 0 -1.21z"/>
   <path class="fil1" d="M25.4 45.6c-0.63,9.07 -1.84,15.4 -3.32,19.53 -1.39,3.91 -3.06,5.66 -4.74,4.5 -1.67,-1.16 -3.14,-5.07 -4.2,-10.66 -1.12,-5.85 -1.83,-13.43 -1.83,-22.83 0,-9.41 0.86,-18.98 2.31,-25.6 1.56,-7.07 3.73,-10.95 6.05,-9.46 2.32,1.49 4.16,7.98 5.2,16.8 0.97,8.27 1.16,18.64 0.53,27.72zm-0.69 -0.52c-0.51,7.62 -1.49,13.14 -2.7,16.75 -1.15,3.45 -2.53,5.03 -3.91,4.09 -1.37,-0.95 -2.56,-4.3 -3.39,-9.09 -0.87,-5 -1.4,-11.5 -1.32,-19.34 0.08,-7.85 0.84,-15.62 2.04,-20.98 1.27,-5.64 3,-8.73 4.81,-7.56 1.8,1.17 3.23,6.32 4.04,13.36 0.77,6.7 0.93,15.15 0.43,22.77z"/>
   <path class="fil1" d="M21.2 37.95c-5.75,5 -10.22,8.03 -13.54,9.61 -3.15,1.49 -5.17,1.54 -5.48,-0.15 -0.3,-1.68 1.14,-4.86 3.82,-8.8 2.81,-4.13 6.88,-9.05 12.45,-14.62 5.58,-5.57 11.76,-10.74 16.54,-13.8 5.12,-3.27 8.7,-4.28 9.2,-2.03 0.49,2.26 -2.27,7.2 -6.88,13.04 -4.33,5.48 -10.36,11.75 -16.11,16.75zm-0.11 -0.72c-4.81,4.22 -8.67,6.91 -11.52,8.33 -2.73,1.36 -4.48,1.48 -4.74,0.11 -0.25,-1.38 1.03,-4.07 3.38,-7.4 2.44,-3.48 5.98,-7.65 10.68,-12.25 4.69,-4.6 9.75,-8.76 13.64,-11.22 4.1,-2.59 6.95,-3.4 7.33,-1.63 0.38,1.76 -1.83,5.66 -5.52,10.31 -3.52,4.43 -8.43,9.53 -13.25,13.75z"/>
   <path class="fil1" d="M15.64 39.02c-5.8,-4.94 -9.46,-8.91 -11.51,-11.96 -1.94,-2.89 -2.29,-4.89 -0.67,-5.44 1.61,-0.55 4.98,0.41 9.27,2.48 4.51,2.16 9.97,5.45 16.31,10.14 6.34,4.68 12.36,10.02 16.1,14.3 3.99,4.57 5.53,7.97 3.37,8.8 -2.16,0.82 -7.45,-1.17 -13.92,-4.87 -6.06,-3.46 -13.15,-8.5 -18.95,-13.45zm0.7 -0.2c-4.89,-4.14 -8.12,-7.56 -9.95,-10.17 -1.75,-2.49 -2.13,-4.21 -0.81,-4.66 1.32,-0.46 4.17,0.41 7.82,2.23 3.8,1.91 8.44,4.79 13.69,8.75 5.25,3.96 10.11,8.34 13.12,11.82 3.18,3.67 4.4,6.37 2.71,7.01 -1.69,0.63 -5.88,-0.97 -11.02,-3.93 -4.9,-2.82 -10.67,-6.92 -15.56,-11.05z"/>
   <path class="fil2" d="M18.37 24.13c6.63,0 12.01,5.37 12.01,12.01 0,6.63 -5.38,12.01 -12.01,12.01 -6.64,0 -12.01,-5.38 -12.01,-12.01 0,-6.64 5.37,-12.01 12.01,-12.01z"/>
   <path class="fil3" d="M17.78 24.12c0.13,0.07 0.17,0.08 0.33,0.11 -0.14,-0.08 -0.17,-0.09 -0.33,-0.11zm0.66 0l0 0c0.59,0.47 1.27,0.26 1.97,0.35 0.58,0.09 1.06,0.31 1.65,0.31 -0.95,-0.59 -2.53,-0.64 -3.62,-0.66zm-3.96 0.88l0 0c-0.78,-0.11 -1.54,0.39 -2.2,0.79 -1.25,0.76 -2.38,1.67 -3.29,2.83 -0.55,0.69 -0.97,1.32 -0.99,2.2 0.38,-0.32 0.55,-0.62 0.66,-1.1 0.02,0.18 0.02,0.25 0,0.44l0.77 -0.22c0.14,-0.31 0.25,-0.49 0.55,-0.66 0.04,-0.38 0.22,-0.48 0.55,-0.66 -0.25,-0.04 -0.42,0.02 -0.66,0.11 0.11,-0.31 0.28,-0.59 0.44,-0.88 -0.66,0.53 -0.99,1.34 -1.32,2.09l-0.11 -0.44c-0.16,0.05 -0.2,0.09 -0.33,0.22 0.6,-1.27 1.87,-2.94 3.41,-2.86 -0.24,0.22 -1.12,0.63 -0.44,0.77 0,-0.3 0.47,-0.57 0.76,-0.66l-0.11 -0.44 0.33 0 -0.11 0.22c0.57,-0.22 1.03,-0.55 1.65,-0.66l-0.33 -0.33c0.4,0.09 0.8,0.11 1.21,0.11 -0.24,-0.38 -0.19,-0.56 0.22,-0.76 0.11,0.39 0.28,0.65 0,0.98 0.66,0.15 0.36,-0.59 0.11,-0.87 0.31,-0.07 0.62,-0.11 0.66,-0.44 0.54,-0.09 0.97,-0.4 1.54,-0.44 -0.63,-0.31 -1.66,0.06 -2.31,0.23 -0.3,0.1 -0.61,0.12 -0.66,0.43zm1.98 -0.33l0 0 0.11 0.11 -0.11 -0.11z"/>
   <path class="fil4" d="M17.93 24.21c-0.05,-0.02 -0.09,-0.04 -0.16,-0.08l-0.11 -0.05 0.12 0.02c0.08,0.01 0.13,0.02 0.18,0.04 0.04,0.01 0.09,0.03 0.16,0.07l0.1 0.06 -0.12 -0.02c-0.08,-0.02 -0.13,-0.03 -0.17,-0.04zm0.57 -0.07c0.39,0.29 0.83,0.29 1.28,0.28 0.21,0 0.42,0 0.64,0.03l0 0c0.22,0.03 0.42,0.09 0.63,0.14 0.3,0.08 0.6,0.15 0.94,0.16 -0.47,-0.26 -1.07,-0.41 -1.69,-0.49 -0.63,-0.09 -1.27,-0.11 -1.8,-0.12zm1.28 0.32c-0.48,0.01 -0.94,0.01 -1.36,-0.33l-0.04 -0.03 0.06 0c0.55,0.01 1.21,0.03 1.87,0.12 0.65,0.09 1.28,0.25 1.76,0.54l0.06 0.04 -0.07 0c-0.37,0 -0.69,-0.09 -1.02,-0.17 -0.21,-0.06 -0.41,-0.11 -0.63,-0.14l0 0c-0.21,-0.03 -0.42,-0.03 -0.63,-0.03zm-5.3 0.56c-0.72,-0.1 -1.43,0.33 -2.05,0.7l0 0 -0.13 0.08 0 0c-0.63,0.38 -1.23,0.8 -1.78,1.27 -0.55,0.47 -1.06,0.98 -1.52,1.56l0 0c-0.27,0.35 -0.51,0.68 -0.68,1.03l0 0c-0.17,0.34 -0.28,0.7 -0.3,1.11 0.17,-0.15 0.3,-0.29 0.39,-0.45 0.11,-0.17 0.18,-0.37 0.23,-0.6l0.02 -0.08c-0.03,0.03 -0.06,0.06 -0.1,0.09l-0.08 0.09 0.05 -0.11c0.35,-0.72 0.9,-1.57 1.6,-2.16 0.54,-0.45 1.16,-0.74 1.83,-0.71l0.04 0.01 -0.03 0.03c-0.06,0.05 -0.15,0.12 -0.25,0.19 -0.19,0.12 -0.41,0.27 -0.43,0.38 -0.01,0.06 0.04,0.12 0.21,0.16 0.01,-0.13 0.09,-0.25 0.21,-0.36 0.16,-0.13 0.38,-0.24 0.55,-0.29l-0.1 -0.42 -0.01 -0.03 0.02 0 0.33 0 0.04 0 -0.02 0.03 -0.08 0.18c0.18,-0.08 0.35,-0.16 0.52,-0.24 0.33,-0.16 0.65,-0.32 1.04,-0.4l-0.3 -0.3 -0.05 -0.05 0.07 0.02c0.2,0.04 0.4,0.07 0.6,0.08 0.18,0.02 0.37,0.02 0.57,0.02 -0.11,-0.18 -0.15,-0.32 -0.12,-0.43 0.03,-0.13 0.15,-0.23 0.36,-0.33l0.02 -0.01 0.01 0.02c0.02,0.07 0.04,0.14 0.06,0.2 0.1,0.29 0.17,0.51 -0.04,0.78 0.09,0.02 0.17,0.01 0.22,0 0.06,-0.03 0.09,-0.07 0.11,-0.12 0.02,-0.06 0.01,-0.13 -0.01,-0.21 -0.04,-0.18 -0.16,-0.4 -0.26,-0.52l-0.03 -0.03 0.04 0 0.03 -0.01c0.29,-0.06 0.57,-0.11 0.61,-0.42l0 -0.01 0.02 0c0.24,-0.04 0.47,-0.13 0.69,-0.21 0.25,-0.1 0.49,-0.19 0.77,-0.23 -0.54,-0.21 -1.35,0.02 -1.96,0.2 -0.09,0.02 -0.18,0.05 -0.26,0.07l0 0c-0.06,0.02 -0.11,0.03 -0.16,0.05 -0.24,0.06 -0.45,0.12 -0.49,0.36l0 0.02 -0.02 0zm-2.07 0.67l0 0c0.62,-0.38 1.32,-0.81 2.06,-0.72 0.04,-0.25 0.26,-0.31 0.51,-0.37 0.05,-0.02 0.1,-0.03 0.15,-0.05l0.01 0c0.08,-0.02 0.17,-0.04 0.26,-0.07 0.64,-0.18 1.5,-0.43 2.06,-0.16l0.06 0.03 -0.07 0.01c-0.3,0.02 -0.57,0.12 -0.83,0.22 -0.22,0.09 -0.45,0.17 -0.69,0.21 -0.05,0.32 -0.34,0.38 -0.64,0.44l0 0c0.1,0.13 0.21,0.33 0.25,0.51 0.02,0.09 0.03,0.16 0.01,0.23 -0.02,0.06 -0.06,0.12 -0.14,0.14 -0.06,0.03 -0.15,0.03 -0.27,0l-0.04 0 0.03 -0.03c0.22,-0.26 0.15,-0.48 0.05,-0.77 -0.01,-0.05 -0.03,-0.11 -0.05,-0.18 -0.19,0.1 -0.29,0.19 -0.32,0.3 -0.03,0.11 0.01,0.25 0.13,0.43l0.02 0.03 -0.04 0c-0.2,0 -0.41,0 -0.61,-0.02 -0.18,-0.01 -0.36,-0.04 -0.54,-0.07l0.29 0.28 0.02 0.03 -0.03 0c-0.4,0.07 -0.74,0.24 -1.07,0.4 -0.19,0.09 -0.38,0.18 -0.58,0.26l-0.05 0.02 0.03 -0.05 0.09 -0.19 -0.27 0 0.1 0.42 0.01 0.02 -0.02 0c-0.17,0.05 -0.39,0.16 -0.55,0.29 -0.12,0.11 -0.2,0.23 -0.2,0.35l0 0.03 -0.03 -0.01c-0.21,-0.04 -0.28,-0.12 -0.26,-0.21 0.03,-0.12 0.25,-0.27 0.44,-0.41 0.08,-0.05 0.16,-0.1 0.21,-0.15 -0.64,-0.02 -1.23,0.27 -1.74,0.7 -0.67,0.56 -1.2,1.35 -1.54,2.05 0.02,-0.03 0.05,-0.05 0.07,-0.07 0.05,-0.03 0.1,-0.05 0.18,-0.08l0.02 -0.01 0.01 0.03 0.09 0.38 0.04 -0.08c0.31,-0.72 0.64,-1.47 1.26,-1.96l0.08 -0.06 -0.05 0.08c-0.03,0.06 -0.06,0.12 -0.09,0.17 -0.12,0.22 -0.24,0.43 -0.33,0.67l0.01 0c0.22,-0.08 0.38,-0.14 0.62,-0.1l0.06 0.01 -0.05 0.03c-0.17,0.09 -0.29,0.16 -0.38,0.25 -0.09,0.09 -0.14,0.21 -0.16,0.39l0 0.01 -0.01 0.01c-0.15,0.08 -0.25,0.17 -0.33,0.27 -0.08,0.1 -0.14,0.22 -0.21,0.38l-0.01 0.01 -0.01 0 -0.76 0.22 -0.03 0.01 0 -0.03c0.01,-0.1 0.02,-0.16 0.02,-0.22 0,-0.03 0,-0.07 -0.01,-0.11 -0.05,0.2 -0.11,0.36 -0.2,0.51 -0.11,0.18 -0.25,0.33 -0.44,0.49l-0.03 0.03 0 -0.04c0.01,-0.44 0.12,-0.82 0.3,-1.18l0 0c0.18,-0.35 0.42,-0.68 0.69,-1.03 0.46,-0.58 0.97,-1.1 1.52,-1.57 0.56,-0.47 1.15,-0.89 1.78,-1.27l0 0 0.14 -0.08zm-3.74 3.94l0.01 0.09c0.01,0.09 0.02,0.15 0.02,0.22 0,0.06 -0.01,0.11 -0.02,0.19l0.73 -0.21c0.07,-0.15 0.14,-0.27 0.22,-0.38 0.08,-0.1 0.18,-0.19 0.33,-0.27 0.02,-0.19 0.08,-0.31 0.17,-0.41 0.08,-0.08 0.19,-0.15 0.34,-0.23 -0.2,-0.02 -0.35,0.03 -0.55,0.1l-0.05 0.02 -0.03 0.01 0.01 -0.04c0.09,-0.25 0.22,-0.48 0.35,-0.71l0.04 -0.07c-0.57,0.48 -0.88,1.2 -1.17,1.87l-0.06 0.14 -0.03 0.05 -0.01 -0.06 -0.11 -0.41c-0.06,0.02 -0.1,0.04 -0.14,0.07 -0.02,0.01 -0.04,0.02 -0.05,0.03zm7.8 -4.98l0.11 0.11 -0.02 0.03 -0.11 -0.11 0.02 -0.03z"/>
   <path class="fil5" d="M13.05 25.98l0.33 0 0.11 -0.11c0.11,-0.4 0.41,-0.58 0.77,-0.76 -0.57,-0.1 -1,0.39 -1.21,0.87z"/>
   <g>
    <path class="fil4" d="M16.13 25l0.11 0.11 -0.11 -0.11zm0.22 0l0 0 0 0.22 0.22 0c-0.06,-0.18 -0.04,-0.16 -0.22,-0.22z"/>
   </g>
   <g>
    <path class="fil6" d="M15.69 25.55l0.11 0.1 -0.11 -0.1zm0.22 0l0 0 0.11 0.1 -0.11 -0.1z"/>
   </g>
   <path class="fil7" d="M12.69 26.35c-0.05,0.05 0.06,0.04 0.07,0.04 0.05,-0.05 -0.07,-0.05 -0.07,-0.04z"/>
   <path class="fil3" d="M26.13 27.08c0.06,0.19 0.11,0.28 0.22,0.44 -0.34,-0.14 -0.63,-0.21 -0.99,-0.22 0,0.77 0.28,1.23 1.1,1.32 0.19,0.41 0.44,0.77 0.55,1.21l-0.44 -0.77c-0.08,0.63 0.16,1.21 0,1.87l-0.22 -0.11c-0.11,0.27 -0.19,0.52 -0.33,0.77 0.27,0.44 0.6,0.77 0.22,1.21 -0.05,-0.46 -0.33,-0.77 -0.44,-1.21 -0.23,0.05 -0.35,0.11 -0.55,0.22l0 -0.55c-0.22,0.17 -0.38,0.33 -0.55,0.55 0.31,0.22 0.5,0.24 0.88,0.22 -0.52,0.84 0.36,1.39 0.14,2.3 -0.2,0.83 -0.93,0.84 -1.35,1.43 -0.25,-0.16 -0.68,-0.21 -0.69,0.23 -0.01,0.35 0.33,0.59 0.47,0.87 0.27,0.55 -0.18,0.88 -0.55,1.21 -0.14,-0.44 -0.48,-0.65 -0.88,-0.88 -0.11,0.99 0.53,1.41 0.77,2.31 -1.04,-0.76 -0.85,-1.91 -1.32,-2.97l-0.55 0.22c-0.04,-0.57 -0.36,-0.96 -0.66,-1.43 -0.23,0.14 -0.39,0.22 -0.66,0.22 -0.33,0.44 -0.83,0.78 -1.09,1.24 -0.35,0.6 -0.12,1.07 -0.77,1.51 -0.26,-0.88 -0.69,-1.76 -0.99,-2.64 -0.18,0.06 -0.16,0.04 -0.22,0.22 -0.29,-0.31 -0.6,-0.77 -1.01,-0.92 -0.64,-0.23 -1.2,0.11 -1.74,-0.4 -0.69,0.12 -0.92,-0.44 -1.54,-0.55 0.11,0.38 0.26,0.69 0.66,0.77l0 0.44c0.37,-0.11 0.6,-0.27 0.88,-0.55 0.06,0.36 0.46,0.66 0.43,1 -0.1,0.96 -1.81,1.42 -2.52,1.75 -0.33,-1.04 -0.87,-2.02 -1.42,-2.97 -0.25,0.4 0.02,0.71 0.19,1.1 0.14,0.33 0.21,0.67 0.4,0.97 0.27,0.44 0.64,0.74 0.83,1.23 0.44,-0.02 0.88,-0.11 1.32,-0.22 -0.22,1.21 -1.14,1.61 -1.68,2.57 -0.34,0.62 0.14,1.11 0.11,1.71 -0.01,0.4 -0.35,0.51 -0.54,0.8 -0.33,0.52 -0.22,1.74 -1.18,1.54 -0.55,-0.12 -0.91,-0.89 -1.14,-1.35 -0.4,-0.8 -0.49,-1.46 -0.7,-2.3 -0.19,-0.71 -0.48,-1.4 -0.69,-2.09l-0.22 0.11 -0.11 -0.44c-0.66,0.11 -0.89,-0.14 -0.99,-0.77 -0.34,0.88 0.28,2.35 0.6,3.19 1.2,3.19 3.8,5.71 6.98,6.92 4.65,1.75 10.28,0.34 13.46,-3.52 1.58,-1.91 2.42,-4.15 2.69,-6.59 0.33,-2.64 -0.35,-5.47 -1.83,-7.69 -0.43,-0.65 -0.98,-1.73 -1.79,-1.87 -0.15,-0.3 -0.28,-0.44 -0.55,-0.66z"/>
   <path class="fil4" d="M26.17 27.15c0.02,0.05 0.04,0.1 0.07,0.15 0.03,0.07 0.07,0.13 0.12,0.21l0.04 0.06 -0.06 -0.03c-0.17,-0.07 -0.32,-0.12 -0.48,-0.16 -0.15,-0.03 -0.31,-0.05 -0.48,-0.06 0,0.37 0.07,0.67 0.24,0.89 0.17,0.21 0.44,0.35 0.84,0.39l0.01 0 0 0.01c0.06,0.13 0.13,0.25 0.19,0.37 0.15,0.27 0.29,0.54 0.36,0.84l0.04 0.14 -0.07 -0.12 -0.41 -0.72c-0.02,0.26 0,0.5 0.03,0.75 0.03,0.34 0.07,0.69 -0.02,1.06l-0.01 0.03 -0.02 -0.01 -0.2 -0.1c-0.03,0.06 -0.05,0.13 -0.08,0.19 -0.07,0.18 -0.14,0.36 -0.24,0.55 0.04,0.06 0.08,0.12 0.11,0.17 0.24,0.36 0.44,0.66 0.1,1.05l-0.03 0.03 0 -0.04c-0.03,-0.26 -0.13,-0.47 -0.23,-0.68 -0.08,-0.16 -0.16,-0.32 -0.21,-0.51 -0.1,0.03 -0.18,0.05 -0.26,0.08 -0.08,0.04 -0.16,0.08 -0.26,0.13l-0.03 0.02 0 -0.03 0 -0.51c-0.1,0.07 -0.18,0.15 -0.26,0.23 -0.09,0.08 -0.16,0.17 -0.24,0.27 0.14,0.1 0.26,0.16 0.39,0.19 0.13,0.03 0.27,0.03 0.46,0.02l0.03 -0.01 -0.02 0.04c-0.27,0.45 -0.14,0.82 0,1.21 0.12,0.33 0.25,0.67 0.15,1.09 -0.13,0.5 -0.44,0.71 -0.76,0.92 -0.21,0.14 -0.43,0.28 -0.59,0.51l-0.02 0.02 -0.01 -0.01c-0.1,-0.06 -0.23,-0.11 -0.34,-0.11 -0.06,0 -0.11,0 -0.15,0.02 -0.05,0.02 -0.08,0.05 -0.11,0.1l0 0c-0.04,0.05 -0.06,0.11 -0.06,0.2 0,0.22 0.13,0.39 0.27,0.56 0.07,0.1 0.15,0.2 0.2,0.3l0 0c0.25,0.52 -0.12,0.85 -0.47,1.16 -0.03,0.03 -0.07,0.06 -0.09,0.07l-0.02 0.02 -0.01 -0.02c-0.07,-0.22 -0.19,-0.38 -0.34,-0.52l0 0c-0.14,-0.12 -0.32,-0.23 -0.5,-0.34 -0.06,0.59 0.15,0.97 0.38,1.39 0.14,0.26 0.3,0.54 0.39,0.88l0.01 0.06 -0.04 -0.04c-0.7,-0.5 -0.85,-1.18 -1.01,-1.88 -0.07,-0.36 -0.16,-0.72 -0.31,-1.07l-0.53 0.21 -0.03 0.01 0 -0.03c-0.03,-0.47 -0.26,-0.82 -0.51,-1.19 -0.04,-0.07 -0.09,-0.14 -0.13,-0.21 -0.11,0.06 -0.21,0.12 -0.3,0.15l0 0c-0.11,0.04 -0.21,0.06 -0.35,0.06 -0.14,0.19 -0.31,0.36 -0.49,0.53 -0.22,0.22 -0.45,0.45 -0.6,0.7l0 0c-0.13,0.23 -0.17,0.43 -0.22,0.63 -0.08,0.32 -0.14,0.61 -0.55,0.89l-0.02 0.01 -0.01 -0.03c-0.15,-0.49 -0.35,-0.99 -0.55,-1.48 -0.15,-0.38 -0.31,-0.75 -0.43,-1.13l-0.02 0 0 0c-0.06,0.02 -0.09,0.03 -0.11,0.05 -0.02,0.02 -0.03,0.05 -0.05,0.11l-0.01 0.04 -0.01 0.03 -0.03 -0.02c-0.07,-0.08 -0.14,-0.16 -0.21,-0.25 -0.23,-0.26 -0.48,-0.56 -0.79,-0.68 -0.25,-0.09 -0.49,-0.09 -0.73,-0.09 -0.35,0 -0.68,0 -1,-0.3 -0.41,0.07 -0.66,-0.09 -0.91,-0.26 -0.18,-0.11 -0.36,-0.23 -0.6,-0.28 0.05,0.17 0.12,0.33 0.21,0.46 0.1,0.13 0.23,0.22 0.43,0.26l0.01 0.01 0 0.01 0 0.42c0.18,-0.06 0.32,-0.12 0.45,-0.21 0.13,-0.09 0.26,-0.19 0.4,-0.33l0.03 -0.03 0 0.04c0.03,0.16 0.12,0.31 0.22,0.46 0.12,0.18 0.23,0.35 0.21,0.54l0 0c-0.08,0.79 -1.23,1.25 -2.04,1.57 -0.19,0.07 -0.35,0.14 -0.49,0.2l-0.02 0.01 0 -0.02c-0.17,-0.53 -0.39,-1.03 -0.64,-1.52 -0.24,-0.48 -0.5,-0.95 -0.77,-1.42 -0.17,0.3 -0.04,0.54 0.1,0.82 0.04,0.07 0.08,0.15 0.11,0.23l0 0c0.04,0.11 0.08,0.22 0.12,0.33 0.07,0.22 0.15,0.44 0.28,0.64 0.1,0.17 0.22,0.31 0.34,0.46 0.18,0.23 0.37,0.46 0.49,0.76 0.21,-0.01 0.43,-0.04 0.64,-0.07l0 0c0.22,-0.04 0.44,-0.09 0.66,-0.15l0.03 -0.01 -0.01 0.03c-0.13,0.75 -0.54,1.19 -0.96,1.65 -0.25,0.28 -0.51,0.57 -0.72,0.93 -0.21,0.37 -0.11,0.7 -0.01,1.03 0.07,0.22 0.13,0.44 0.12,0.67 -0.01,0.27 -0.15,0.4 -0.31,0.55 -0.08,0.08 -0.17,0.16 -0.23,0.26 -0.1,0.16 -0.16,0.37 -0.22,0.59 -0.14,0.54 -0.29,1.1 -0.99,0.95l0 0c-0.52,-0.11 -0.87,-0.79 -1.1,-1.26l-0.05 -0.09 0 0c-0.31,-0.61 -0.43,-1.14 -0.56,-1.73 -0.05,-0.18 -0.09,-0.38 -0.14,-0.58 -0.11,-0.4 -0.25,-0.79 -0.39,-1.19 -0.1,-0.29 -0.2,-0.58 -0.29,-0.87l-0.2 0.1 -0.02 0.01 -0.01 -0.03 -0.1 -0.42c-0.33,0.05 -0.55,0.02 -0.71,-0.11 -0.14,-0.12 -0.22,-0.32 -0.27,-0.6 -0.26,0.81 0.22,2.07 0.54,2.89 0.03,0.07 0.05,0.14 0.08,0.21 0.59,1.58 1.53,3 2.72,4.17 1.2,1.19 2.65,2.13 4.25,2.74 2.33,0.88 4.91,0.96 7.31,0.34 2.36,-0.62 4.55,-1.93 6.13,-3.85 0.79,-0.96 1.39,-1.99 1.83,-3.09 0.44,-1.11 0.71,-2.27 0.85,-3.49l0 0c0.17,-1.31 0.08,-2.67 -0.23,-3.98 -0.32,-1.32 -0.86,-2.59 -1.6,-3.7 -0.06,-0.09 -0.13,-0.2 -0.2,-0.32 -0.39,-0.63 -0.89,-1.42 -1.58,-1.54l-0.01 0 0 -0.01c-0.07,-0.15 -0.14,-0.26 -0.23,-0.36 -0.07,-0.08 -0.15,-0.16 -0.26,-0.24zm0.03 0.17c-0.03,-0.07 -0.06,-0.14 -0.09,-0.23l-0.03 -0.07 0.06 0.05c0.13,0.11 0.24,0.2 0.32,0.3 0.09,0.1 0.16,0.21 0.23,0.35 0.69,0.13 1.2,0.93 1.6,1.56 0.06,0.11 0.13,0.22 0.2,0.32 0.74,1.12 1.28,2.39 1.6,3.71 0.31,1.31 0.4,2.68 0.23,3.99 -0.14,1.22 -0.41,2.39 -0.86,3.5 -0.44,1.11 -1.04,2.14 -1.83,3.1 -1.59,1.93 -3.78,3.25 -6.15,3.87 -2.41,0.62 -4.99,0.54 -7.33,-0.34 -1.61,-0.61 -3.07,-1.56 -4.27,-2.75 -1.19,-1.18 -2.13,-2.6 -2.73,-4.19 -0.02,-0.06 -0.05,-0.13 -0.08,-0.2 -0.33,-0.86 -0.83,-2.18 -0.52,-3l0.03 -0.07 0.01 0.08c0.05,0.31 0.13,0.52 0.28,0.65 0.15,0.12 0.36,0.15 0.69,0.1l0.02 0 0 0.01 0.1 0.42 0.2 -0.1 0.02 -0.01 0.01 0.02c0.09,0.3 0.19,0.6 0.3,0.9 0.14,0.39 0.28,0.79 0.38,1.19 0.06,0.21 0.1,0.4 0.15,0.59 0.13,0.58 0.25,1.11 0.56,1.71l0 0 0.05 0.09c0.23,0.46 0.57,1.14 1.07,1.25 0.66,0.13 0.81,-0.41 0.94,-0.93 0.07,-0.22 0.12,-0.44 0.22,-0.6l0 0c0.07,-0.11 0.16,-0.19 0.24,-0.27 0.15,-0.14 0.29,-0.27 0.3,-0.52 0.01,-0.23 -0.05,-0.44 -0.11,-0.66 -0.11,-0.34 -0.21,-0.67 0,-1.06l0 0c0.21,-0.37 0.48,-0.66 0.73,-0.94 0.41,-0.44 0.81,-0.87 0.95,-1.59 -0.21,0.05 -0.42,0.1 -0.63,0.13 -0.22,0.04 -0.44,0.07 -0.66,0.08l-0.02 0 0 -0.01c-0.12,-0.3 -0.31,-0.53 -0.49,-0.77 -0.12,-0.14 -0.24,-0.29 -0.35,-0.46 -0.13,-0.21 -0.2,-0.43 -0.28,-0.65 -0.04,-0.11 -0.07,-0.21 -0.12,-0.32l0 0c-0.03,-0.08 -0.07,-0.16 -0.11,-0.23 -0.15,-0.3 -0.28,-0.56 -0.08,-0.89l0.02 -0.03 0.01 0.03c0.28,0.48 0.55,0.96 0.8,1.45 0.24,0.49 0.46,0.99 0.63,1.5 0.13,-0.06 0.29,-0.12 0.47,-0.19 0.8,-0.32 1.93,-0.76 2.01,-1.54 0.02,-0.17 -0.09,-0.34 -0.2,-0.51 -0.09,-0.14 -0.19,-0.28 -0.22,-0.44 -0.13,0.13 -0.25,0.23 -0.38,0.32 -0.14,0.09 -0.29,0.16 -0.48,0.21l-0.03 0.01 0 -0.03 0 -0.42c-0.19,-0.05 -0.33,-0.15 -0.43,-0.28 -0.1,-0.14 -0.17,-0.31 -0.23,-0.5l0 -0.03 0.03 0c0.26,0.05 0.45,0.18 0.64,0.3 0.25,0.16 0.49,0.32 0.89,0.25l0.01 0 0.01 0.01c0.31,0.29 0.64,0.29 0.98,0.29 0.24,0 0.49,0 0.75,0.1l0 0c0.32,0.12 0.57,0.42 0.8,0.69 0.07,0.07 0.13,0.15 0.19,0.21l0 0c0.02,-0.07 0.03,-0.1 0.06,-0.13 0.02,-0.02 0.06,-0.03 0.12,-0.05l0.04 -0.02 0.02 0 0.01 0.02c0.13,0.38 0.28,0.76 0.44,1.14 0.19,0.49 0.39,0.98 0.54,1.47 0.37,-0.27 0.44,-0.54 0.51,-0.85 0.05,-0.2 0.1,-0.41 0.23,-0.64l0 0c0.15,-0.26 0.38,-0.48 0.61,-0.71 0.17,-0.17 0.35,-0.34 0.49,-0.53l0 -0.01 0.01 0c0.14,0 0.24,-0.02 0.34,-0.05l0 0c0.1,-0.04 0.2,-0.1 0.31,-0.16l0.02 -0.01 0.01 0.01c0.05,0.08 0.1,0.15 0.15,0.23 0.24,0.37 0.47,0.71 0.51,1.18l0.52 -0.21 0.02 0 0.01 0.01c0.16,0.36 0.24,0.73 0.32,1.1 0.16,0.68 0.3,1.33 0.94,1.83 -0.09,-0.32 -0.23,-0.58 -0.37,-0.82 -0.23,-0.43 -0.45,-0.83 -0.38,-1.44l0 -0.03 0.03 0.01c0.2,0.12 0.39,0.23 0.54,0.37 0.15,0.13 0.26,0.29 0.34,0.49l0.06 -0.05c0.34,-0.3 0.7,-0.62 0.46,-1.11l0 0c-0.05,-0.1 -0.12,-0.19 -0.19,-0.29 -0.14,-0.18 -0.28,-0.36 -0.28,-0.59 0.01,-0.09 0.03,-0.17 0.06,-0.22l0 0c0.04,-0.06 0.08,-0.09 0.13,-0.11 0.05,-0.03 0.11,-0.03 0.17,-0.03 0.11,0 0.24,0.04 0.34,0.11 0.17,-0.24 0.39,-0.38 0.6,-0.51 0.31,-0.21 0.62,-0.41 0.74,-0.9 0.1,-0.41 -0.03,-0.74 -0.14,-1.06 -0.15,-0.39 -0.28,-0.77 -0.02,-1.22 -0.17,0.01 -0.3,0 -0.43,-0.02 -0.13,-0.03 -0.26,-0.1 -0.42,-0.21l-0.02 -0.01 0.01 -0.02c0.09,-0.1 0.17,-0.2 0.26,-0.29 0.09,-0.09 0.19,-0.17 0.3,-0.26l0.03 -0.02 0 0.04 0 0.51c0.09,-0.04 0.16,-0.08 0.24,-0.11 0.08,-0.04 0.17,-0.07 0.28,-0.09l0.02 -0.01 0.01 0.02c0.04,0.19 0.12,0.36 0.2,0.52 0.1,0.21 0.19,0.41 0.23,0.65 0.28,-0.35 0.09,-0.63 -0.13,-0.96 -0.04,-0.07 -0.08,-0.13 -0.12,-0.19l-0.01 -0.01 0.01 -0.01c0.1,-0.19 0.17,-0.37 0.25,-0.56 0.02,-0.07 0.05,-0.14 0.08,-0.21l0.01 -0.02 0.02 0.01 0.19 0.1c0.09,-0.36 0.05,-0.69 0.02,-1.03 -0.03,-0.27 -0.06,-0.53 -0.02,-0.81l0 -0.06 0.03 0.05 0.36 0.62c-0.08,-0.23 -0.2,-0.45 -0.31,-0.67 -0.07,-0.12 -0.13,-0.24 -0.19,-0.36 -0.4,-0.05 -0.68,-0.19 -0.85,-0.41 -0.18,-0.23 -0.25,-0.54 -0.25,-0.93l0 -0.02 0.02 0c0.18,0.01 0.35,0.03 0.51,0.06l0 0c0.14,0.04 0.28,0.08 0.43,0.14 -0.04,-0.06 -0.07,-0.11 -0.1,-0.16z"/>
   <path class="fil5" d="M26.79 27.74c0.18,0.63 0.61,1.12 0.98,1.65 0,-0.62 -0.51,-1.28 -0.98,-1.65zm-0.55 0.77l0 0 0.11 0.11 -0.11 -0.11zm-16.48 0.55l0 0 0.11 0.11 -0.11 -0.11zm17.25 0.77l0 0c0.07,0.17 0.08,0.19 0.22,0.33 -0.08,-0.15 -0.11,-0.21 -0.22,-0.33z"/>
   <path class="fil4" d="M26.82 27.8c0.16,0.49 0.46,0.89 0.77,1.3 0.05,0.08 0.11,0.15 0.16,0.23 -0.01,-0.26 -0.11,-0.52 -0.26,-0.77 -0.18,-0.3 -0.43,-0.57 -0.67,-0.76zm0.74 1.33c-0.32,-0.43 -0.64,-0.86 -0.79,-1.38l-0.02 -0.06 0.05 0.04c0.26,0.2 0.53,0.49 0.73,0.81 0.16,0.27 0.26,0.56 0.26,0.85l0 0.06 -0.03 -0.05c-0.07,-0.09 -0.14,-0.18 -0.2,-0.27zm-1.31 -0.63l0.11 0.11 -0.03 0.03 -0.11 -0.11 0.03 -0.03zm-16.48 0.55l0.11 0.11 -0.03 0.02 -0.11 -0.11 0.03 -0.02zm17.32 0.92c0.01,0.01 0.01,0.02 0.02,0.03 0.01,0.01 0.01,0.02 0.02,0.03 0,-0.01 -0.01,-0.02 -0.02,-0.03 -0.01,-0.01 -0.01,-0.02 -0.02,-0.03zm-0.01 0.05c-0.03,-0.04 -0.05,-0.09 -0.09,-0.18l-0.05 -0.12 0.08 0.1c0.06,0.06 0.09,0.1 0.12,0.15 0.04,0.05 0.06,0.1 0.1,0.18l0.06 0.11 -0.09 -0.09c-0.07,-0.06 -0.1,-0.1 -0.13,-0.15z"/>
   <path class="fil3" d="M7.78 30.38l-0.22 0.55c0.22,-0.17 0.28,-0.28 0.22,-0.55zm5.16 1.98l0 0c0.31,0.14 0.55,0.22 0.88,0.22 -0.05,-0.54 -0.2,-1.1 -0.66,-1.43l0.33 -0.66c-0.11,0.01 -0.24,0.01 -0.34,0.05 -0.89,0.34 -0.07,1.16 -0.21,1.82z"/>
   <path class="fil4" d="M7.77 30.45l-0.16 0.42c0.07,-0.06 0.12,-0.12 0.15,-0.18 0.02,-0.07 0.03,-0.14 0.01,-0.24zm-0.23 0.47l0.22 -0.55 0.03 -0.06 0.01 0.07c0.03,0.13 0.03,0.23 -0.01,0.32 -0.03,0.09 -0.11,0.16 -0.22,0.24l-0.05 0.05 0.02 -0.07zm5.43 1.43c0.14,0.06 0.27,0.12 0.41,0.15 0.13,0.04 0.26,0.05 0.42,0.06 -0.03,-0.26 -0.08,-0.53 -0.17,-0.77 -0.1,-0.24 -0.25,-0.46 -0.48,-0.63l-0.01 -0.01 0.01 -0.01 0.31 -0.63c-0.02,0 -0.04,0 -0.06,0.01 -0.08,0 -0.17,0.01 -0.24,0.03 -0.55,0.21 -0.43,0.61 -0.3,1.04 0.07,0.25 0.15,0.51 0.11,0.76zm0.4 0.19c-0.15,-0.04 -0.28,-0.09 -0.43,-0.17l-0.02 0 0 -0.02c0.05,-0.23 -0.03,-0.5 -0.1,-0.75 -0.13,-0.44 -0.26,-0.86 0.32,-1.08l0 0c0.08,-0.03 0.17,-0.04 0.26,-0.04 0.03,-0.01 0.06,-0.01 0.09,-0.01l0.04 0 -0.02 0.03 -0.32 0.64c0.23,0.17 0.37,0.39 0.47,0.64 0.11,0.25 0.16,0.52 0.18,0.79l0 0.03 -0.02 0c-0.17,0 -0.31,-0.02 -0.45,-0.06z"/>
   <path class="fil5" d="M27.23 30.49c0.06,0.26 0.09,0.5 0.11,0.77 0.2,-0.15 0.11,-0.17 0.32,-0.11l0.11 -0.44 -0.54 -0.22z"/>
   <path class="fil4" d="M27.25 30.52c0.03,0.12 0.05,0.23 0.07,0.35 0.02,0.11 0.03,0.23 0.03,0.35 0.04,-0.03 0.06,-0.05 0.08,-0.07 0.03,-0.02 0.04,-0.04 0.07,-0.05l0 0c0.03,-0.01 0.06,0 0.14,0.02l0.01 0 0.1 -0.4 -0.5 -0.2zm0.03 0.35c-0.02,-0.12 -0.04,-0.25 -0.07,-0.38l-0.01 -0.03 0.03 0.01 0.55 0.22 0.02 0.01 -0.01 0.01 -0.11 0.44 0 0.02 -0.02 0 -0.03 -0.01c-0.07,-0.02 -0.1,-0.03 -0.12,-0.02l0 0c-0.02,0.01 -0.03,0.02 -0.05,0.04 -0.02,0.02 -0.06,0.05 -0.11,0.09l-0.03 0.03 0 -0.04c-0.01,-0.13 -0.02,-0.26 -0.04,-0.39z"/>
   <path class="fil3" d="M10.86 30.93l0 0.44c-0.14,-0.21 -0.24,-0.31 -0.44,-0.44 -0.23,0.36 -0.38,0.68 -0.44,1.1 0.55,-0.07 1.68,0.01 1.87,-0.55 -0.3,-0.13 -0.57,-0.26 -0.88,-0.33 0.2,-0.14 0.3,-0.22 0.44,-0.44 -0.22,0.06 -0.36,0.12 -0.55,0.22zm-2.97 0l0 0c-1.14,0.88 -1.43,2.92 -1.43,4.28 0.22,-0.4 0.22,-0.9 0.47,-1.29 0.26,-0.39 0.78,-0.59 1.18,-0.79l-0.11 0.65 0.99 0.44 0.11 -0.55c0.88,0.33 2.06,0.42 1.87,-0.87 -0.71,0.22 -1.08,0.08 -1.21,-0.66l-0.44 0.22c0.05,0.3 0.03,0.38 -0.11,0.66 -0.15,-0.55 -0.33,-0.98 -0.66,-1.43 -0.11,0.41 0.21,0.78 0.22,1.21 -0.19,-0.29 -0.39,-0.57 -0.55,-0.88 -0.61,0.4 -0.71,1.21 -1.32,1.53 0.11,-0.87 0.94,-1.64 0.99,-2.52z"/>
   <path class="fil4" d="M10.88 30.94l0 0.43 0 0.06 -0.04 -0.05c-0.07,-0.1 -0.13,-0.18 -0.19,-0.25 -0.06,-0.06 -0.13,-0.11 -0.23,-0.17 -0.1,0.17 -0.19,0.33 -0.26,0.5 -0.07,0.17 -0.13,0.35 -0.16,0.54 0.11,-0.01 0.24,-0.02 0.38,-0.02 0.56,-0.03 1.28,-0.07 1.44,-0.49l-0.06 -0.03c-0.26,-0.12 -0.51,-0.23 -0.8,-0.29l-0.04 -0.01 0.04 -0.03c0.1,-0.07 0.17,-0.12 0.24,-0.19 0.06,-0.05 0.11,-0.11 0.16,-0.2 -0.09,0.03 -0.16,0.05 -0.23,0.08l0 0c-0.08,0.04 -0.16,0.07 -0.25,0.12zm-0.04 0.36l0 -0.37 0 -0.01 0.01 -0.01c0.09,-0.05 0.18,-0.09 0.26,-0.12 0.09,-0.04 0.18,-0.07 0.29,-0.1l0.05 -0.01 -0.03 0.04c-0.06,0.11 -0.12,0.19 -0.19,0.25 -0.06,0.06 -0.13,0.11 -0.22,0.17 0.28,0.07 0.52,0.17 0.77,0.29l0.07 0.03 0.02 0.01 -0.01 0.01c-0.15,0.46 -0.9,0.51 -1.48,0.54 -0.15,0.01 -0.29,0.01 -0.4,0.03l-0.03 0 0.01 -0.03c0.03,-0.21 0.09,-0.39 0.16,-0.57 0.07,-0.18 0.17,-0.35 0.28,-0.53l0.01 -0.02 0.02 0.01c0.1,0.07 0.18,0.13 0.25,0.2 0.05,0.05 0.1,0.12 0.16,0.19zm-2.97 -0.33c-0.47,0.38 -0.79,0.95 -1,1.59 -0.28,0.84 -0.38,1.8 -0.39,2.57 0.08,-0.17 0.12,-0.34 0.17,-0.52 0.07,-0.24 0.13,-0.49 0.27,-0.7 0.22,-0.34 0.63,-0.54 1,-0.72 0.07,-0.03 0.12,-0.05 0.18,-0.08l0.04 -0.02 -0.01 0.04 -0.11 0.64 0.95 0.43 0.11 -0.53 0 -0.02 0.03 0.01c0.39,0.14 0.85,0.24 1.21,0.19 0.14,-0.02 0.26,-0.06 0.36,-0.13l0 0c0.1,-0.08 0.18,-0.17 0.23,-0.3 0.06,-0.16 0.07,-0.35 0.04,-0.6 -0.35,0.11 -0.61,0.12 -0.81,0.02 -0.2,-0.1 -0.33,-0.31 -0.4,-0.67l-0.4 0.2c0.03,0.14 0.03,0.24 0.02,0.33 -0.02,0.1 -0.06,0.19 -0.13,0.32l-0.03 0.05 -0.01 -0.05c-0.07,-0.27 -0.16,-0.51 -0.26,-0.74 -0.1,-0.22 -0.22,-0.43 -0.37,-0.65 -0.04,0.22 0.03,0.42 0.1,0.63 0.06,0.17 0.12,0.35 0.13,0.54l0 0.06 -0.04 -0.05c-0.03,-0.05 -0.07,-0.11 -0.1,-0.16 -0.16,-0.23 -0.31,-0.46 -0.44,-0.7 -0.28,0.19 -0.45,0.47 -0.62,0.75 -0.18,0.3 -0.36,0.6 -0.68,0.77l-0.03 0.02 0 -0.04c0.06,-0.42 0.28,-0.82 0.5,-1.22 0.22,-0.41 0.45,-0.82 0.49,-1.26zm-1.04 1.58c0.22,-0.66 0.55,-1.26 1.05,-1.64l0.03 -0.02 0 0.04c-0.02,0.46 -0.26,0.89 -0.5,1.32 -0.21,0.38 -0.42,0.76 -0.48,1.17 0.28,-0.17 0.45,-0.45 0.63,-0.74 0.17,-0.29 0.35,-0.58 0.65,-0.78l0.02 -0.01 0.01 0.02c0.13,0.25 0.28,0.48 0.44,0.72l0.06 0.09c-0.01,-0.15 -0.06,-0.3 -0.11,-0.44 -0.09,-0.23 -0.16,-0.46 -0.1,-0.7l0.01 -0.04 0.03 0.04c0.16,0.22 0.29,0.45 0.4,0.68 0.1,0.22 0.17,0.45 0.24,0.7 0.06,-0.11 0.09,-0.19 0.11,-0.27 0.01,-0.09 0.01,-0.18 -0.02,-0.33l0 -0.01 0.01 -0.01 0.44 -0.22 0.02 -0.01 0.01 0.02c0.06,0.37 0.18,0.58 0.38,0.68 0.19,0.1 0.45,0.08 0.8,-0.03l0.02 -0.01 0.01 0.02c0.04,0.27 0.02,0.48 -0.04,0.64 -0.05,0.14 -0.14,0.24 -0.25,0.32 -0.1,0.07 -0.23,0.12 -0.38,0.14 -0.36,0.05 -0.81,-0.04 -1.21,-0.19l-0.1 0.53 -0.01 0.02 -0.02 -0.01 -0.99 -0.44 -0.01 0 0 -0.02 0.1 -0.62c-0.04,0.02 -0.09,0.05 -0.14,0.07 -0.37,0.17 -0.78,0.37 -0.99,0.7l0 0c-0.13,0.21 -0.2,0.45 -0.26,0.69 -0.05,0.21 -0.11,0.41 -0.21,0.6l-0.04 0.07 0 -0.08c0,-0.78 0.1,-1.78 0.39,-2.66z"/>
   <path class="fil5" d="M27.45 31.48c0.15,0.66 -0.09,0.88 -0.55,1.32 0.07,0.14 0,0.11 0.22,0.11l0 0.22c-0.17,-0.11 -0.14,-0.11 -0.33,-0.11 0.06,0.17 0.11,0.28 0.22,0.43 0.47,-0.52 1.39,-1.36 0.44,-1.97z"/>
   <path class="fil4" d="M27.48 31.52c0.06,0.31 0.03,0.52 -0.06,0.71 -0.1,0.19 -0.27,0.36 -0.5,0.57 0.01,0.02 0.02,0.04 0.02,0.06 0.01,0.02 0.02,0.02 0.02,0.03 0.01,0 0.02,0 0.06,0 0.02,0 0.05,0 0.1,0l0.02 0 0 0.02 0 0.22 0 0.03 -0.04 -0.02c-0.02,-0.01 -0.04,-0.03 -0.05,-0.04 -0.09,-0.06 -0.1,-0.06 -0.24,-0.06 0.06,0.14 0.11,0.25 0.2,0.38 0.04,-0.04 0.08,-0.09 0.13,-0.14 0.17,-0.18 0.36,-0.39 0.5,-0.61 0.25,-0.39 0.34,-0.8 -0.16,-1.15zm-0.1 0.69c0.1,-0.19 0.12,-0.4 0.05,-0.73l-0.02 -0.05 0.05 0.03c0.57,0.37 0.48,0.82 0.21,1.23 -0.14,0.22 -0.33,0.43 -0.5,0.62 -0.06,0.05 -0.11,0.11 -0.15,0.16l-0.02 0.02 -0.01 -0.02c-0.11,-0.16 -0.16,-0.27 -0.22,-0.44l0 0 0 -0.01 -0.01 -0.02 0.03 0c0.17,0 0.17,0 0.28,0.07l0.03 0.02 0 -0.16c-0.04,0 -0.06,0 -0.08,0 -0.04,0 -0.06,0 -0.08,-0.01 -0.02,-0.01 -0.02,-0.02 -0.03,-0.05 -0.01,-0.01 -0.02,-0.04 -0.03,-0.07l-0.01 -0.01 0.01 -0.01c0.23,-0.21 0.41,-0.38 0.5,-0.57z"/>
   <path class="fil8" d="M9.94 32.17c-0.05,0.05 0.07,0.05 0.07,0.04 0.05,-0.05 -0.06,-0.04 -0.07,-0.04z"/>
   <g>
    <path class="fil5" d="M8 32.25l0.11 0.11 -0.11 -0.11zm0 0.22l0 0 -0.11 0.33c0.19,-0.11 0.21,-0.14 0.11,-0.33zm0.55 0.33l0 0 -0.33 0.22c0.22,0.03 0.33,0.03 0.33,-0.22z"/>
   </g>
   <line class="fil9" x1="27.23" y1="32.8" x2="27.34" y2= "32.91" />
   <path class="fil5" d="M10.75 33.02l-0.22 0.11c0.16,0.06 0.22,0.06 0.22,-0.11zm-1.25 0.25l0 0c-0.05,0.05 0.07,0.04 0.08,0.04 0.04,-0.05 -0.07,-0.04 -0.08,-0.04z"/>
   <line class="fil9" x1="10.64" y1="34.33" x2="10.75" y2= "34.44" />
   <path class="fil5" d="M25.91 34.77c-0.06,0.26 -0.06,0.41 0,0.66 0.1,-0.25 0.1,-0.41 0,-0.66z"/>
   <path class="fil3" d="M6.5 35.32l0 1.21c0.16,-0.37 0.16,-0.83 0,-1.21zm10.55 0l0 0 0.11 0.11 -0.11 -0.11z"/>
   <path class="fil5" d="M24.15 36.2c0.22,-0.1 0.22,-0.09 0.33,-0.33 -0.26,0.05 -0.28,0.07 -0.33,0.33zm1.87 -0.11l0 0c-0.08,0.46 -0.07,0.78 0.11,1.21 0.11,-0.17 0.1,-0.19 0.33,-0.22 -0.08,0.17 -0.09,0.2 -0.22,0.33l0.11 0.44c0.1,-0.2 0.19,-0.37 0.33,-0.55l-0.11 0.33c0.25,-0.36 0.05,-0.55 -0.33,-0.66 0.03,-0.39 0.05,-0.59 -0.22,-0.88zm-4.58 1.17l0 0c-0.01,0.01 -0.01,0.13 0.04,0.08 0,-0.01 0.01,-0.13 -0.04,-0.08zm4.47 0.04l0 0 0.11 0.11 -0.11 -0.11zm-0.11 0.33l0 0 0.11 0.11 -0.11 -0.11zm0.77 0.11l0 0 0.11 0.33c-0.22,-0.14 -0.12,-0.14 -0.33,0l0.33 0.44c0.21,-0.33 0.21,-0.54 -0.11,-0.77zm-0.88 0.11l0 0 -0.11 0.22c0.14,-0.11 0.15,-0.08 0.11,-0.22zm-6.59 0.11l0 0c-0.09,0.3 -0.09,0.47 0,0.77l0.22 0 0.11 -0.11c-0.08,-0.27 -0.16,-0.44 -0.33,-0.66zm6.37 0.44l0 0c-0.35,0.4 -0.73,0.77 -1.21,0.99 0.02,0.44 0.44,1.32 0.99,0.78 0.36,-0.32 0.41,-0.89 0.33,-1.33l0.33 -0.11 -0.22 -0.33 -0.22 0zm-3.63 0.33l0 0c0.47,0.66 1.02,1.84 1.87,1.98 0.06,0.46 0.8,0.43 1.21,0.43l0 -0.32c-0.63,0 -1.19,0 -1.1,-0.77l-0.33 0.11c-0.19,-0.73 -0.91,-1.32 -1.65,-1.43zm4.73 0.44l0 0c-0.29,0.12 -0.49,0.18 -0.66,0.44 0.28,-0.08 0.71,-0.1 0.66,-0.44zm0.47 0.07l0 0c0,0.01 -0.01,0.12 0.04,0.07 0.01,0 0.01,-0.12 -0.04,-0.07zm0.3 0.15l0 0c0.16,0.4 0.37,0.58 0.76,0.77l-0.11 0.44 0.44 0c0.22,-0.26 0.28,-0.11 0.55,0 -0.14,-0.71 -0.47,-1.24 -1.21,-0.77l-0.11 -0.44 -0.32 0zm-5.06 0.11l0 0 0.11 0.11 -0.11 -0.11zm1.21 0l0 0 0.11 0.11 -0.11 -0.11zm2.2 0.99l0 0c0.18,-0.15 0.18,-0.21 0.22,-0.44 0.13,0.11 0.17,0.14 0.33,0.22l-0.11 -0.44 0.33 -0.11c-0.58,-0.13 -0.72,0.27 -0.77,0.77zm-2.2 -0.77l0 0 0.11 0.11 -0.11 -0.11zm5.71 0l0 0 -0.22 0.11c0.16,0.06 0.22,0.06 0.22,-0.11zm-2.19 0.11l0 0 0 0.22 0.33 0c-0.14,-0.13 -0.16,-0.15 -0.33,-0.22zm-4.47 0.18l0 0c-0.01,0.01 -0.01,0.12 0.03,0.07 0.01,0 0.02,-0.12 -0.03,-0.07zm4.14 -0.07l0 0 0 0.22 0.22 0 0 -0.22 -0.22 0zm-2.68 0.25l0 0c-0.05,0.05 0.07,0.05 0.08,0.04 0.04,-0.05 -0.07,-0.04 -0.08,-0.04zm2.57 0.52l0 0 -0.44 0.54c0.27,-0.13 0.44,-0.21 0.44,-0.54zm-1.1 0.22l0 0 -0.44 0.11c0.22,0.08 0.31,0.06 0.55,0l-0.11 -0.11zm0.22 0l0 0c0.16,0.07 0.25,0.09 0.44,0.11 -0.17,-0.08 -0.26,-0.1 -0.44,-0.11zm2.52 0l0 0c-0.08,0.34 -0.22,0.66 -0.33,0.98l-0.43 -0.22 0.32 -0.55 -0.54 0c-0.18,0.22 -0.33,0.41 -0.44,0.66 -0.45,0 -0.61,0.15 -0.77,0.55 -0.47,0.09 -1.5,0.77 -1.7,1.22 -0.25,0.52 -0.23,1.11 -0.5,1.64 0.96,-0.1 1.65,-0.76 2.64,-0.77l-0.11 0.44c1.2,-0.62 2.66,-2.55 1.86,-3.95zm-2.56 0.25l0 0c-0.05,0.05 0.07,0.04 0.07,0.04 0.05,-0.05 -0.06,-0.04 -0.07,-0.04zm-12.16 0.62l0 0c-0.52,0.47 -1.44,1.72 -0.22,1.98 0.19,-0.59 0.59,-1.41 0.22,-1.98zm1.1 1.43l0 0 -0.06 -0.08 0.06 0.08z"/>
   <path class="fil4" d="M24.17 36.22l-0.01 0 -0.04 0.02 0.01 -0.04c0.03,-0.14 0.05,-0.21 0.09,-0.25l0 0 0 0c0.05,-0.05 0.12,-0.07 0.25,-0.1l0.04 -0.01 -0.01 0.04c-0.11,0.24 -0.12,0.24 -0.33,0.34zm0.01 -0.05c0.16,-0.08 0.18,-0.09 0.26,-0.27 -0.1,0.02 -0.15,0.04 -0.19,0.07l0 0c-0.03,0.04 -0.05,0.1 -0.07,0.2zm1.85 -0.04c-0.04,0.21 -0.05,0.4 -0.04,0.57 0.02,0.18 0.06,0.36 0.14,0.56l0.01 -0.02c0.08,-0.12 0.1,-0.15 0.29,-0.18 -0.06,-0.02 -0.12,-0.05 -0.2,-0.07l-0.01 0 0 -0.02c0.02,-0.19 0.03,-0.34 0,-0.47 -0.02,-0.13 -0.08,-0.24 -0.19,-0.37zm-0.08 0.58c-0.01,-0.2 0.01,-0.39 0.05,-0.62l0 -0.04 0.03 0.03c0.14,0.14 0.21,0.27 0.23,0.41 0.03,0.13 0.02,0.28 0,0.47 0.18,0.05 0.33,0.13 0.39,0.24 0.02,0.02 0.03,0.04 0.03,0.06l0.05 -0.06 -0.03 0.11 0 0c0.01,0.09 -0.03,0.2 -0.12,0.33l-0.04 0.06 0.04 0.02c0.16,0.12 0.25,0.24 0.26,0.37 0.02,0.13 -0.04,0.26 -0.15,0.43l-0.01 0.02 -0.02 -0.02 -0.33 -0.44 -0.01 -0.02 0.02 -0.01c0.04,-0.03 0.07,-0.05 0.09,-0.06l0 0c0.04,-0.03 0.05,-0.05 0.08,-0.05 0.02,0 0.04,0.02 0.08,0.05 0.01,0.01 0.03,0.02 0.05,0.03l-0.09 -0.27 -0.01 -0.04 -0.03 0.04 0.04 -0.13 0.07 -0.21c-0.04,0.06 -0.07,0.11 -0.11,0.17 -0.05,0.09 -0.09,0.18 -0.15,0.28l-0.02 0.05 -0.01 -0.06 -0.11 -0.44 -0.01 -0.01 0.01 0c0.07,-0.07 0.1,-0.11 0.13,-0.15 0.03,-0.04 0.05,-0.08 0.07,-0.15 -0.16,0.03 -0.18,0.05 -0.25,0.16l0 0 -0.03 0.05 -0.02 0.03 -0.01 -0.03c-0.09,-0.22 -0.14,-0.41 -0.16,-0.6zm0.53 0.38l-0.01 0c-0.03,0.09 -0.06,0.14 -0.09,0.18 -0.02,0.04 -0.06,0.08 -0.12,0.15l0.09 0.37c0.05,-0.08 0.09,-0.16 0.13,-0.23 0.05,-0.09 0.11,-0.17 0.17,-0.26 0,-0.03 -0.01,-0.06 -0.03,-0.08 -0.03,-0.05 -0.08,-0.1 -0.14,-0.13zm-5.03 0.19c0,0 0,0.02 0.01,0.04 0,0 0,0 0,0.01 0,0 0,-0.01 0,-0.01 0,0 0,-0.02 0,-0.04l0 -0.01c0,0 0,0.01 -0.01,0.01zm-0.03 0.05c-0.01,-0.03 0,-0.08 0.01,-0.08l0 0c0.01,-0.02 0.03,-0.02 0.04,-0.02l0 0c0.01,0 0.01,0.01 0.02,0.02l0 0c0,0.01 0.01,0.02 0.01,0.02 0,0.03 0,0.08 -0.01,0.08 -0.02,0.02 -0.03,0.02 -0.04,0.02l0 0c-0.01,0 -0.02,-0.01 -0.02,-0.02l0 0c-0.01,-0.01 -0.01,-0.02 -0.01,-0.02zm4.5 -0.04l0.11 0.11 -0.03 0.02 -0.11 -0.11 0.03 -0.02zm-0.11 0.33l0.11 0.11 -0.03 0.02 -0.11 -0.11 0.03 -0.02zm0.8 0.17l0.09 0.27 0.01 0.06 -0.04 -0.03c-0.05,-0.03 -0.08,-0.06 -0.1,-0.07 -0.04,-0.02 -0.05,-0.04 -0.06,-0.04 -0.01,0 -0.03,0.02 -0.06,0.04l0 0c-0.02,0.01 -0.04,0.03 -0.07,0.05l0.29 0.4c0.1,-0.14 0.15,-0.27 0.13,-0.38 -0.01,-0.1 -0.07,-0.2 -0.19,-0.3zm-0.93 0.11l-0.05 0.1 0 0c0.05,-0.03 0.07,-0.04 0.05,-0.1zm-0.12 0.16l0.11 -0.22 0.02 -0.04 0.02 0.04c0.04,0.13 0.03,0.14 -0.06,0.2l0 0c-0.01,0.01 -0.03,0.03 -0.06,0.04l-0.07 0.06 0.04 -0.08zm-6.46 -0.06c-0.03,0.13 -0.05,0.24 -0.05,0.34 0,0.11 0.02,0.23 0.06,0.37l0.2 0 0.09 -0.1c-0.03,-0.12 -0.07,-0.23 -0.12,-0.33 -0.05,-0.09 -0.1,-0.18 -0.18,-0.28zm-0.09 0.34c0,-0.12 0.02,-0.23 0.07,-0.39l0.01 -0.03 0.02 0.03c0.09,0.11 0.15,0.21 0.2,0.31 0.06,0.11 0.1,0.22 0.13,0.35l0.01 0.01 -0.01 0.01 -0.11 0.11 -0.01 0.01 0 0 -0.22 0 -0.02 0 0 -0.02c-0.05,-0.15 -0.07,-0.27 -0.07,-0.39zm6.47 0.08c-0.18,0.2 -0.36,0.39 -0.55,0.56 -0.2,0.16 -0.41,0.31 -0.65,0.42 0.01,0.17 0.08,0.39 0.18,0.57 0.07,0.12 0.15,0.22 0.24,0.28 0.09,0.06 0.19,0.09 0.31,0.05 0.07,-0.02 0.14,-0.06 0.22,-0.14l0 0c0.17,-0.15 0.27,-0.34 0.32,-0.55 0.06,-0.25 0.05,-0.53 0.01,-0.77l-0.01 -0.02 0.02 0 0.31 -0.1 -0.2 -0.3 -0.2 0zm-0.58 0.53c0.2,-0.17 0.38,-0.36 0.55,-0.56l0.01 -0.01 0.01 0 0.22 0 0.01 0 0 0.01 0.22 0.33 0.02 0.02 -0.03 0.01 -0.31 0.1c0.04,0.24 0.05,0.52 -0.01,0.77 -0.06,0.22 -0.16,0.42 -0.33,0.57 -0.08,0.08 -0.16,0.13 -0.24,0.15 -0.13,0.04 -0.24,0.01 -0.34,-0.06 -0.1,-0.06 -0.18,-0.17 -0.25,-0.29 -0.11,-0.19 -0.18,-0.43 -0.19,-0.6l0 -0.02 0.01 0c0.24,-0.11 0.45,-0.26 0.65,-0.42zm-3.01 -0.19c0.08,0.11 0.16,0.25 0.25,0.39 0.41,0.65 0.9,1.43 1.57,1.54l0.02 0 0 0.01c0.05,0.43 0.72,0.43 1.13,0.43l0.04 0 0 -0.29c-0.63,0 -1.17,-0.01 -1.1,-0.77l-0.3 0.1 -0.02 0.01 -0.01 -0.02c-0.09,-0.35 -0.31,-0.67 -0.6,-0.92 -0.28,-0.25 -0.63,-0.42 -0.98,-0.48zm0.22 0.41c-0.1,-0.15 -0.19,-0.3 -0.28,-0.43l-0.03 -0.04 0.05 0.01c0.37,0.05 0.74,0.24 1.04,0.5 0.29,0.25 0.52,0.57 0.61,0.92l0.31 -0.1 0.03 -0.01 0 0.03c-0.08,0.75 0.46,0.75 1.08,0.75l0.02 0 0 0.02 0 0.32 0 0.02 -0.02 0 -0.06 0c-0.42,0.01 -1.1,0.01 -1.17,-0.44 -0.53,-0.09 -0.95,-0.59 -1.3,-1.11l-0.01 0.01 -0.11 -0.11 0.03 -0.03 0.02 0.03c-0.07,-0.11 -0.14,-0.23 -0.21,-0.34zm4.44 0.03c-0.03,0.01 -0.06,0.02 -0.09,0.03 -0.21,0.09 -0.37,0.16 -0.51,0.34 0.04,0 0.07,-0.01 0.1,-0.02 0.25,-0.05 0.52,-0.11 0.5,-0.35zm-0.1 0c0.03,-0.02 0.07,-0.03 0.11,-0.05l0.02 -0.01 0.01 0.02c0.05,0.31 -0.26,0.37 -0.53,0.43 -0.05,0.01 -0.1,0.02 -0.15,0.04l-0.05 0.01 0.03 -0.04c0.15,-0.23 0.32,-0.31 0.56,-0.4zm0.61 0.05c0,0.01 0,0.03 0,0.05l0 0c0,0 0,0 0,0 0,0 0,0 0,0 0.01,0 0,-0.02 0,-0.04 0,0 0,-0.01 0,-0.01 0,0 0,0 0,0zm-0.04 0.05c0,-0.02 0,-0.07 0.01,-0.07l0 0c0.01,-0.02 0.03,-0.02 0.04,-0.02 0.01,0 0.02,0.01 0.02,0.02 0.01,0 0.01,0.01 0.01,0.02 0.01,0.03 0,0.07 -0.01,0.08l0 0c-0.01,0.01 -0.03,0.02 -0.04,0.02 -0.01,-0.01 -0.02,-0.01 -0.02,-0.02 0,-0.01 -0.01,-0.02 -0.01,-0.03zm0.35 0.11c0.07,0.18 0.16,0.32 0.28,0.43 0.12,0.12 0.27,0.21 0.46,0.3l0.02 0 -0.01 0.02 -0.1 0.42 0.41 0c0.17,-0.2 0.24,-0.16 0.4,-0.08 0.04,0.02 0.08,0.04 0.13,0.06 -0.08,-0.33 -0.19,-0.62 -0.37,-0.77 -0.19,-0.16 -0.44,-0.17 -0.8,0.05l-0.03 0.02 0 -0.03 -0.11 -0.42 -0.28 0zm0.25 0.46c-0.12,-0.12 -0.22,-0.27 -0.3,-0.48l-0.01 -0.02 0.03 0 0.32 0 0.02 0 0 0.01 0.11 0.42c0.36,-0.23 0.63,-0.21 0.82,-0.04 0.2,0.16 0.32,0.48 0.39,0.83l0.01 0.04 -0.03 -0.02c-0.07,-0.02 -0.12,-0.05 -0.17,-0.07l0 0c-0.14,-0.08 -0.2,-0.11 -0.36,0.07l-0.01 0.01 -0.01 0 -0.44 0 -0.02 0 0.01 -0.03 0.1 -0.42c-0.19,-0.09 -0.34,-0.18 -0.46,-0.3zm-4.12 -0.39l0.11 0.11 -0.02 0.03 -0.11 -0.11 0.02 -0.03zm2.21 0.96c0.14,-0.12 0.15,-0.19 0.18,-0.39l0 0 0 -0.01 0 -0.03 0.03 0.02c0.06,0.06 0.11,0.09 0.15,0.13 0.04,0.02 0.08,0.04 0.14,0.07l-0.1 -0.4 -0.01 -0.02 0.02 0 0.26 -0.09c-0.24,-0.03 -0.39,0.03 -0.49,0.16 -0.1,0.13 -0.15,0.34 -0.18,0.56zm0.21 -0.35c-0.03,0.21 -0.05,0.27 -0.22,0.41l-0.04 0.03 0.01 -0.05c0.02,-0.25 0.07,-0.47 0.19,-0.62 0.12,-0.16 0.31,-0.23 0.6,-0.16l0.07 0.01 -0.07 0.03 -0.31 0.1 0.11 0.42 0.01 0.04 -0.04 -0.02c-0.08,-0.03 -0.13,-0.06 -0.18,-0.09 -0.04,-0.03 -0.08,-0.06 -0.13,-0.1zm-2.42 -0.39l0.11 0.11 -0.02 0.03 -0.11 -0.11 0.02 -0.03zm5.68 0.05l-0.15 0.07c0.06,0.02 0.09,0.03 0.12,0.02 0.02,-0.01 0.03,-0.03 0.03,-0.09zm-0.21 0.06l0.22 -0.11 0.03 -0.02 0 0.04c0,0.09 -0.02,0.14 -0.06,0.16 -0.04,0.01 -0.1,0 -0.18,-0.03l-0.05 -0.02 0.04 -0.02zm-1.94 0.05l0 0.17 0.26 0c-0.05,-0.05 -0.08,-0.08 -0.12,-0.1 -0.03,-0.02 -0.08,-0.04 -0.14,-0.07zm-0.04 0.19l0 -0.22 0 -0.03 0.02 0.01c0.09,0.04 0.14,0.06 0.19,0.09 0.04,0.03 0.08,0.07 0.15,0.13l0.03 0.04 -0.04 0 -0.33 0 -0.02 0 0 -0.02zm-4.44 -0.03c0,0 0,0.03 0.01,0.05l0 0c0,0 0,0 0,0 0,0 0,0 0,0 0,0 0,-0.02 0,-0.04 0,-0.01 0,-0.01 0,-0.01 0,0 -0.01,0 -0.01,0zm-0.03 0.05c-0.01,-0.03 0,-0.07 0,-0.07 0.02,-0.02 0.03,-0.02 0.05,-0.02l0 0c0.01,0 0.01,0.01 0.02,0.02 0,0 0,0.01 0.01,0.02 0,0.03 -0.01,0.07 -0.01,0.08l0 0c-0.02,0.01 -0.03,0.02 -0.04,0.01l0 0c-0.01,0 -0.02,0 -0.03,-0.01l0 0c0,-0.01 0,-0.02 0,-0.03zm4.18 -0.11l0 0.18 0.18 0 0 -0.18 -0.18 0zm-0.04 0.2l0 -0.22 0 -0.02 0.02 0 0.22 0 0.02 0 0 0.02 0 0.22 0 0.02 -0.02 0 -0.22 0 -0.02 0 0 -0.02zm-2.64 0.05c0,0 -0.01,0 -0.01,0 0.01,0 0.01,0 0.01,0 0.02,0.01 0.04,0.01 0.04,0.01l0 0c0,-0.01 0,-0.01 0.01,-0.01 -0.01,0 -0.01,0 -0.01,0 -0.02,0 -0.04,0 -0.04,0zm-0.05 0.01c0,-0.01 0,-0.03 0.02,-0.04 0,-0.01 0.05,-0.01 0.08,-0.01 0,0 0.01,0.01 0.02,0.01 0.01,0 0.02,0.01 0.02,0.02 0,0.01 0,0.03 -0.02,0.04l0 0c-0.01,0.01 -0.05,0.02 -0.08,0.01 0,0 -0.01,0 -0.02,-0.01 -0.01,0 -0.02,-0.01 -0.02,-0.02zm2.57 0.54l-0.34 0.44c0.1,-0.05 0.18,-0.1 0.24,-0.16 0.06,-0.07 0.1,-0.15 0.1,-0.28zm-0.43 0.48l0.44 -0.55 0.04 -0.04 0 0.06c0,0.17 -0.05,0.27 -0.13,0.36 -0.07,0.08 -0.18,0.13 -0.32,0.2l-0.08 0.04 0.05 -0.07zm-0.65 -0.29l-0.36 0.09c0.07,0.02 0.13,0.03 0.2,0.03 0.07,0 0.14,-0.02 0.24,-0.04l-0.08 -0.08zm-0.44 0.07l0.44 -0.11 0.01 -0.01 0.01 0.01 0.11 0.11 0.03 0.02 -0.04 0.01c-0.12,0.04 -0.2,0.06 -0.28,0.06 -0.09,0 -0.17,-0.01 -0.28,-0.06l-0.06 -0.02 0.06 -0.01zm0.82 -0.05c0.02,0 0.04,0.01 0.06,0.01 0.03,0.01 0.05,0.01 0.07,0.01 -0.02,0 -0.04,-0.01 -0.06,-0.01 -0.02,-0.01 -0.04,-0.01 -0.07,-0.01zm0.05 0.05c-0.06,-0.02 -0.13,-0.04 -0.21,-0.08l-0.11 -0.05 0.12 0.02c0.09,0 0.16,0.01 0.23,0.03 0.07,0.02 0.13,0.04 0.21,0.08l0.12 0.05 -0.13 -0.02c-0.09,0 -0.16,-0.01 -0.23,-0.03zm2.33 -0.04c-0.05,0.21 -0.13,0.42 -0.2,0.62 -0.04,0.11 -0.08,0.21 -0.12,0.32l0 0.02 -0.02 -0.01 -0.44 -0.22 -0.02 -0.01 0.01 -0.02 0.31 -0.52 -0.5 0 -0.05 0.06c-0.15,0.2 -0.29,0.37 -0.39,0.59l0 0.01 -0.01 0c-0.22,0 -0.37,0.04 -0.48,0.12 -0.11,0.09 -0.19,0.22 -0.27,0.42l-0.01 0.01 -0.01 0c-0.24,0.05 -0.64,0.26 -0.99,0.51 -0.32,0.23 -0.6,0.49 -0.7,0.7l0 0c-0.11,0.24 -0.17,0.51 -0.23,0.77 -0.06,0.28 -0.12,0.57 -0.25,0.84 0.44,-0.05 0.81,-0.22 1.19,-0.38 0.44,-0.19 0.88,-0.38 1.42,-0.39l0.02 0 0 0.03 -0.1 0.39c0.02,-0.01 0.04,-0.02 0.06,-0.03 0.58,-0.33 1.2,-0.95 1.59,-1.65 0.39,-0.71 0.55,-1.49 0.2,-2.16l-0.01 -0.02zm-0.24 0.61c0.08,-0.22 0.16,-0.44 0.21,-0.67l0.02 -0.05 0.02 0.05c0.01,0.02 0.02,0.04 0.03,0.06 0.36,0.68 0.2,1.48 -0.19,2.2 -0.4,0.71 -1.03,1.33 -1.62,1.66 -0.03,0.02 -0.06,0.04 -0.09,0.06l-0.04 0.02 0.01 -0.04 0.1 -0.42c-0.51,0.01 -0.94,0.2 -1.38,0.39 -0.39,0.16 -0.78,0.33 -1.23,0.38l-0.03 0 0.01 -0.03c0.14,-0.27 0.2,-0.57 0.27,-0.85 0.05,-0.27 0.11,-0.54 0.23,-0.79l0 0c0.1,-0.22 0.38,-0.48 0.71,-0.71 0.35,-0.25 0.75,-0.46 0.99,-0.51 0.09,-0.2 0.17,-0.34 0.29,-0.43 0.11,-0.09 0.26,-0.12 0.48,-0.13 0.1,-0.22 0.24,-0.39 0.39,-0.58l0.05 -0.07 0.01 -0.01 0.01 0 0.54 0 0.04 0 -0.02 0.04 -0.32 0.53 0.4 0.2c0.04,-0.11 0.07,-0.2 0.11,-0.3zm-2.31 -0.39c-0.01,0 -0.01,0 -0.01,0l0.01 0c0.02,0 0.04,0 0.04,0 0,0 0,0 0,0 0,0 0,0 0,0 -0.02,0 -0.04,-0.01 -0.04,0zm-0.05 0.01c0,-0.01 0,-0.03 0.02,-0.04 0,-0.01 0.04,-0.01 0.07,-0.01 0.01,0 0.02,0 0.03,0.01 0.01,0 0.01,0.01 0.02,0.02 0,0.01 -0.01,0.03 -0.02,0.04l0 0c-0.01,0.01 -0.05,0.02 -0.08,0.01 -0.01,0 -0.02,0 -0.02,-0.01 -0.01,0 -0.02,-0.01 -0.02,-0.02zm-12.13 0.62c-0.21,0.19 -0.47,0.5 -0.64,0.81 -0.1,0.19 -0.16,0.37 -0.16,0.54 0,0.17 0.06,0.32 0.21,0.43 0.09,0.06 0.21,0.11 0.36,0.15 0.03,-0.09 0.06,-0.19 0.1,-0.29 0.19,-0.53 0.41,-1.17 0.13,-1.64zm-0.68 0.79c0.18,-0.32 0.46,-0.64 0.67,-0.83l0.02 -0.02 0.01 0.02c0.32,0.49 0.08,1.15 -0.11,1.7 -0.04,0.1 -0.08,0.2 -0.11,0.3l0 0.02 -0.02 -0.01c-0.17,-0.04 -0.3,-0.09 -0.39,-0.16 -0.17,-0.12 -0.23,-0.28 -0.23,-0.46 0,-0.17 0.06,-0.37 0.16,-0.56zm1.77 0.62l-0.06 -0.08 0.03 -0.02 0.06 0.08 -0.03 0.02z"/>
   <path class="fil2" d="M19.43 38.62c-0.07,-0.26 -0.19,-0.47 -0.33,-0.66 -0.09,0.27 -0.08,0.53 0,0.77l0.22 0 0.11 -0.11z"/>
   <path class="fil4" d="M19.4 38.61c-0.03,-0.12 -0.07,-0.23 -0.12,-0.34 -0.05,-0.09 -0.11,-0.18 -0.18,-0.27 -0.03,0.12 -0.05,0.24 -0.05,0.36 0,0.12 0.02,0.23 0.06,0.35l0.2 0 0.09 -0.1zm-0.09 -0.36c0.06,0.11 0.1,0.23 0.14,0.36l0 0.01 -0.01 0.01 -0.11 0.11 -0.01 0.01 0 0 -0.22 0 -0.02 0 0 -0.02c-0.04,-0.12 -0.07,-0.24 -0.07,-0.37 0,-0.13 0.02,-0.27 0.07,-0.41l0.01 -0.03 0.02 0.03c0.08,0.09 0.14,0.19 0.2,0.3z"/>
   <path class="fil1" d="M10.03 46.29c-0.27,-0.15 -0.49,-0.37 -0.68,-0.62 6.72,-3.51 13.98,-9.94 20.28,-16.74l0.49 0.48c-6.01,6.22 -12.66,12.33 -20.09,16.88z"/>
   <path class="fil1" d="M5.73 29.22c0.12,-0.29 0.3,-0.54 0.52,-0.77 4.47,6.12 12.56,12.81 20.22,18.02l-0.6 0.43c-7.04,-5.02 -14.54,-11 -20.14,-17.68z"/>
   <path class="fil1" d="M14.25 23.65c-0.87,0.18 -1.73,0.49 -2.53,1.17 -0.57,7.69 -0.55,15.27 -0.02,22.78 0.66,0.38 1.39,0.74 2.01,0.8 -0.55,-8.15 -0.38,-16.42 0.54,-24.75z"/>
   <path class="fil10" d="M21.01 12.27c-0.12,-0.03 -0.17,0.01 -0.16,0.1l0.9 3.3 0.69 0.11 0.82 0.16 0.25 0.7 1.14 -0.38 1.75 0.43c0.08,0 0.12,-0.08 0.11,-0.26l-0.51 -3.61 -1.97 -0.24 -0.07 -0.08 -1.17 0.34 -0.13 0.01 -0.17 -0.4 -1.48 -0.18z"/>
   <polygon class="fil11" points="24,12.63 22.9,12.93 23.68,16.58 24.65,16.26 "/>
   <path class="fil1" d="M23.22 13.37l0.65 -0.16c0.07,-0.01 0.13,0.03 0.15,0.09l0.06 0.3c0.01,0.03 -0.01,0.06 -0.04,0.07l-0.8 0.18c-0.01,0 -0.03,-0.01 -0.03,-0.02l-0.08 -0.32c-0.01,-0.07 0.03,-0.13 0.09,-0.14z"/>
   <path class="fil1" d="M23.35 14.05l0.66 -0.15c0.06,-0.02 0.12,0.02 0.14,0.08l0.07 0.3c0,0.03 -0.02,0.06 -0.05,0.07l-0.8 0.18c-0.01,0.01 -0.03,0 -0.03,-0.02l-0.07 -0.32c-0.02,-0.06 0.02,-0.13 0.08,-0.14z"/>
   <path class="fil1" d="M23.46 14.51l0.65 -0.15c0.06,-0.01 0.13,0.03 0.14,0.09l0.07 0.29c0.01,0.04 -0.01,0.07 -0.04,0.07l-0.8 0.19c-0.02,0 -0.03,-0.01 -0.04,-0.02l-0.07 -0.33c-0.02,-0.06 0.02,-0.12 0.09,-0.14z"/>
   <path class="fil1" d="M23.55 14.98l0.66 -0.15c0.06,-0.02 0.12,0.02 0.14,0.08l0.07 0.3c0,0.03 -0.02,0.06 -0.05,0.07l-0.8 0.18c-0.01,0.01 -0.03,0 -0.03,-0.02l-0.08 -0.32c-0.01,-0.07 0.03,-0.13 0.09,-0.14z"/>
   <path class="fil1" d="M23.65 15.57l0.65 -0.15c0.07,-0.01 0.13,0.03 0.14,0.09l0.07 0.29c0.01,0.04 -0.01,0.07 -0.04,0.08l-0.8 0.18c-0.02,0 -0.03,-0.01 -0.04,-0.02l-0.07 -0.32c-0.01,-0.07 0.03,-0.13 0.09,-0.15z"/>
   <path class="fil1" d="M23.77 16.05l0.56 -0.13c0.05,-0.01 0.18,-0.01 0.2,0.04l0.05 0.25c0.01,0.03 -0.01,0.06 -0.03,0.06l-0.76 0.19c-0.01,0 -0.03,-0.01 -0.03,-0.02l-0.06 -0.27c-0.02,-0.06 0.02,-0.11 0.07,-0.12z"/>
   <path class="fil1" d="M23.31 12.95c0.04,0 0.09,0.06 0.1,0.14 0.02,0.09 -0.01,0.16 -0.05,0.17 -0.05,0 -0.09,-0.06 -0.11,-0.14 -0.01,-0.09 0.02,-0.16 0.06,-0.17z"/>
   <polygon class="fil1" points="24.09,13.14 24,12.63 24.99,12.8 25.07,13.27 "/>
   <polygon class="fil1" points="24.19,13.67 24.1,13.15 25.07,13.27 25.15,13.77 "/>
   <polygon class="fil1" points="24.32,14.35 24.24,13.86 25.16,13.98 25.23,14.45 "/>
   <polygon class="fil1" points="24.39,14.85 24.31,14.36 25.23,14.48 25.3,14.96 "/>
   <polygon class="fil1" points="24.49,15.25 24.39,14.88 25.3,14.99 25.36,15.35 "/>
   <polygon class="fil1" points="24.57,15.83 24.5,15.45 25.38,15.62 25.46,16 "/>
   <polygon class="fil1" points="24.65,16.23 24.58,15.84 25.46,16.01 25.53,16.4 "/>
   <polygon class="fil1" points="25.12,13.27 25.07,12.81 25.97,12.92 26.05,13.38 "/>
   <polygon class="fil1" points="25.2,13.77 25.14,13.31 26.05,13.43 26.12,13.89 "/>
   <polygon class="fil1" points="25.29,14.45 25.23,14 26.14,14.15 26.21,14.61 "/>
   <polygon class="fil1" points="25.37,14.92 25.29,14.52 26.21,14.67 26.27,15.07 "/>
   <polygon class="fil1" points="25.43,15.37 25.36,14.97 26.27,15.11 26.33,15.52 "/>
   <polygon class="fil1" points="25.53,16.02 25.46,15.62 26.37,15.77 26.43,16.17 "/>
   <polygon class="fil1" points="25.61,16.43 25.56,16.08 26.39,16.23 26.44,16.57 "/>
   <path class="fil12" d="M23.81 12.02l0.17 0.32c0.04,0.06 -0.02,0.14 -0.08,0.15l-1.1 0.28c-0.07,0.02 -0.14,-0.02 -0.15,-0.08l-0.09 -0.37c-0.01,-0.03 0.01,-0.09 0.07,-0.11l0.89 -0.23c0.06,-0.02 0.26,-0.02 0.29,0.04z"/>
   <polygon class="fil13" points="22.81,12.19 22.73,12 22.77,11.98 22.85,12.18 "/>
   <polygon class="fil13" points="23.93,12.33 24.51,12.2 24.52,12.24 23.94,12.37 "/>
   <polygon class="fil0" points="22.83,12.83 23.63,16.6 23.55,16.62 22.75,12.85 "/>
   <polygon class="fil0" points="22.83,12.83 23.95,12.56 23.96,12.6 22.83,12.89 "/>
   <path class="fil1" d="M24.75 13.79c0.03,0.01 0.05,0.05 0.04,0.07 -0.02,0.03 -0.05,0.04 -0.08,0.03 -0.03,-0.02 -0.04,-0.05 -0.03,-0.08 0.01,-0.02 0.04,-0.03 0.07,-0.02z"/>
   <path class="fil1" d="M24.97 15.37c0.04,0.02 0.06,0.07 0.05,0.1 -0.02,0.04 -0.07,0.06 -0.11,0.04 -0.04,-0.02 -0.07,-0.07 -0.05,-0.11 0.02,-0.03 0.07,-0.05 0.11,-0.03z"/>
   <path class="fil1" d="M23.71 13.8c0.05,0.02 0.07,0.07 0.05,0.11 -0.02,0.04 -0.07,0.05 -0.11,0.03 -0.05,-0.02 -0.07,-0.07 -0.05,-0.11 0.01,-0.03 0.07,-0.05 0.11,-0.03z"/>
   <path class="fil1" d="M22.35 13.43c0.04,0.02 0.06,0.06 0.04,0.09 -0.01,0.03 -0.06,0.05 -0.1,0.03 -0.04,-0.02 -0.05,-0.06 -0.04,-0.09 0.02,-0.03 0.06,-0.05 0.1,-0.03z"/>
   <path class="fil1" d="M21.06 12.42l0.47 0.02c0.03,0.01 0.09,0.03 0.09,0.06l0.06 0.28 -0.61 -0.01 -0.08 -0.24c-0.01,-0.05 0.02,-0.11 0.07,-0.11z"/>
   <path class="fil1" d="M21.13 12.82l0.53 0.01c0.03,0 0.09,0.07 0.1,0.1l0.06 0.31 -0.63 -0.04 -0.08 -0.25c-0.01,-0.04 -0.03,-0.14 0.02,-0.13z"/>
   <path class="fil1" d="M21.89 12.52l0.46 0.02c0.04,0 0.1,0.02 0.1,0.06l0.07 0.3 -0.63 -0.04 -0.07 -0.24c-0.02,-0.05 0.02,-0.1 0.07,-0.1z"/>
   <path class="fil1" d="M21.96 12.91l0.53 0.03c0.03,0 0.06,0.08 0.06,0.12l0.07 0.32 -0.66 -0.04 -0.08 -0.26c-0.01,-0.05 0.02,-0.17 0.08,-0.17z"/>
   <path class="fil1" d="M21.37 13.5l0.48 0.02c0.03,0 0.09,0.03 0.1,0.06l0.06 0.31 -0.63 -0.04 -0.08 -0.25c-0.01,-0.04 0.02,-0.1 0.07,-0.1z"/>
   <path class="fil1" d="M21.46 13.88l0.48 0.05c0.04,0 0.1,0.02 0.1,0.05l0.07 0.31 -0.63 -0.04 -0.08 -0.24c-0.02,-0.05 0.01,-0.13 0.06,-0.13z"/>
   <path class="fil1" d="M21.57 14.3l0.48 0.02c0.03,0 0.09,0.05 0.09,0.08l0.07 0.31 -0.63 -0.04 -0.08 -0.25c-0.01,-0.04 0.02,-0.12 0.07,-0.12z"/>
   <path class="fil1" d="M22.14 13.56l0.48 0.03c0.03,0 0.09,0.02 0.1,0.05l0.06 0.31 -0.63 -0.04 -0.08 -0.24c-0.01,-0.05 0.02,-0.11 0.07,-0.11z"/>
   <path class="fil1" d="M22.21 13.96l0.48 0.02c0.03,0.01 0.08,0.05 0.09,0.08l0.06 0.31 -0.63 -0.04 -0.07 -0.25c-0.02,-0.04 0.02,-0.12 0.07,-0.12z"/>
   <path class="fil1" d="M22.32 14.38l0.48 0.03c0.04,0 0.1,0.06 0.1,0.09l0.07 0.31 -0.64 -0.04 -0.07 -0.25c-0.02,-0.04 0.01,-0.14 0.06,-0.14z"/>
   <path class="fil1" d="M22.48 15.02l0.48 0.02c0.03,0 0.09,0.03 0.1,0.06l0.06 0.31 -0.63 -0.04 -0.08 -0.25c-0.01,-0.04 0.02,-0.1 0.07,-0.1z"/>
   <path class="fil1" d="M21.72 14.88l0.47 0.03c0.03,0 0.1,0.02 0.1,0.05l0.07 0.31 -0.64 -0.04 -0.07 -0.24c-0.02,-0.05 0.02,-0.11 0.07,-0.11z"/>
   <path class="fil1" d="M21.82 15.28l0.48 0.01c0.03,0 0.08,0.03 0.09,0.07l0.06 0.31 -0.63 -0.04 -0.07 -0.25c-0.02,-0.05 0.02,-0.1 0.07,-0.1z"/>
   <path class="fil1" d="M22.56 15.42l0.47 0.02c0.03,0 0.09,0.02 0.1,0.06l0.06 0.31 -0.63 -0.04 -0.07 -0.25c-0.02,-0.05 0.02,-0.11 0.07,-0.1z"/>
   <polygon class="fil0" points="25.19,13.9 25.4,15.35 25.38,15.36 25.17,13.9 "/>
   <polygon class="fil13" points="23.78,12.76 23.62,12.47 23.65,12.45 23.82,12.74 "/>
   <path class="fil10" d="M33.76 21.26c-0.04,-0.12 -0.1,-0.14 -0.18,-0.08l-2.21 2.74 0.33 0.63 0.35 0.78 -0.43 0.63 0.99 0.72 0.7 1.72c0.04,0.07 0.13,0.05 0.28,-0.06l2.71 -2.59 -0.98 -1.79 0.02 -0.1 -0.99 -0.77 -0.08 -0.11 0.23 -0.38 -0.74 -1.34z"/>
   <polygon class="fil11" points="35.26,23.97 34.35,23.23 31.77,26.07 32.61,26.68 "/>
   <path class="fil1" d="M34.18 23.76l0.51 0.45c0.05,0.05 0.06,0.13 0.01,0.18l-0.2 0.23c-0.02,0.02 -0.06,0.02 -0.09,0l-0.63 -0.55c-0.01,-0.01 -0.01,-0.03 0,-0.05l0.22 -0.25c0.05,-0.05 0.13,-0.05 0.18,-0.01z"/>
   <path class="fil1" d="M33.69 24.28l0.51 0.45c0.05,0.05 0.06,0.13 0.01,0.18l-0.2 0.23c-0.02,0.02 -0.06,0.02 -0.08,0l-0.64 -0.55c-0.01,-0.01 -0.01,-0.03 0,-0.05l0.23 -0.25c0.04,-0.05 0.12,-0.06 0.17,-0.01z"/>
   <path class="fil1" d="M33.36 24.64l0.52 0.46c0.05,0.04 0.05,0.12 0.01,0.17l-0.21 0.23c-0.02,0.03 -0.06,0.03 -0.08,0.01l-0.63 -0.56c-0.01,-0.01 -0.02,-0.03 -0.01,-0.04l0.23 -0.25c0.04,-0.06 0.12,-0.06 0.17,-0.02z"/>
   <path class="fil1" d="M33.03 25l0.52 0.46c0.05,0.04 0.05,0.12 0.01,0.17l-0.21 0.23c-0.02,0.02 -0.06,0.03 -0.08,0l-0.63 -0.55c-0.01,-0.01 -0.02,-0.03 0,-0.04l0.22 -0.26c0.04,-0.05 0.12,-0.05 0.17,-0.01z"/>
   <path class="fil1" d="M32.59 25.44l0.52 0.45c0.05,0.05 0.05,0.13 0.01,0.18l-0.21 0.23c-0.02,0.02 -0.06,0.02 -0.08,0l-0.63 -0.55c-0.02,-0.01 -0.02,-0.03 -0.01,-0.05l0.23 -0.25c0.04,-0.05 0.12,-0.06 0.17,-0.01z"/>
   <path class="fil1" d="M32.27 25.82l0.44 0.39c0.04,0.04 0.12,0.15 0.08,0.19l-0.17 0.2c-0.02,0.02 -0.06,0.03 -0.08,0.01l-0.61 -0.52c-0.01,-0.01 -0.01,-0.03 0,-0.04l0.19 -0.22c0.04,-0.04 0.11,-0.04 0.15,-0.01z"/>
   <path class="fil1" d="M34.58 23.59c0.03,0.03 0,0.11 -0.06,0.17 -0.06,0.06 -0.14,0.08 -0.17,0.05 -0.03,-0.04 -0.01,-0.11 0.05,-0.17 0.07,-0.06 0.14,-0.09 0.18,-0.05z"/>
   <polygon class="fil1" points="34.88,24.36 35.26,23.97 35.7,24.9 35.37,25.25 "/>
   <polygon class="fil1" points="34.51,24.75 34.88,24.36 35.37,25.25 34.99,25.62 "/>
   <polygon class="fil1" points="34.01,25.27 34.37,24.9 34.83,25.74 34.47,26.09 "/>
   <polygon class="fil1" points="33.64,25.63 33.99,25.26 34.45,26.1 34.1,26.45 "/>
   <polygon class="fil1" points="33.36,25.95 33.61,25.64 34.07,26.47 33.8,26.73 "/>
   <polygon class="fil1" points="32.93,26.36 33.21,26.07 33.59,26.91 33.31,27.2 "/>
   <polygon class="fil1" points="32.64,26.66 32.92,26.37 33.31,27.21 33.03,27.5 "/>
   <polygon class="fil1" points="35.4,25.29 35.74,24.97 36.19,25.79 35.85,26.13 "/>
   <polygon class="fil1" points="35.02,25.65 35.37,25.33 35.82,26.15 35.48,26.49 "/>
   <polygon class="fil1" points="34.51,26.13 34.85,25.82 35.27,26.66 34.93,27 "/>
   <polygon class="fil1" points="34.16,26.49 34.45,26.18 34.87,27.03 34.58,27.32 "/>
   <polygon class="fil1" points="33.83,26.8 34.12,26.5 34.54,27.35 34.24,27.64 "/>
   <polygon class="fil1" points="33.34,27.28 33.63,26.97 34.05,27.82 33.76,28.12 "/>
   <polygon class="fil1" points="33.05,27.59 33.31,27.33 33.68,28.11 33.43,28.37 "/>
   <path class="fil12" d="M35.65 23.44l-0.16 0.34c-0.03,0.07 -0.13,0.07 -0.18,0.02l-0.89 -0.75c-0.05,-0.04 -0.06,-0.12 -0.02,-0.18l0.25 -0.29c0.02,-0.02 0.08,-0.05 0.14,0l0.72 0.6c0.06,0.04 0.17,0.2 0.14,0.26z"/>
   <polygon class="fil13" points="34.91,22.71 35.03,22.53 35.06,22.56 34.94,22.74 "/>
   <polygon class="fil13" points="35.47,23.74 35.92,24.14 35.89,24.17 35.44,23.77 "/>
   <polygon class="fil0" points="34.39,23.11 31.72,26.04 31.66,25.98 34.32,23.06 "/>
   <polygon class="fil0" points="34.39,23.11 35.28,23.88 35.25,23.92 34.34,23.15 "/>
   <path class="fil1" d="M34.74 25.29c0.01,0.04 -0.01,0.07 -0.04,0.07 -0.03,0.01 -0.06,-0.01 -0.07,-0.04 0,-0.04 0.01,-0.07 0.04,-0.07 0.03,-0.01 0.06,0.01 0.07,0.04z"/>
   <path class="fil1" d="M33.55 26.42c0.01,0.05 -0.02,0.09 -0.06,0.1 -0.04,0.01 -0.08,-0.02 -0.09,-0.07 -0.01,-0.05 0.02,-0.09 0.06,-0.1 0.04,-0.01 0.08,0.02 0.09,0.07z"/>
   <path class="fil1" d="M34.11 24.43c0.01,0.05 -0.02,0.1 -0.06,0.1 -0.05,0.01 -0.09,-0.02 -0.1,-0.07 -0.01,-0.05 0.02,-0.1 0.06,-0.11 0.04,0 0.09,0.03 0.1,0.08z"/>
   <path class="fil1" d="M33.6 23.07c0.01,0.04 -0.01,0.08 -0.05,0.09 -0.04,0.01 -0.08,-0.02 -0.08,-0.06 -0.01,-0.04 0.01,-0.09 0.05,-0.09 0.04,-0.01 0.07,0.02 0.08,0.06z"/>
   <path class="fil1" d="M33.67 21.39l0.26 0.4c0.02,0.03 0.03,0.1 0.01,0.12l-0.19 0.21 -0.36 -0.52 0.15 -0.2c0.03,-0.04 0.1,-0.05 0.13,-0.01z"/>
   <path class="fil1" d="M33.38 21.69l0.31 0.45c0.02,0.02 0,0.11 -0.03,0.14l-0.22 0.24 -0.34 -0.55 0.16 -0.22c0.03,-0.04 0.1,-0.11 0.12,-0.06z"/>
   <path class="fil1" d="M34.09 22.14l0.26 0.4c0.02,0.03 0.03,0.09 0.01,0.12l-0.22 0.23 -0.34 -0.54 0.16 -0.21c0.03,-0.04 0.1,-0.04 0.13,0z"/>
   <path class="fil1" d="M33.8 22.43l0.29 0.47c0.02,0.03 -0.03,0.09 -0.05,0.12l-0.23 0.25 -0.36 -0.58 0.16 -0.21c0.03,-0.05 0.16,-0.09 0.19,-0.05z"/>
   <path class="fil1" d="M32.96 22.3l0.26 0.41c0.02,0.02 0.04,0.09 0.02,0.11l-0.23 0.24 -0.34 -0.55 0.16 -0.21c0.03,-0.04 0.1,-0.04 0.13,0z"/>
   <path class="fil1" d="M32.69 22.6l0.25 0.43c0.02,0.03 0.04,0.09 0.02,0.12l-0.23 0.24 -0.34 -0.55 0.16 -0.22c0.03,-0.04 0.11,-0.06 0.14,-0.02z"/>
   <path class="fil1" d="M32.41 22.94l0.27 0.41c0.02,0.03 0.01,0.1 -0.01,0.13l-0.22 0.24 -0.34 -0.55 0.15 -0.21c0.03,-0.04 0.12,-0.06 0.15,-0.02z"/>
   <path class="fil1" d="M33.37 22.98l0.26 0.41c0.02,0.03 0.04,0.09 0.01,0.11l-0.22 0.24 -0.34 -0.55 0.16 -0.21c0.03,-0.04 0.1,-0.04 0.13,0z"/>
   <path class="fil1" d="M33.07 23.27l0.27 0.42c0.02,0.03 0.02,0.09 -0.01,0.12l-0.22 0.24 -0.34 -0.55 0.16 -0.22c0.03,-0.04 0.11,-0.05 0.14,-0.01z"/>
   <path class="fil1" d="M32.79 23.62l0.27 0.42c0.01,0.03 0,0.11 -0.02,0.13l-0.22 0.24 -0.35 -0.55 0.16 -0.21c0.03,-0.04 0.13,-0.08 0.16,-0.03z"/>
   <path class="fil1" d="M32.36 24.13l0.26 0.41c0.02,0.03 0.03,0.09 0.01,0.12l-0.22 0.24 -0.34 -0.55 0.16 -0.21c0.03,-0.04 0.1,-0.05 0.13,-0.01z"/>
   <path class="fil1" d="M32.01 23.42l0.27 0.4c0.01,0.03 0.03,0.1 0.01,0.12l-0.22 0.24 -0.35 -0.55 0.16 -0.21c0.03,-0.04 0.1,-0.05 0.13,0z"/>
   <path class="fil1" d="M31.74 23.73l0.28 0.41c0.02,0.03 0.02,0.09 0,0.12l-0.22 0.24 -0.35 -0.55 0.16 -0.21c0.03,-0.04 0.1,-0.05 0.13,-0.01z"/>
   <path class="fil1" d="M32.07 24.44l0.26 0.4c0.02,0.03 0.04,0.1 0.01,0.12l-0.22 0.24 -0.34 -0.55 0.16 -0.21c0.03,-0.04 0.1,-0.05 0.13,0z"/>
   <polygon class="fil0" points="34.91,25.72 33.82,26.77 33.81,26.76 34.9,25.71 "/>
   <polygon class="fil13" points="35.02,23.87 35.16,23.56 35.2,23.58 35.05,23.88 "/>
   <path class="fil10" d="M26.68 49.3c-0.11,0.07 -0.12,0.13 -0.05,0.19l3.04 1.77 0.58 -0.42 0.72 -0.46 0.69 0.32 0.56 -1.09 1.59 -0.95c0.06,-0.05 0.03,-0.14 -0.1,-0.27l-2.97 -2.28 -1.63 1.24 -0.1 0 -0.61 1.09 -0.09 0.1 -0.41 -0.18 -1.22 0.94z"/>
   <polygon class="fil11" points="29.13,47.41 28.54,48.42 31.74,50.54 32.22,49.61 "/>
   <path class="fil1" d="M29.09 48.51l0.37 -0.58c0.04,-0.06 0.11,-0.07 0.17,-0.04l0.26 0.17c0.03,0.02 0.03,0.06 0.02,0.08l-0.46 0.71c0,0.02 -0.02,0.02 -0.04,0.01l-0.28 -0.18c-0.06,-0.04 -0.08,-0.11 -0.04,-0.17z"/>
   <path class="fil1" d="M29.68 48.91l0.37 -0.58c0.04,-0.05 0.11,-0.07 0.17,-0.03l0.26 0.16c0.02,0.02 0.03,0.06 0.01,0.09l-0.45 0.71c-0.01,0.01 -0.03,0.01 -0.04,0l-0.28 -0.18c-0.06,-0.03 -0.08,-0.11 -0.04,-0.17z"/>
   <path class="fil1" d="M30.09 49.18l0.37 -0.58c0.04,-0.05 0.11,-0.07 0.17,-0.03l0.26 0.16c0.03,0.02 0.03,0.06 0.02,0.08l-0.46 0.71c-0.01,0.02 -0.02,0.02 -0.04,0.01l-0.28 -0.18c-0.06,-0.04 -0.08,-0.11 -0.04,-0.17z"/>
   <path class="fil1" d="M30.49 49.45l0.37 -0.58c0.04,-0.05 0.12,-0.07 0.17,-0.03l0.26 0.16c0.03,0.02 0.04,0.06 0.02,0.09l-0.45 0.7c-0.01,0.02 -0.03,0.02 -0.04,0.01l-0.29 -0.18c-0.06,-0.04 -0.07,-0.11 -0.04,-0.17z"/>
   <path class="fil1" d="M30.99 49.82l0.37 -0.58c0.04,-0.05 0.11,-0.07 0.17,-0.03l0.26 0.16c0.03,0.02 0.04,0.06 0.02,0.09l-0.45 0.7c-0.01,0.02 -0.03,0.02 -0.05,0.01l-0.28 -0.18c-0.06,-0.04 -0.07,-0.11 -0.04,-0.17z"/>
   <path class="fil1" d="M31.42 50.08l0.32 -0.49c0.03,-0.05 0.13,-0.14 0.18,-0.11l0.22 0.14c0.02,0.01 0.03,0.04 0.01,0.07l-0.42 0.68c0,0.01 -0.02,0.02 -0.03,0.01l-0.25 -0.16c-0.04,-0.03 -0.06,-0.09 -0.03,-0.14z"/>
   <path class="fil1" d="M28.86 48.14c0.03,-0.03 0.11,-0.02 0.17,0.03 0.07,0.05 0.11,0.13 0.08,0.16 -0.03,0.04 -0.11,0.03 -0.18,-0.03 -0.06,-0.05 -0.1,-0.12 -0.07,-0.16z"/>
   <polygon class="fil1" points="29.57,47.72 29.13,47.41 29.98,46.83 30.38,47.11 "/>
   <polygon class="fil1" points="30.02,48.03 29.58,47.72 30.38,47.11 30.8,47.42 "/>
   <polygon class="fil1" points="30.61,48.44 30.19,48.14 30.95,47.56 31.35,47.86 "/>
   <polygon class="fil1" points="31.02,48.76 30.6,48.46 31.36,47.88 31.76,48.18 "/>
   <polygon class="fil1" points="31.38,48.98 31.04,48.79 31.79,48.2 32.08,48.43 "/>
   <polygon class="fil1" points="31.85,49.35 31.53,49.12 32.3,48.61 32.63,48.84 "/>
   <polygon class="fil1" points="32.19,49.58 31.87,49.35 32.64,48.84 32.97,49.07 "/>
   <polygon class="fil1" points="30.42,47.07 30.04,46.78 30.79,46.21 31.17,46.49 "/>
   <polygon class="fil1" points="30.83,47.39 30.46,47.09 31.21,46.52 31.59,46.81 "/>
   <polygon class="fil1" points="31.39,47.82 31.02,47.53 31.79,46.98 32.18,47.27 "/>
   <polygon class="fil1" points="31.79,48.11 31.44,47.87 32.22,47.32 32.55,47.57 "/>
   <polygon class="fil1" points="32.15,48.39 31.81,48.15 32.58,47.6 32.92,47.85 "/>
   <polygon class="fil1" points="32.7,48.79 32.35,48.56 33.13,48.01 33.46,48.26 "/>
   <polygon class="fil1 str0" points="33.04,49.04 32.75,48.82 33.47,48.33 33.76,48.54 "/>
   <path class="fil12" d="M28.55 47.1l0.36 0.11c0.07,0.02 0.09,0.11 0.05,0.17l-0.61 1c-0.03,0.06 -0.11,0.08 -0.17,0.05l-0.33 -0.21c-0.03,-0.02 -0.06,-0.07 -0.02,-0.13l0.48 -0.81c0.04,-0.06 0.17,-0.2 0.24,-0.18z"/>
   <polygon class="fil13" points="27.94,47.95 27.75,47.86 27.77,47.82 27.96,47.91 "/>
   <polygon class="fil13" points="28.87,47.24 29.2,46.73 29.24,46.75 28.91,47.26 "/>
   <polygon class="fil0" points="28.42,48.4 31.72,50.59 31.67,50.66 28.37,48.47 "/>
   <polygon class="fil0" points="28.42,48.4 29.04,47.4 29.08,47.42 28.46,48.44 "/>
   <path class="fil1" d="M30.52 47.72c0.03,-0.01 0.06,0 0.07,0.03 0.02,0.03 0,0.06 -0.03,0.07 -0.03,0.01 -0.07,0 -0.08,-0.03 -0.01,-0.03 0.01,-0.06 0.04,-0.07z"/>
   <path class="fil1" d="M31.81 48.72c0.05,-0.01 0.1,0.01 0.11,0.05 0.02,0.03 -0.01,0.08 -0.05,0.1 -0.05,0.01 -0.1,0 -0.11,-0.04 -0.01,-0.04 0.01,-0.09 0.05,-0.11z"/>
   <path class="fil1" d="M29.76 48.48c0.05,-0.02 0.1,0 0.12,0.04 0.01,0.04 -0.01,0.09 -0.06,0.11 -0.05,0.02 -0.1,0 -0.12,-0.05 -0.01,-0.04 0.01,-0.09 0.06,-0.1z"/>
   <path class="fil1" d="M28.5 49.19c0.04,-0.02 0.08,0 0.09,0.03 0.02,0.04 -0.01,0.08 -0.05,0.09 -0.04,0.02 -0.08,0 -0.09,-0.03 -0.02,-0.04 0.01,-0.08 0.05,-0.09z"/>
   <path class="fil1" d="M26.83 49.37l0.36 -0.31c0.02,-0.03 0.08,-0.05 0.11,-0.03l0.24 0.16 -0.46 0.43 -0.23 -0.12c-0.04,-0.02 -0.06,-0.09 -0.02,-0.13z"/>
   <path class="fil1" d="M27.16 49.61l0.4 -0.37c0.03,-0.02 0.11,-0.01 0.14,0.01l0.27 0.18 -0.49 0.42 -0.23 -0.12c-0.05,-0.03 -0.12,-0.08 -0.09,-0.12z"/>
   <path class="fil1" d="M27.51 48.85l0.35 -0.32c0.03,-0.02 0.09,-0.05 0.11,-0.03l0.27 0.18 -0.48 0.42 -0.23 -0.13c-0.05,-0.02 -0.06,-0.09 -0.02,-0.12z"/>
   <path class="fil1" d="M27.84 49.09l0.41 -0.36c0.03,-0.03 0.1,0.01 0.13,0.03l0.28 0.19 -0.51 0.44 -0.24 -0.13c-0.05,-0.02 -0.11,-0.14 -0.07,-0.17z"/>
   <path class="fil1" d="M27.83 49.94l0.36 -0.33c0.03,-0.02 0.09,-0.05 0.12,-0.03l0.27 0.19 -0.49 0.42 -0.23 -0.12c-0.05,-0.03 -0.06,-0.1 -0.03,-0.13z"/>
   <path class="fil1" d="M28.17 50.16l0.39 -0.32c0.02,-0.02 0.08,-0.05 0.11,-0.03l0.27 0.18 -0.49 0.43 -0.23 -0.13c-0.05,-0.02 -0.09,-0.1 -0.05,-0.13z"/>
   <path class="fil1" d="M28.55 50.38l0.37 -0.33c0.02,-0.02 0.1,-0.03 0.12,-0.01l0.27 0.18 -0.49 0.43 -0.23 -0.13c-0.04,-0.02 -0.08,-0.1 -0.04,-0.14z"/>
   <path class="fil1" d="M28.44 49.43l0.37 -0.32c0.02,-0.02 0.08,-0.05 0.11,-0.03l0.27 0.18 -0.49 0.42 -0.23 -0.12c-0.05,-0.02 -0.06,-0.1 -0.03,-0.13z"/>
   <path class="fil1" d="M28.78 49.68l0.37 -0.33c0.02,-0.03 0.09,-0.03 0.11,-0.01l0.28 0.18 -0.5 0.42 -0.23 -0.12c-0.04,-0.03 -0.07,-0.11 -0.03,-0.14z"/>
   <path class="fil1" d="M29.16 49.91l0.38 -0.33c0.02,-0.03 0.1,-0.03 0.13,-0.01l0.27 0.18 -0.49 0.43 -0.23 -0.13c-0.05,-0.02 -0.1,-0.11 -0.06,-0.14z"/>
   <path class="fil1" d="M29.74 50.25l0.36 -0.32c0.03,-0.02 0.09,-0.05 0.12,-0.03l0.27 0.18 -0.5 0.43 -0.23 -0.13c-0.04,-0.02 -0.06,-0.09 -0.02,-0.13z"/>
   <path class="fil1" d="M29.08 50.7l0.36 -0.32c0.03,-0.02 0.09,-0.05 0.12,-0.03l0.27 0.18 -0.49 0.43 -0.23 -0.13c-0.05,-0.02 -0.07,-0.09 -0.03,-0.13z"/>
   <path class="fil1" d="M29.44 50.92l0.35 -0.34c0.03,-0.02 0.1,-0.03 0.12,-0.01l0.27 0.18 -0.49 0.42 -0.23 -0.12c-0.04,-0.02 -0.06,-0.09 -0.02,-0.13z"/>
   <path class="fil1" d="M30.08 50.49l0.36 -0.32c0.03,-0.02 0.09,-0.05 0.12,-0.03l0.27 0.18 -0.49 0.42 -0.24 -0.12c-0.04,-0.02 -0.06,-0.09 -0.02,-0.13z"/>
   <polygon class="fil0" points="30.91,47.48 32.12,48.4 32.11,48.41 30.91,47.5 "/>
   <polygon class="fil13" points="29.07,47.67 28.74,47.57 28.75,47.53 29.08,47.62 "/>
  </g>
 </g>
</svg>
