<?xml version="1.0" encoding="UTF-8"?><svg id="Layer_2" xmlns="http://www.w3.org/2000/svg" xmlns:xlink="http://www.w3.org/1999/xlink" viewBox="0 0 390.97 273.31"><defs><style>.cls-1{fill:url(#GradientFill_13);}.cls-1,.cls-2,.cls-3,.cls-4,.cls-5,.cls-6,.cls-7,.cls-8,.cls-9,.cls-10,.cls-11,.cls-12,.cls-13,.cls-14,.cls-15,.cls-16,.cls-17,.cls-18,.cls-19{fill-rule:evenodd;}.cls-2{fill:#ea1f27;}.cls-3{fill:#e35725;}.cls-4{fill:url(#GradientFill_23);}.cls-5{fill:url(#GradientFill_20);}.cls-6{fill:#eedc21;}.cls-7{fill:#38b1b7;}.cls-20{letter-spacing:.5em;}.cls-8{fill:#b8cc34;}.cls-21{letter-spacing:.52em;}.cls-9{fill:url(#GradientFill_24);}.cls-22{letter-spacing:.52em;}.cls-10{fill:#df2b2a;}.cls-11{fill:url(#GradientFill_25);}.cls-12{fill:#0fa54a;}.cls-23{letter-spacing:0em;}.cls-24{letter-spacing:.5em;}.cls-13{fill:#e98a23;}.cls-14{fill:url(#GradientFill_18);}.cls-15{fill:url(#GradientFill_21);}.cls-25{font-size:40.17px;}.cls-25,.cls-26{font-family:Montserrat-SemiBold, Montserrat;font-weight:600;}.cls-25,.cls-26,.cls-27{fill:#231f20;}.cls-16{fill:url(#GradientFill_22);}.cls-28{letter-spacing:.52em;}.cls-26{font-size:25.5px;}.cls-17{fill:url(#GradientFill_26);}.cls-18{fill:#c52f80;}.cls-19{fill:#1e8bc7;}</style><linearGradient id="GradientFill_26" x1="660.63" y1="435.46" x2="652.87" y2="456.58" gradientTransform="translate(-464.21 -373.93)" gradientUnits="userSpaceOnUse"><stop offset="0" stop-color="#944994"/><stop offset=".37" stop-color="#7e2674"/><stop offset="1" stop-color="#7e2674"/></linearGradient><linearGradient id="GradientFill_18" x1="628.21" y1="455.4" x2="647.05" y2="439.83" gradientTransform="translate(-464.21 -373.93)" gradientUnits="userSpaceOnUse"><stop offset="0" stop-color="#4b68a8"/><stop offset="1" stop-color="#432a71"/></linearGradient><linearGradient id="GradientFill_25" x1="611.36" y1="438.63" x2="643.2" y2="434.28" gradientTransform="translate(-464.21 -373.93)" gradientUnits="userSpaceOnUse"><stop offset="0" stop-color="#148b80"/><stop offset=".24" stop-color="#148b80"/><stop offset=".8" stop-color="#01625d"/><stop offset="1" stop-color="#01625d"/></linearGradient><linearGradient id="GradientFill_24" x1="619.19" y1="421.35" x2="631.28" y2="420.29" gradientTransform="translate(-464.21 -373.93)" gradientUnits="userSpaceOnUse"><stop offset="0" stop-color="#6eb444"/><stop offset=".46" stop-color="#02994a"/><stop offset=".88" stop-color="#086643"/><stop offset="1" stop-color="#086643"/></linearGradient><linearGradient id="GradientFill_23" x1="634.35" y1="419.4" x2="618.16" y2="389.42" gradientTransform="translate(-464.21 -373.93)" gradientUnits="userSpaceOnUse"><stop offset="0" stop-color="#689540"/><stop offset="1" stop-color="#a2b83a"/></linearGradient><linearGradient id="GradientFill_22" x1="639.31" y1="403.95" x2="646.59" y2="395.32" gradientTransform="translate(-464.21 -373.93)" gradientUnits="userSpaceOnUse"><stop offset="0" stop-color="#946026"/><stop offset="1" stop-color="#d99b28"/></linearGradient><linearGradient id="GradientFill_21" x1="654.86" y1="408.86" x2="689.04" y2="411.7" gradientTransform="translate(-464.21 -373.93)" gradientUnits="userSpaceOnUse"><stop offset="0" stop-color="#963721"/><stop offset=".54" stop-color="#963721"/><stop offset="1" stop-color="#ca6328"/></linearGradient><linearGradient id="GradientFill_20" x1="683.03" y1="445.11" x2="669.45" y2="426.12" gradientTransform="translate(-464.21 -373.93)" gradientUnits="userSpaceOnUse"><stop offset="0" stop-color="#b22229"/><stop offset=".59" stop-color="#971f26"/><stop offset="1" stop-color="#7e1325"/></linearGradient><linearGradient id="GradientFill_13" x1="643.29" y1="410" x2="670.68" y2="383.14" gradientTransform="translate(-464.21 -373.93)" gradientUnits="userSpaceOnUse"><stop offset="0" stop-color="#974523"/><stop offset=".52" stop-color="#d67228"/><stop offset="1" stop-color="#d67228"/></linearGradient></defs><g id="Layer_1-2"><g><text class="cls-25" transform="translate(4.35 222.27)"><tspan class="cls-20" x="0" y="0">A</tspan><tspan class="cls-21" x="50.41" y="0">er</tspan><tspan class="cls-28" x="132.89" y="0">o</tspan><tspan class="cls-21" x="179.16" y="0">sp</tspan><tspan class="cls-22" x="268.46" y="0">a</tspan><tspan class="cls-24" x="313.25" y="0">c</tspan><tspan class="cls-23" x="356.04" y="0">e</tspan></text><g><g><path class="cls-17" d="m198.32,92.93l-4.58-13.77c1.31-1.15,2.44-2.49,3.36-3.94.92-1.46,1.63-3.05,2.1-4.71.48-1.66.72-3.4.7-5.16-.02-1.76-.3-3.56-.87-5.33-.46-1.42-1.07-2.74-1.83-3.95-.76-1.21-1.65-2.3-2.65-3.27-1-.97-2.11-1.82-3.3-2.54-1.19-.72-2.46-1.3-3.78-1.73-.23-.08-.46-.15-.7-.21-.24-.07-.47-.13-.71-.19-.24-.05-.47-.11-.71-.16-.24-.05-.48-.09-.72-.13l.61.1c.35.06.69.12,1.03.19.34.07.68.15,1.03.23.34.08.68.17,1.01.27.34.1.67.2,1,.31,1.9.63,3.73,1.46,5.44,2.49,1.71,1.03,3.3,2.25,4.74,3.64,1.44,1.4,2.72,2.97,3.8,4.71,1.08,1.73,1.98,3.63,2.63,5.67.81,2.54,1.21,5.11,1.24,7.65.03,2.53-.32,5.03-1,7.42-.68,2.39-1.71,4.66-3.03,6.76-1.32,2.09-2.94,4.01-4.83,5.67Z"/><path class="cls-18" d="m198.17,47.89c1.74.57,3.41,1.34,4.97,2.29,1.56.94,3.01,2.07,4.32,3.35,1.31,1.28,2.47,2.73,3.46,4.33.99,1.59,1.8,3.33,2.4,5.2.99,3.1,1.31,6.25,1.05,9.3-.26,3.05-1.11,6-2.47,8.7-1.35,2.69-3.21,5.14-5.5,7.17-2.29,2.03-5,3.66-8.07,4.72,1.89-1.66,3.51-3.58,4.83-5.67,1.32-2.1,2.34-4.37,3.03-6.76.68-2.39,1.03-4.88,1-7.42-.03-2.54-.43-5.11-1.24-7.65-.65-2.04-1.54-3.93-2.63-5.67-1.08-1.74-2.37-3.31-3.8-4.71-1.44-1.4-3.03-2.62-4.74-3.64-1.71-1.03-3.53-1.86-5.44-2.49-.47-.15-.94-.29-1.41-.42-.47-.13-.95-.24-1.43-.34-.48-.1-.97-.19-1.46-.26-.49-.07-.98-.14-1.47-.19,1.24-.37,2.48-.64,3.72-.81,1.24-.17,2.48-.25,3.71-.22,1.23.02,2.45.14,3.64.34,1.2.2,2.37.5,3.52.87Z"/></g><g><path class="cls-14" d="m163.58,91.15l6-13.23c.33,0,.67,0,1,0,.33,0,.66-.03.99-.06.33-.03.66-.06.99-.11s.65-.1.98-.17c1.38-.27,2.72-.7,4-1.28,1.27-.58,2.49-1.3,3.61-2.17,1.12-.86,2.15-1.86,3.06-2.99.91-1.13,1.69-2.38,2.33-3.75.79-1.69,1.28-3.43,1.51-5.19.23-1.75.18-3.51-.11-5.21-.29-1.71-.82-3.37-1.57-4.93-.75-1.56-1.72-3.03-2.88-4.33l.1-.02c1.67,1.88,3.06,3.98,4.14,6.23,1.08,2.25,1.84,4.63,2.25,7.09.41,2.46.48,4.98.15,7.5-.32,2.52-1.03,5.03-2.16,7.46-.92,1.97-2.05,3.77-3.35,5.39-1.3,1.62-2.78,3.06-4.39,4.3-1.61,1.24-3.36,2.29-5.2,3.12-1.84.83-3.77,1.45-5.76,1.85-.46.09-.93.17-1.4.24-.47.06-.94.12-1.42.16-.47.04-.95.07-1.43.09-.48.01-.96.02-1.43,0Z"/><path class="cls-19" d="m183.58,47.71c2.92,1.43,5.44,3.37,7.49,5.67,2.05,2.3,3.63,4.95,4.67,7.8,1.04,2.85,1.55,5.88,1.45,8.95-.1,3.07-.8,6.16-2.18,9.13-.84,1.81-1.88,3.46-3.07,4.95-1.2,1.49-2.55,2.81-4.03,3.95-1.48,1.14-3.08,2.1-4.76,2.86-1.68.76-3.46,1.33-5.27,1.69-1.17.23-2.35.38-3.55.44-1.19.06-2.4.02-3.6-.1-1.2-.12-2.41-.34-3.6-.66-1.2-.32-2.38-.73-3.54-1.24.48.01.96,0,1.43,0,.48-.01.96-.04,1.43-.09.48-.04.95-.1,1.42-.16.47-.07.94-.15,1.4-.24,1.99-.39,3.92-1.02,5.76-1.85,1.84-.83,3.58-1.88,5.2-3.12,1.61-1.24,3.09-2.68,4.39-4.3,1.3-1.62,2.44-3.42,3.35-5.39,1.13-2.43,1.84-4.94,2.16-7.46.32-2.52.26-5.05-.15-7.5-.41-2.46-1.18-4.84-2.25-7.09-1.08-2.25-2.47-4.35-4.14-6.23Z"/></g><g><path class="cls-11" d="m140.55,68.74l13.04-6.41c.98.84,2.05,1.57,3.18,2.18,1.13.61,2.31,1.1,3.54,1.46,1.23.36,2.49.59,3.77.69,1.28.1,2.58.06,3.88-.12.46-.06.92-.15,1.38-.25.46-.1.92-.22,1.37-.36.46-.14.91-.29,1.36-.47.45-.18.9-.37,1.34-.58,1.68-.82,3.17-1.86,4.45-3.08,1.28-1.22,2.36-2.61,3.22-4.11.86-1.51,1.5-3.13,1.91-4.82.41-1.69.58-3.43.51-5.18h.1c.1,2.5-.15,5.01-.74,7.43-.59,2.42-1.51,4.76-2.74,6.93-1.23,2.17-2.78,4.17-4.63,5.92-1.84,1.75-3.99,3.25-6.4,4.43-.63.31-1.27.59-1.92.84-.64.25-1.3.48-1.95.67-.65.2-1.31.37-1.97.51s-1.32.26-1.99.35c-1.86.26-3.74.31-5.58.17-1.85-.14-3.67-.48-5.43-.99-1.77-.52-3.48-1.22-5.1-2.1-1.63-.88-3.16-1.93-4.58-3.14Z"/><path class="cls-7" d="m183.58,47.7c1.36,2.95,2.08,6.05,2.21,9.13.14,3.08-.32,6.14-1.31,9.01-.99,2.87-2.52,5.55-4.54,7.87-2.02,2.32-4.53,4.28-7.48,5.72-.58.28-1.17.54-1.76.77s-1.19.44-1.79.62c-.6.18-1.2.34-1.81.47-.61.13-1.21.24-1.82.33-2.47.35-4.96.3-7.37-.12-2.41-.41-4.75-1.19-6.92-2.3-2.18-1.11-4.19-2.56-5.96-4.32-1.77-1.75-3.29-3.82-4.48-6.15,1.42,1.21,2.95,2.26,4.58,3.14,1.62.88,3.33,1.58,5.1,2.1,1.77.52,3.59.86,5.43.99,1.85.14,3.72.09,5.58-.17.66-.09,1.32-.21,1.99-.35s1.32-.32,1.97-.51c.65-.2,1.31-.42,1.95-.67.65-.25,1.29-.53,1.92-.84,2.42-1.17,4.56-2.67,6.4-4.43,1.84-1.75,3.39-3.75,4.63-5.92,1.24-2.17,2.16-4.51,2.74-6.93.58-2.42.84-4.93.74-7.45Z"/></g><g><g><path class="cls-12" d="m136.83,37.15c.46,2.49,1.28,4.87,2.41,7.1,1.13,2.22,2.58,4.28,4.3,6.1,1.72,1.82,3.71,3.4,5.92,4.68,2.21,1.28,4.65,2.26,7.27,2.86.67.15,1.33.28,2,.37.67.1,1.33.17,1.99.21.66.04,1.32.06,1.97.06s1.3-.04,1.95-.1c1.78-.16,3.52-.5,5.21-1.02,1.68-.51,3.3-1.19,4.84-2.03,1.54-.83,2.99-1.81,4.34-2.93,1.35-1.12,2.59-2.37,3.71-3.73l.37.49c-.75,2.34-1.83,4.5-3.18,6.45-1.35,1.95-2.97,3.67-4.79,5.13-1.82,1.46-3.84,2.65-6,3.54-2.16.88-4.46,1.45-6.83,1.66-.6.05-1.2.08-1.81.09-.61,0-1.22,0-1.83-.05-.61-.04-1.23-.11-1.84-.2-.62-.09-1.24-.21-1.86-.35-3.2-.73-6.1-2.07-8.62-3.86-2.52-1.8-4.64-4.05-6.28-6.61-1.64-2.56-2.79-5.43-3.37-8.46-.57-3.03-.57-6.22.11-9.41Z"/><path class="cls-9" d="m136.83,37.15l14.16,3.23c.32,1.73.89,3.39,1.67,4.93.79,1.55,1.79,2.97,2.98,4.24,1.19,1.27,2.57,2.37,4.11,3.26,1.54.89,3.23,1.57,5.05,1.99.47.11.93.19,1.39.26.46.07.92.12,1.38.15.46.03.92.04,1.37.04.46,0,.91-.03,1.35-.07,1.31-.12,2.6-.38,3.83-.77,1.24-.39,2.43-.92,3.55-1.56,1.12-.64,2.17-1.4,3.14-2.26.97-.86,1.85-1.82,2.62-2.87h.1c-1.12,1.5-2.38,2.88-3.77,4.12-1.39,1.24-2.91,2.33-4.52,3.26-1.61.92-3.32,1.68-5.1,2.25-1.78.56-3.63.94-5.52,1.11-.65.06-1.3.09-1.95.1s-1.31-.01-1.97-.05c-.66-.04-1.32-.12-1.99-.22-.67-.1-1.33-.22-2-.37-2.62-.6-5.06-1.58-7.28-2.86-2.21-1.28-4.2-2.86-5.92-4.68-1.72-1.82-3.17-3.88-4.3-6.1-1.13-2.22-1.95-4.61-2.41-7.1Z"/></g><path class="cls-12" d="m183.53,47.69c-.03.13-.06.26-.1.39-.03.13-.07.26-.1.39-.04.13-.07.26-.11.38-.04.13-.07.25-.11.38l-.38-.49c.07-.09.14-.17.2-.26.07-.09.13-.17.2-.26.07-.09.13-.18.2-.27.07-.09.13-.18.2-.27Z"/></g><g><path class="cls-4" d="m152.01,11.71l9.51,10.98c-.76,1.58-1.28,3.26-1.56,4.96-.28,1.71-.31,3.45-.09,5.18.22,1.72.68,3.42,1.4,5.05.72,1.62,1.69,3.17,2.91,4.58.99,1.13,2.08,2.11,3.26,2.93,1.18.82,2.43,1.47,3.74,1.98,1.31.5,2.67.85,4.05,1.04,1.38.19,2.78.23,4.17.11.34-.03.68-.07,1.02-.12.34-.04.68-.1,1.01-.17.33-.07.67-.14,1-.23.33-.08.66-.18.99-.28h.1c-.47.14-.95.27-1.43.4s-.96.23-1.44.33c-.48.09-.97.18-1.46.25-.49.07-.97.12-1.46.16-2,.17-4.01.12-6-.15-1.98-.27-3.94-.77-5.82-1.5-1.88-.73-3.69-1.67-5.39-2.85-1.69-1.17-3.27-2.58-4.69-4.21-1.76-2.03-3.16-4.25-4.19-6.59-1.03-2.34-1.7-4.79-2.01-7.26-.31-2.48-.26-4.99.13-7.44.4-2.46,1.15-4.86,2.24-7.14Z"/><path class="cls-8" d="m152.01,11.71c-1.09,2.27-1.84,4.68-2.24,7.14-.4,2.46-.45,4.96-.13,7.44.31,2.48.98,4.93,2.01,7.26,1.03,2.33,2.42,4.56,4.19,6.59,1.42,1.63,2.99,3.03,4.69,4.21,1.69,1.18,3.5,2.12,5.39,2.85,1.88.72,3.84,1.22,5.82,1.5,1.98.27,4,.32,6,.15.49-.04.98-.1,1.46-.16.49-.07.97-.15,1.46-.25.48-.1.96-.2,1.44-.33s.95-.26,1.43-.4c-.99.82-2.03,1.56-3.1,2.21-1.08.65-2.19,1.2-3.33,1.67-1.14.47-2.31.84-3.5,1.12-1.19.28-2.39.48-3.59.58-1.84.16-3.68.11-5.5-.15-1.82-.25-3.61-.72-5.33-1.39-1.72-.67-3.38-1.55-4.93-2.63-1.55-1.08-3-2.37-4.3-3.87-2.15-2.48-3.71-5.27-4.67-8.19-.97-2.93-1.35-6-1.16-9.03.19-3.03.96-6.02,2.28-8.8,1.32-2.78,3.21-5.34,5.64-7.51Z"/></g><g><path class="cls-16" d="m183.37,0l-.04,14.52c-1.6.69-3.09,1.61-4.42,2.72-1.33,1.1-2.49,2.4-3.46,3.83-.96,1.44-1.73,3.03-2.25,4.72-.52,1.69-.8,3.49-.8,5.35,0,1.68.24,3.3.68,4.84.44,1.54,1.08,2.99,1.89,4.32.81,1.34,1.79,2.57,2.92,3.65,1.12,1.08,2.38,2.03,3.74,2.81l-.71-.41c-1.96-1.12-3.77-2.49-5.38-4.05-1.61-1.56-3.03-3.32-4.19-5.25-1.17-1.93-2.1-4.01-2.73-6.22-.63-2.21-.97-4.54-.97-6.95,0-2.68.41-5.27,1.16-7.7.75-2.43,1.85-4.71,3.24-6.78,1.39-2.07,3.06-3.92,4.97-5.51,1.91-1.59,4.05-2.91,6.36-3.9Z"/><path class="cls-6" d="m183.37,0c-2.31.99-4.45,2.31-6.36,3.9-1.91,1.59-3.58,3.44-4.97,5.51-1.39,2.07-2.49,4.34-3.24,6.78-.75,2.43-1.16,5.02-1.16,7.7s.42,5.26,1.19,7.68c.77,2.42,1.9,4.69,3.32,6.74,1.42,2.06,3.12,3.9,5.05,5.49,1.93,1.58,4.08,2.9,6.38,3.91-3.25-.06-6.36-.76-9.2-1.98-2.84-1.22-5.4-2.97-7.56-5.11-2.16-2.15-3.91-4.7-5.12-7.53-1.21-2.83-1.88-5.94-1.88-9.21s.66-6.39,1.85-9.23c1.19-2.84,2.91-5.4,5.04-7.55,2.13-2.15,4.66-3.9,7.48-5.12,2.82-1.22,5.91-1.92,9.17-1.96Z"/></g><g><path class="cls-2" d="m98.99,166.36h-23.45l-6.8-21.27h-33.99l-6.73,21.27H4.66l34.81-95.57h25.52l33.99,95.57h0Zm-35.19-37.79l-10.26-32.12c-.75-2.41-1.3-5.28-1.62-8.6h-.52c-.23,2.8-.77,5.58-1.66,8.33l-10.4,32.4h24.45Z"/><polygon class="cls-2" points="162.91 166.36 101.65 166.36 101.65 157.62 135.91 113.65 105.06 113.65 105.06 98.11 162.64 98.11 162.64 108.5 130.18 150.82 162.91 150.82 162.91 166.36"/><path class="cls-2" d="m194.63,143.22c0,2.89.68,5.1,2.07,6.57,1.39,1.48,3.23,2.23,5.53,2.23,1.16,0,2.32-.11,3.46-.34,1.16-.2,2.32-.43,3.48-.66v14.81c-2.55.66-5.21,1.21-8.03,1.62-2.82.43-5.78.64-8.83.64-2.8,0-5.35-.46-7.64-1.39-2.28-.93-4.23-2.28-5.87-4.05-1.61-1.75-2.87-3.87-3.75-6.35-.89-2.5-1.34-5.3-1.34-8.42v-49.78h20.93v45.11Z"/><path class="cls-2" d="m213.56,164.56v-17.06c3.48,2.09,6.94,3.64,10.37,4.66,3.44,1.02,6.69,1.52,9.76,1.52,3.73,0,6.69-.5,8.83-1.52,2.16-1.02,3.23-2.57,3.23-4.66,0-1.34-.48-2.46-1.46-3.34-.98-.89-2.23-1.66-3.78-2.32-1.53-.66-3.21-1.27-5.03-1.8-1.82-.54-3.57-1.14-5.26-1.8-2.71-1.02-5.09-2.14-7.17-3.3-2.07-1.18-3.8-2.55-5.21-4.12-1.39-1.55-2.46-3.34-3.19-5.39-.75-2.05-1.11-4.46-1.11-7.26,0-3.82.84-7.12,2.5-9.87,1.66-2.75,3.89-5.01,6.67-6.76,2.78-1.75,5.96-3.05,9.53-3.87,3.57-.82,7.3-1.23,11.17-1.23,3.03,0,6.07.23,9.19.71,3.12.46,6.19,1.14,9.19,2.03v16.27c-2.66-1.57-5.51-2.73-8.55-3.5-3.05-.77-6.03-1.16-8.96-1.16-1.39,0-2.68.11-3.89.36-1.23.23-2.32.59-3.25,1.07-.93.46-1.66,1.07-2.18,1.8-.54.73-.8,1.57-.8,2.5,0,1.23.39,2.3,1.18,3.18.82.89,1.84,1.66,3.14,2.3,1.3.66,2.73,1.23,4.3,1.73,1.57.52,3.14,1.04,4.71,1.57,2.8.98,5.32,2.05,7.6,3.21,2.25,1.16,4.21,2.5,5.82,4.07,1.62,1.55,2.87,3.37,3.73,5.46.86,2.09,1.3,4.57,1.3,7.46,0,4.05-.86,7.51-2.64,10.37-1.75,2.87-4.07,5.19-6.98,6.98-2.91,1.8-6.28,3.12-10.08,3.94-3.8.82-7.73,1.23-11.83,1.23-7.51,0-14.45-1.16-20.86-3.46Z"/><path class="cls-2" d="m319.34,165.56c-3.11,1.64-7.8,2.46-14.06,2.46-14.83,0-22.27-7.71-22.27-23.11v-31.26h-11.06v-15.54h11.06v-14.72l21-6.01v20.72h15.33v15.54h-15.33v27.57c0,7.12,2.82,10.67,8.46,10.67,2.23,0,4.53-.64,6.87-1.93v15.61Z"/><path class="cls-2" d="m388,166.36h-19.93v-9.8h-.27c-4.57,7.64-11.35,11.46-20.32,11.46-6.64,0-11.85-1.87-15.65-5.62-3.8-3.75-5.69-8.78-5.69-15.04,0-13.24,7.85-20.88,23.52-22.93l18.54-2.46c0-7.46-4.05-11.19-12.15-11.19s-15.86,2.41-23.18,7.26v-15.85c2.93-1.53,6.94-2.84,12.03-4,5.07-1.16,9.71-1.73,13.9-1.73,19.45,0,29.19,9.71,29.19,29.12v40.79h0Zm-19.79-27.73v-4.59l-12.4,1.59c-6.85.88-10.26,3.98-10.26,9.28,0,2.39.82,4.37,2.48,5.89,1.68,1.53,3.94,2.3,6.78,2.3,3.96,0,7.16-1.37,9.67-4.1,2.48-2.73,3.73-6.19,3.73-10.37Z"/></g><path class="cls-15" d="m229.74,36.58l-14.11,3.36c-.77-1.03-1.64-1.97-2.59-2.81-.96-.84-2-1.57-3.1-2.19-1.11-.62-2.28-1.12-3.5-1.5-1.22-.38-2.49-.62-3.78-.73-.46-.04-.93-.06-1.39-.06-.47,0-.94,0-1.41.04-.47.03-.95.09-1.42.16-.48.07-.95.16-1.42.27-1.56.37-3.01.93-4.35,1.65-1.34.73-2.56,1.62-3.65,2.64-1.09,1.02-2.04,2.18-2.85,3.43-.81,1.25-1.46,2.6-1.95,4.01l.43-1.23c.71-2.03,1.65-3.97,2.81-5.77,1.16-1.8,2.53-3.45,4.1-4.92,1.56-1.47,3.32-2.75,5.24-3.79,1.92-1.04,4.01-1.85,6.25-2.37.68-.16,1.36-.29,2.04-.39.68-.11,1.36-.18,2.04-.23.68-.05,1.35-.07,2.02-.06.67,0,1.34.04,2,.09,1.85.16,3.67.52,5.42,1.06,1.75.54,3.43,1.27,5.02,2.16,1.59.89,3.08,1.95,4.45,3.15,1.37,1.2,2.62,2.55,3.72,4.04Z"/><path class="cls-3" d="m208.69,18.67c2.47.21,4.85.81,7.09,1.74,2.24.93,4.32,2.2,6.18,3.76,1.85,1.56,3.48,3.4,4.8,5.48,1.32,2.09,2.34,4.41,2.98,6.93-1.1-1.48-2.35-2.83-3.72-4.04-1.37-1.2-2.86-2.26-4.45-3.15-1.59-.89-3.27-1.61-5.02-2.16-1.75-.54-3.57-.9-5.42-1.06-.66-.05-1.33-.09-2-.09-.67,0-1.34.02-2.02.06-.68.05-1.36.12-2.04.23-.68.1-1.36.24-2.04.39-2.6.61-5,1.6-7.17,2.9-2.17,1.3-4.11,2.91-5.79,4.75-1.67,1.84-3.07,3.92-4.17,6.16-1.1,2.24-1.89,4.63-2.33,7.11-.69-3.18-.72-6.36-.18-9.4.54-3.04,1.65-5.92,3.24-8.5,1.59-2.58,3.66-4.85,6.13-6.67,2.47-1.81,5.33-3.17,8.5-3.91.63-.15,1.25-.27,1.88-.36.62-.1,1.25-.17,1.87-.21.62-.04,1.24-.06,1.86-.06.62,0,1.23.03,1.83.08Z"/><g><path class="cls-5" d="m225.8,69.45l-12.92-6.61c.12-1.74,0-3.48-.38-5.16-.37-1.68-.97-3.31-1.8-4.82-.83-1.51-1.88-2.92-3.13-4.16-1.26-1.24-2.71-2.32-4.35-3.17-.42-.22-.84-.42-1.27-.6-.43-.18-.86-.35-1.29-.49-.43-.15-.87-.27-1.31-.38-.44-.11-.88-.2-1.32-.27-1.09-.18-2.19-.26-3.29-.24-1.09.02-2.18.15-3.25.36-1.07.22-2.11.53-3.13.94-1.01.4-1.99.89-2.93,1.47l.97-.59c1.34-.83,2.75-1.53,4.2-2.11,1.46-.58,2.96-1.03,4.49-1.34,1.53-.31,3.09-.49,4.67-.52,1.57-.03,3.15.08,4.72.34.63.11,1.27.24,1.9.39.63.16,1.26.34,1.88.55.62.21,1.24.44,1.86.71.61.26,1.22.55,1.82.86,2.36,1.23,4.45,2.78,6.25,4.56,1.8,1.78,3.3,3.8,4.49,5.98,1.19,2.17,2.06,4.51,2.58,6.92.53,2.41.72,4.91.54,7.41Z"/><path class="cls-10" d="m208.61,35.37c.59.1,1.17.22,1.76.37.58.15,1.17.32,1.74.51.58.2,1.15.41,1.72.65.57.24,1.13.51,1.69.8,2.88,1.5,5.32,3.52,7.27,5.87,1.95,2.35,3.42,5.05,4.34,7.91.92,2.86,1.31,5.91,1.11,8.95-.2,3.05-1,6.11-2.44,9.01.18-2.5,0-5-.54-7.41-.53-2.42-1.4-4.75-2.58-6.92-1.19-2.18-2.69-4.19-4.49-5.98-1.8-1.78-3.89-3.33-6.25-4.56-.6-.31-1.21-.6-1.82-.86-.61-.26-1.23-.5-1.86-.71-.62-.21-1.25-.39-1.88-.55-.63-.16-1.26-.29-1.9-.39-1.86-.31-3.73-.41-5.58-.31-1.85.1-3.69.4-5.48.89-1.79.49-3.52,1.16-5.18,2.01-1.65.85-3.22,1.87-4.68,3.05,1.25-2.3,2.83-4.33,4.65-6.05,1.82-1.72,3.87-3.13,6.08-4.2,2.2-1.07,4.56-1.8,6.97-2.16,2.41-.36,4.89-.35,7.34.07Z"/></g><g><path class="cls-1" d="m211.16,8.93l-8.48,11.78c-.32-.07-.65-.13-.97-.19-.33-.05-.65-.1-.98-.13-.33-.03-.65-.06-.98-.08-.33-.02-.65-.02-.98-.02-1.4,0-2.79.17-4.15.49-1.36.32-2.68.8-3.94,1.44-1.26.63-2.45,1.42-3.55,2.35-1.1.93-2.1,2.01-2.98,3.24-.94,1.31-1.67,2.69-2.2,4.13-.53,1.44-.87,2.92-1.02,4.41-.15,1.49-.11,3,.11,4.48.22,1.48.62,2.93,1.18,4.32l-.46-1.12c-.81-2-1.38-4.09-1.7-6.22-.31-2.13-.37-4.29-.16-6.44.21-2.15.7-4.28,1.46-6.34.77-2.06,1.82-4.06,3.17-5.93,1.27-1.76,2.71-3.31,4.29-4.65,1.58-1.34,3.29-2.47,5.1-3.37,1.8-.91,3.71-1.59,5.65-2.06,1.95-.46,3.95-.7,5.96-.7.47,0,.94,0,1.41.03.47.02.94.06,1.41.11.47.05.94.11,1.41.19.47.08.93.17,1.4.27Z"/><path class="cls-13" d="m197.51,4.66c1.18,0,2.36.08,3.54.26,1.17.18,2.34.44,3.49.79,1.15.35,2.28.8,3.39,1.34,1.11.54,2.18,1.17,3.22,1.89-.47-.1-.93-.19-1.4-.27-.47-.08-.94-.14-1.41-.19-.47-.05-.94-.09-1.41-.11-.47-.03-.94-.03-1.41-.03-2.01,0-4.01.24-5.96.7-1.95.46-3.85,1.15-5.65,2.06-1.81.91-3.52,2.04-5.1,3.37-1.58,1.34-3.02,2.89-4.29,4.65-1.56,2.17-2.72,4.5-3.51,6.92-.78,2.41-1.19,4.91-1.24,7.4-.05,2.49.26,4.98.9,7.39.64,2.41,1.62,4.73,2.91,6.9-2.6-1.95-4.72-4.33-6.31-6.97-1.59-2.65-2.65-5.56-3.15-8.55-.5-3-.43-6.08.24-9.08.67-3,1.94-5.91,3.84-8.56,1.16-1.61,2.49-3.04,3.94-4.27,1.45-1.23,3.03-2.27,4.69-3.1,1.66-.83,3.41-1.46,5.2-1.89,1.79-.42,3.63-.64,5.47-.64Z"/></g></g><text class="cls-26" transform="translate(1.89 265.66)"><tspan x="0" y="0">A Division of Azista Industries</tspan></text><rect class="cls-27" y="235.24" width="390.97" height="1.16"/></g></g></svg>