<?xml version="1.0" encoding="UTF-8"?>
<!DOCTYPE svg PUBLIC "-//W3C//DTD SVG 1.1//EN" "http://www.w3.org/Graphics/SVG/1.1/DTD/svg11.dtd">
<!-- Creator: CorelDRAW 2020 (64-Bit) -->
<svg xmlns="http://www.w3.org/2000/svg" xml:space="preserve" width="3508px" height="1417px" version="1.1" style="shape-rendering:geometricPrecision; text-rendering:geometricPrecision; image-rendering:optimizeQuality; fill-rule:evenodd; clip-rule:evenodd"
viewBox="0 0 3508 1417.37"
 xmlns:xlink="http://www.w3.org/1999/xlink"
 xmlns:xodm="http://www.corel.com/coreldraw/odm/2003">
 <defs>
  <style type="text/css">
   <![CDATA[
    .fil9 {fill:none;fill-rule:nonzero}
    .fil17 {fill:#FEFEFE}
    .fil11 {fill:#898989}
    .fil10 {fill:#BDBABE}
    .fil13 {fill:#272624}
    .fil12 {fill:#252423}
    .fil2 {fill:#389C45}
    .fil20 {fill:#252523}
    .fil1 {fill:#1C1B17}
    .fil18 {fill:#FEFEFE;fill-rule:nonzero}
    .fil21 {fill:#2B2A29;fill-rule:nonzero}
    .fil6 {fill:#56709D;fill-rule:nonzero}
    .fil8 {fill:#35AFE0;fill-rule:nonzero}
    .fil3 {fill:#23A5DC;fill-rule:nonzero}
    .fil7 {fill:#3DAB46;fill-rule:nonzero}
    .fil19 {fill:#252423;fill-rule:nonzero}
    .fil5 {fill:#389C45;fill-rule:nonzero}
    .fil4 {fill:#0A5072;fill-rule:nonzero}
    .fil0 {fill:#1C1B17;fill-rule:nonzero}
    .fil23 {fill:url(#id0)}
    .fil24 {fill:url(#id1)}
    .fil16 {fill:url(#id2)}
    .fil15 {fill:url(#id3)}
    .fil26 {fill:url(#id4)}
    .fil27 {fill:url(#id5)}
    .fil22 {fill:url(#id6)}
    .fil14 {fill:url(#id7)}
    .fil25 {fill:url(#id8)}
   ]]>
  </style>
  <linearGradient id="id0" gradientUnits="userSpaceOnUse" x1="678.14" y1="560.85" x2="672.94" y2="544.49">
   <stop offset="0" style="stop-opacity:1; stop-color:#252422"/>
   <stop offset="1" style="stop-opacity:1; stop-color:#272624"/>
  </linearGradient>
  <linearGradient id="id1" gradientUnits="userSpaceOnUse" xlink:href="#id0" x1="671.2" y1="566.05" x2="666.49" y2="551.18">
  </linearGradient>
  <linearGradient id="id2" gradientUnits="userSpaceOnUse" xlink:href="#id0" x1="528.42" y1="330.06" x2="513.79" y2="325.35">
  </linearGradient>
  <linearGradient id="id3" gradientUnits="userSpaceOnUse" xlink:href="#id0" x1="528.17" y1="321.88" x2="511.81" y2="316.43">
  </linearGradient>
  <linearGradient id="id4" gradientUnits="userSpaceOnUse" xlink:href="#id0" x1="667.23" y1="966.88" x2="651.87" y2="974.57">
  </linearGradient>
  <linearGradient id="id5" gradientUnits="userSpaceOnUse" xlink:href="#id0" x1="673.43" y1="973.08" x2="659.55" y2="980.02">
  </linearGradient>
  <linearGradient id="id6" gradientUnits="userSpaceOnUse" x1="665.25" y1="551.92" x2="672.44" y2="563.33">
   <stop offset="0" style="stop-opacity:1; stop-color:#272624"/>
   <stop offset="1" style="stop-opacity:1; stop-color:#252422"/>
  </linearGradient>
  <linearGradient id="id7" gradientUnits="userSpaceOnUse" xlink:href="#id6" x1="514.04" y1="326.84" x2="526.19" y2="327.59">
  </linearGradient>
  <linearGradient id="id8" gradientUnits="userSpaceOnUse" xlink:href="#id6" x1="660.29" y1="981.01" x2="670.7" y2="972.34">
  </linearGradient>
 </defs>
 <g id="Layer_x0020_1">
  <metadata id="CorelCorpID_0Corel-Layer"/>
  <g id="_2085010986496">
   <g>
    <path class="fil0" d="M1530.83 877.78l-26 70.47 51.96 0 -25.96 -70.47zm-33.84 91.61l-7.83 21.14 -25.96 0 54.59 -147.96 26.02 0 54.54 147.96 -26.01 0 -7.82 -21.14 -67.53 0zm209.87 -63.41l77.99 0 0 21.14 -77.99 0 0 21.13c0,14.11 8.65,21.14 25.98,21.14l60.66 0 0 21.14 -60.66 0c-34.66,0 -51.99,-14.1 -51.99,-42.28l0 -63.4c0,-28.18 17.33,-42.28 51.99,-42.28l60.66 0 0 21.14 -60.66 0c-17.33,0 -25.98,7.08 -25.98,21.14l0 21.13zm244.72 42.27l-39.21 0 0 42.28 -26 0 0 -105.68c0,-28.18 17.31,-42.28 51.96,-42.28l17.35 0c34.67,0 51.98,14.1 51.98,42.28l0 21.13c0,20.38 -9.05,33.37 -27.15,39l30.65 45.55 -31.16 0 -28.42 -42.28zm-39.21 -21.13l43.31 0c17.33,0 26.01,-7.04 26.01,-21.14l0 -21.13c0,-14.06 -8.68,-21.14 -26.01,-21.14l-17.35 0c-17.29,0 -25.96,7.08 -25.96,21.14l0 42.27zm242.27 -84.55l17.35 0c34.65,0 51.97,14.1 51.97,42.28l0 63.4c0,28.18 -17.32,42.28 -51.97,42.28l-17.35 0c-34.66,0 -51.99,-14.1 -51.99,-42.28l0 -63.4c0,-28.18 17.33,-42.28 51.99,-42.28zm17.35 21.14l-17.35 0c-17.33,0 -25.98,7.08 -25.98,21.14l0 63.4c0,14.11 8.65,21.14 25.98,21.14l17.35 0c17.3,0 26.01,-7.03 26.01,-21.14l0 -63.4c0,-14.06 -8.71,-21.14 -26.01,-21.14zm214.91 -21.14c34.67,0 51.97,14.1 51.97,42.28l-25.97 0c0,-14.06 -8.68,-21.14 -26,-21.14l-17.35 0c-17.31,0 -25.96,3.53 -25.96,10.57 0,7.06 15.87,19.37 47.64,37.01 31.77,17.6 47.64,33.43 47.64,47.53 0,21.14 -17.3,31.71 -51.97,31.71l-17.35 0c-34.66,0 -51.97,-14.1 -51.97,-42.28l26.01 0c0,14.11 8.65,21.14 25.96,21.14l17.35 0c17.32,0 26,-3.53 26,-10.57 0,-7.03 -15.9,-19.36 -47.68,-36.96 -31.77,-17.64 -47.64,-33.48 -47.64,-47.58 0,-21.14 17.31,-31.71 51.97,-31.71l17.35 0zm197.9 84.55l17.35 0c17.31,0 26.01,-7.04 26.01,-21.14l0 -21.13c0,-14.06 -8.7,-21.14 -26.01,-21.14l-17.35 0c-17.32,0 -25.98,7.08 -25.98,21.14l0 21.13c0,14.1 8.66,21.14 25.98,21.14zm17.35 21.13l-17.35 0c-10.13,0 -18.8,-1.18 -25.98,-3.6l0 45.88 -25.98 0 0 -105.68c0,-28.18 17.3,-42.28 51.96,-42.28l17.35 0c34.66,0 51.97,14.1 51.97,42.28l0 21.13c0,28.17 -17.31,42.27 -51.97,42.27zm189.34 -70.47l-26.01 70.47 51.99 0 -25.98 -70.47zm-33.83 91.61l-7.81 21.14 -25.98 0 54.6 -147.96 26.01 0 54.54 147.96 -26 0 -7.85 -21.14 -67.51 0zm305.17 -84.54l0 10.56 -25.98 0 0 -10.56c0,-14.06 -8.68,-21.14 -26,-21.14l-17.36 0c-17.29,0 -25.95,7.08 -25.95,21.14l0 63.4c0,14.11 8.66,21.14 25.95,21.14l17.36 0c17.32,0 26,-7.03 26,-21.14l0 -10.56 25.98 0 0 10.56c0,28.18 -17.31,42.28 -51.98,42.28l-17.36 0c-34.64,0 -51.96,-14.1 -51.96,-42.28l0 -63.4c0,-28.18 17.32,-42.28 51.96,-42.28l17.36 0c34.67,0 51.98,14.1 51.98,42.28zm122.26 21.13l77.98 0 0 21.14 -77.98 0 0 21.13c0,14.11 8.66,21.14 25.96,21.14l60.68 0 0 21.14 -60.68 0c-34.64,0 -51.96,-14.1 -51.96,-42.28l0 -63.4c0,-28.18 17.32,-42.28 51.96,-42.28l60.68 0 0 21.14 -60.68 0c-17.3,0 -25.96,7.08 -25.96,21.14l0 21.13z"/>
    <path class="fil0" d="M1366.97 651.95l0 142.33 -96.99 24.25 0 -363.69 96.99 0 0 142.33 142.32 -142.33 137.2 0 -169.72 169.72 169.72 169.72 -137.2 0 -142.32 -142.33zm363.68 45.34l242.47 0 0 96.99 -290.97 0 -48.49 -48.49 0 -242.47 48.49 -48.48 315.21 0 -48.5 96.98 -218.21 0 0 145.47zm242.47 -24.24l-218.22 0 0 -96.99 218.22 0 0 96.99zm266.7 -121.23l-218.2 0 -48.5 -96.98 315.2 0 48.48 48.48 0 121.24 -48.48 48.49 -193.98 0 0 121.23 -96.98 0 0 -218.22 242.46 0 0 -24.24zm218.23 145.47l242.45 0 0 96.99 -290.94 0 -48.5 -48.49 0 -290.95 96.99 0 0 242.45zm363.69 0l242.47 0 0 96.99 -290.95 0 -48.5 -48.49 0 -242.47 48.5 -48.48 315.18 0 -48.49 96.98 -218.21 0 0 145.47zm242.47 -24.24l-218.23 0 0 -96.99 218.23 0 0 96.99zm266.71 -121.23l-218.22 0 -48.49 -96.98 315.2 0 48.5 48.48 0 121.24 -48.5 48.49 -35.67 0 121.23 121.23 -137.19 0 -121.25 -121.23 -21.1 0 0 121.23 -96.99 0 0 -218.22 242.48 0 0 -24.24z"/>
   </g>
   <g>
    <path class="fil1" d="M509.2 914.55c-12.65,181.91 -36.95,308.7 -66.5,391.48 -27.99,78.42 -61.48,113.47 -95.06,90.2 -33.6,-23.27 -62.98,-101.68 -84.26,-213.54 -22.34,-117.44 -36.74,-269.36 -36.68,-457.83 0.05,-188.48 17.17,-380.32 46.32,-512.99 31.19,-141.85 74.75,-219.65 121.25,-189.8 46.48,29.85 83.45,160.01 104.22,336.81 19.48,165.81 23.37,373.75 10.71,555.67zm-13.92 -10.4c-10.08,152.82 -29.87,263.44 -54.05,335.79 -23.09,69.14 -50.74,100.88 -78.32,81.88 -27.58,-19 -51.34,-86.02 -68.07,-182.2 -17.44,-100.19 -27.97,-230.48 -26.37,-387.7 1.58,-157.23 16.75,-313.07 40.91,-420.43 25.46,-113.12 60.05,-175.13 96.27,-151.66 36.22,23.47 64.92,126.82 81.1,267.92 15.4,134.24 18.62,303.58 8.53,456.4z"/>
    <path class="fil1" d="M424.94 761.23c-115.32,100.32 -204.87,161.06 -271.44,192.6 -63.06,29.89 -103.68,30.82 -109.79,-2.88 -6.11,-33.7 22.93,-97.58 76.61,-176.49 56.37,-82.84 137.87,-181.41 249.61,-293.09 111.74,-111.67 235.57,-215.22 331.48,-276.57 102.54,-65.59 174.48,-85.87 184.35,-40.63 9.85,45.26 -45.38,144.3 -137.85,261.38 -86.73,109.82 -207.67,235.36 -322.97,335.68zm-2.09 -14.41c-96.55,84.59 -173.84,138.43 -231.05,166.98 -54.67,27.28 -89.86,29.71 -94.95,2.1 -5.08,-27.6 20.56,-81.41 67.64,-148.32 49.05,-69.71 120.03,-153.18 214.15,-245.42 94.12,-92.23 195.48,-175.61 273.43,-224.92 82.11,-51.95 139.38,-68.2 146.93,-32.82 7.55,35.38 -36.69,113.63 -110.72,206.85 -70.44,88.69 -168.88,190.96 -265.43,275.55z"/>
    <path class="fil1" d="M313.55 782.78c-116.33,-99.14 -189.7,-178.66 -230.78,-239.82 -38.92,-57.92 -45.87,-97.95 -13.46,-109 32.42,-11.05 99.91,8.18 185.91,49.56 90.3,43.43 199.88,109.39 326.91,203.31 127.02,93.91 247.82,200.99 322.72,286.73 80.1,91.66 110.84,159.79 67.56,176.26 -43.27,16.47 -149.42,-23.44 -278.94,-97.5 -121.48,-69.45 -263.6,-170.4 -379.92,-269.54zm13.93 -4.2c-98,-82.92 -162.7,-151.35 -199.44,-203.69 -35.09,-50 -42.72,-84.44 -16.18,-93.57 26.54,-9.13 83.57,8.24 156.72,44.86 76.22,38.14 169.32,95.94 274.5,175.32 105.2,79.38 202.7,167.23 263.04,236.99 63.57,73.5 88.14,127.7 54.28,140.43 -33.86,12.72 -117.82,-19.4 -221,-78.77 -98.16,-56.49 -213.92,-138.65 -311.92,-221.57z"/>
    <path class="fil2" d="M368.18 484.11c132.97,0 240.76,107.79 240.76,240.75 0,132.96 -107.79,240.74 -240.76,240.74 -132.95,0 -240.74,-107.78 -240.74,-240.74 0,-132.96 107.79,-240.75 240.74,-240.75z"/>
    <path class="fil3" d="M356.36 483.94c2.76,1.51 3.41,1.66 6.62,2.2 -2.76,-1.5 -3.41,-1.65 -6.62,-2.2zm13.21 0l0 0c11.9,9.53 25.55,5.27 39.65,7.02 11.47,1.79 21.19,6.19 33.03,6.19 -19.08,-11.65 -50.72,-12.76 -72.68,-13.21zm-79.28 17.62l0 0c-15.74,-2.17 -30.99,7.98 -44.04,15.87 -25.19,15.21 -47.8,33.54 -66.07,56.8 -11.01,13.86 -19.34,26.43 -19.81,44.04 7.52,-6.44 11.01,-12.34 13.22,-22.02 0.48,3.71 0.47,5.1 0,8.81l15.41 -4.4c2.82,-6.28 5.02,-9.83 11.01,-13.21 0.85,-7.59 4.4,-9.57 11.01,-13.22 -5.01,-0.9 -8.32,0.47 -13.21,2.21 2.2,-6.24 5.6,-11.77 8.8,-17.62 -13.21,10.49 -19.81,26.82 -26.43,41.84l-2.19 -8.81c-3.13,1.04 -4,1.8 -6.61,4.4 12.1,-25.42 37.44,-58.9 68.27,-57.25 -4.69,4.4 -22.26,12.58 -8.82,15.42 0,-6.17 9.51,-11.51 15.42,-13.22l-2.2 -8.81 6.61 0 -2.2 4.41c11.39,-4.41 20.56,-11.01 33.03,-13.22l-6.6 -6.6c8.04,1.73 16.01,2.2 24.22,2.2 -4.79,-7.68 -3.79,-11.41 4.4,-15.42 2.2,7.92 5.63,13.22 0,19.82 13.21,2.83 7.17,-11.82 2.2,-17.61 6.2,-1.25 12.32,-2.21 13.22,-8.82 10.83,-1.68 19.5,-7.87 30.83,-8.8 -12.56,-6.06 -33.3,1.25 -46.25,4.72 -5.95,1.89 -12.3,2.32 -13.22,8.49zm39.65 -6.6l0 0 2.2 2.19 -2.2 -2.19z"/>
    <path class="fil4" d="M359.37 485.78c-0.93,-0.3 -1.8,-0.72 -3.2,-1.48l-2.1 -1.16 2.37 0.41c1.61,0.28 2.59,0.46 3.52,0.76 0.94,0.29 1.8,0.72 3.2,1.49l2.11 1.15 -2.36 -0.41c-1.62,-0.28 -2.6,-0.46 -3.54,-0.76zm11.42 -1.41c7.91,5.8 16.63,5.75 25.73,5.7 4.18,-0.02 8.45,-0.04 12.74,0.49l0.01 0c4.42,0.69 8.57,1.77 12.66,2.82 6.12,1.58 12.15,3.14 18.82,3.35 -9.32,-5.31 -21.4,-8.28 -33.81,-9.98 -12.55,-1.72 -25.43,-2.15 -36.15,-2.38zm25.73 6.5c-9.6,0.05 -18.8,0.1 -27.2,-6.62l-0.9 -0.73 1.16 0.02c10.99,0.23 24.41,0.62 37.47,2.41 13.08,1.8 25.81,5.01 35.4,10.87l1.22 0.73 -1.42 0c-7.36,0 -13.89,-1.68 -20.52,-3.4 -4.08,-1.05 -8.2,-2.12 -12.56,-2.8l0 0c-4.27,-0.53 -8.49,-0.51 -12.65,-0.48zm-106.28 11.08c-14.51,-1.99 -28.65,6.62 -41.02,14.14l0 0 -2.75 1.67 0 0c-12.58,7.6 -24.53,15.98 -35.59,25.36 -11.07,9.37 -21.27,19.75 -30.37,31.36l0 0c-5.49,6.91 -10.32,13.5 -13.82,20.54l0 0c-3.38,6.78 -5.54,14 -5.89,22.35 3.37,-2.97 5.9,-5.86 7.82,-9.1 2.08,-3.45 3.48,-7.31 4.58,-12.1l0.31 -1.42c-0.53,0.48 -1.12,1.06 -1.84,1.79l-1.65 1.64 1 -2.1c6.89,-14.46 18.05,-31.54 32.07,-43.3 10.73,-9 23.13,-14.9 36.57,-14.18l0.94 0.05 -0.68 0.64c-1.15,1.08 -3.04,2.37 -5.06,3.75 -3.8,2.59 -8.08,5.52 -8.55,7.76 -0.27,1.25 0.81,2.34 4.14,3.12 0.21,-2.6 1.96,-5.03 4.37,-7.09 3.2,-2.74 7.59,-4.87 10.96,-5.91l-2.12 -8.43 -0.12 -0.5 0.51 0 6.61 0 0.65 0 -0.3 0.58 -1.73 3.48c3.64,-1.46 7.07,-3.14 10.48,-4.81 6.61,-3.23 13.12,-6.41 20.91,-7.91l-6.08 -6.07 -0.94 -0.96 1.32 0.28c4,0.87 7.99,1.42 11.99,1.75 3.78,0.31 7.58,0.44 11.43,0.45 -2.17,-3.64 -3.01,-6.41 -2.34,-8.79 0.72,-2.52 3.08,-4.53 7.28,-6.58l0.43 -0.21 0.13 0.46c0.39,1.38 0.83,2.73 1.24,4.01 1.88,5.76 3.35,10.29 -0.89,15.65 1.95,0.35 3.42,0.27 4.48,-0.12 1.19,-0.43 1.87,-1.28 2.18,-2.37 0.32,-1.15 0.24,-2.59 -0.1,-4.13 -0.85,-3.69 -3.22,-7.94 -5.39,-10.47l-0.44 -0.52 0.66 -0.14 0.75 -0.15c5.79,-1.15 11.32,-2.26 12.15,-8.31l0.04 -0.3 0.3 -0.05c4.93,-0.76 9.44,-2.49 13.96,-4.21 4.91,-1.87 9.83,-3.75 15.37,-4.44 -10.84,-4.22 -27.03,0.39 -39.25,3.85 -1.9,0.54 -3.71,1.06 -5.34,1.49l0 0c-1.08,0.35 -2.13,0.63 -3.18,0.92 -4.71,1.27 -9.02,2.43 -9.74,7.25l-0.06 0.39 -0.39 -0.06zm-41.43 13.46l-0.01 0c12.37,-7.52 26.52,-16.13 41.17,-14.29 0.95,-5.01 5.4,-6.21 10.26,-7.53 1.05,-0.29 2.14,-0.57 3.15,-0.9l0.03 -0.01c1.7,-0.45 3.47,-0.96 5.33,-1.48 12.86,-3.66 30.11,-8.56 41.2,-3.21l1.31 0.64 -1.46 0.12c-6.06,0.49 -11.37,2.52 -16.67,4.55 -4.47,1.7 -8.92,3.41 -13.85,4.21 -1.03,6.36 -6.75,7.51 -12.75,8.7l-0.08 0.02c2.12,2.64 4.32,6.72 5.13,10.3 0.38,1.66 0.46,3.22 0.09,4.51 -0.36,1.34 -1.21,2.37 -2.67,2.91 -1.31,0.48 -3.13,0.54 -5.56,0.02l-0.66 -0.14 0.43 -0.51c4.47,-5.25 3.03,-9.69 1.17,-15.41 -0.37,-1.12 -0.75,-2.3 -1.11,-3.57 -3.72,1.87 -5.81,3.68 -6.44,5.86 -0.64,2.27 0.29,5.03 2.64,8.77l0.37 0.61 -0.72 0c-4.12,0 -8.18,-0.11 -12.21,-0.45 -3.59,-0.3 -7.2,-0.78 -10.79,-1.49l5.67 5.66 0.54 0.54 -0.76 0.14c-8.03,1.41 -14.69,4.67 -21.45,7.98 -3.71,1.81 -7.47,3.65 -11.51,5.21l-0.95 0.37 0.45 -0.92 1.92 -3.83 -5.46 0 2.07 8.31 0.1 0.37 -0.36 0.11c-3.33,0.96 -7.8,3.09 -11.03,5.86 -2.39,2.05 -4.1,4.45 -4.1,6.97l0 0.49 -0.49 -0.1c-4.27,-0.9 -5.6,-2.38 -5.23,-4.16 0.54,-2.56 4.97,-5.58 8.89,-8.26 1.6,-1.09 3.1,-2.12 4.22,-3.02 -12.84,-0.37 -24.71,5.38 -35.03,14.03 -13.27,11.14 -23.97,27.07 -30.86,40.99 0.54,-0.49 1.01,-0.9 1.53,-1.25 0.97,-0.67 1.99,-1.13 3.6,-1.66l0.4 -0.13 0.11 0.42 1.92 7.68 0.71 -1.63c6.26,-14.3 12.85,-29.38 25.35,-39.3l1.56 -1.23 -0.95 1.73c-0.67,1.23 -1.27,2.28 -1.86,3.33 -2.46,4.4 -4.88,8.73 -6.64,13.44l0.11 -0.05c4.45,-1.59 7.72,-2.75 12.51,-1.89l1.11 0.2 -0.99 0.54c-3.27,1.81 -5.79,3.21 -7.57,5.06 -1.75,1.83 -2.82,4.15 -3.24,7.85l-0.01 0.2 -0.19 0.1c-2.94,1.66 -4.95,3.37 -6.57,5.42 -1.63,2.07 -2.87,4.5 -4.27,7.62l-0.08 0.17 -0.17 0.04 -15.41 4.41 -0.59 0.16 0.08 -0.59c0.23,-1.85 0.35,-3.11 0.35,-4.36 0,-0.69 -0.03,-1.37 -0.09,-2.15 -1.05,3.9 -2.34,7.18 -4.14,10.17 -2.1,3.53 -4.89,6.65 -8.68,9.9l-0.68 0.58 0.03 -0.89c0.22,-8.87 2.44,-16.47 5.99,-23.6l0 0c3.53,-7.11 8.38,-13.74 13.9,-20.69 9.15,-11.65 19.38,-22.07 30.49,-31.47 11.11,-9.41 23.07,-17.81 35.69,-25.43l0 0 2.76 -1.67zm-75.06 79.13l0.23 1.66c0.24,1.87 0.37,3.16 0.37,4.46 -0.01,1.14 -0.11,2.3 -0.29,3.86l14.65 -4.19c1.4,-3.09 2.65,-5.52 4.29,-7.61 1.65,-2.1 3.67,-3.83 6.63,-5.52 0.46,-3.78 1.59,-6.19 3.44,-8.11 1.66,-1.74 3.89,-3.06 6.72,-4.63 -3.98,-0.46 -6.97,0.61 -10.94,2.03l-0.92 0.32 -0.78 0.29 0.28 -0.8c1.79,-5.07 4.37,-9.67 6.98,-14.34l0.84 -1.48c-11.32,9.79 -17.58,24.08 -23.51,37.64l-1.18 2.7 -0.47 1.07 -0.29 -1.13 -2.1 -8.39c-1.28,0.45 -2.16,0.85 -2.98,1.42 -0.33,0.22 -0.63,0.47 -0.97,0.75zm156.47 -99.87l2.21 2.2 -0.57 0.57 -2.2 -2.2 0.56 -0.57z"/>
    <path class="fil5" d="M261.67 521.38l6.6 0 2.21 -2.2c2.2,-8.09 8.11,-11.67 15.42,-15.42 -11.52,-1.92 -20.02,7.89 -24.23,17.62z"/>
    <g>
     <path class="fil4" d="M323.33 501.56l2.21 2.2 -2.21 -2.2zm4.4 0l0 0 0 4.41 4.41 0c-1.2,-3.61 -0.81,-3.21 -4.41,-4.41z"/>
    </g>
    <g>
     <path class="fil6" d="M314.53 512.57l2.19 2.2 -2.19 -2.2zm4.4 0l0 0 2.19 2.2 -2.19 -2.2z"/>
    </g>
    <path class="fil7" d="M254.33 528.72c-0.98,0.98 1.35,0.86 1.47,0.74 0.98,-0.98 -1.34,-0.86 -1.47,-0.74z"/>
    <path class="fil3" d="M523.73 543.4c1.35,3.66 2.21,5.47 4.4,8.81 -6.76,-2.87 -12.46,-4.19 -19.81,-4.41 0,15.42 5.66,24.69 22.01,26.43 3.87,8.2 8.81,15.42 11.01,24.23l-8.8 -15.42c-1.61,12.55 3.36,24.22 0,37.44l-4.41 -2.21c-2.19,5.44 -3.79,10.38 -6.6,15.42 5.4,8.81 12.08,15.42 4.41,24.23 -1.04,-9.22 -6.62,-15.42 -8.82,-24.23 -4.52,1.08 -6.92,2.21 -11.01,4.41l0 -11.01c-4.4,3.35 -7.64,6.66 -11.01,11.01 6.33,4.4 10.13,4.82 17.62,4.4 -10.37,16.87 7.25,27.93 2.81,46.25 -4.02,16.64 -18.65,16.82 -27.03,28.63 -5.04,-3.21 -13.54,-4.22 -13.76,4.64 -0.18,6.85 6.63,11.68 9.36,17.38 5.36,11.01 -3.63,17.62 -11.01,24.22 -2.91,-8.81 -9.68,-13.07 -17.63,-17.61 -2.3,19.81 10.53,28.2 15.42,46.24 -20.91,-15.21 -17.07,-38.3 -26.43,-59.46l-11.01 4.4c-0.77,-11.42 -7.22,-19.19 -13.22,-28.62 -4.59,2.78 -7.84,4.4 -13.21,4.4 -6.6,8.81 -16.69,15.67 -22.01,24.86 -6.89,12.04 -2.42,21.39 -15.43,30.2 -5.14,-17.62 -13.81,-35.17 -19.81,-52.86 -3.61,1.2 -3.21,0.81 -4.41,4.41 -5.82,-6.21 -11.91,-15.42 -20.2,-18.58 -12.83,-4.56 -24.16,2.25 -34.86,-7.85 -13.95,2.39 -18.38,-8.8 -30.82,-11.01 2.2,7.52 5.19,13.69 13.21,15.42l0 8.81c7.45,-2.21 12.01,-5.52 17.61,-11.01 1.19,7.23 9.26,13.21 8.63,19.9 -2.02,19.32 -36.22,28.54 -50.46,35.15 -6.72,-20.94 -17.63,-40.51 -28.64,-59.46 -4.89,8.01 0.54,14.1 3.95,22.02 2.67,6.61 4.12,13.3 7.95,19.42 5.48,8.75 12.92,14.8 16.74,24.63 8.8,-0.4 17.61,-2.14 26.43,-4.41 -4.41,24.22 -22.83,32.25 -33.72,51.58 -6.82,12.29 2.82,22.15 2.27,34.31 -0.35,7.87 -7.13,10.08 -10.91,15.98 -6.53,10.45 -4.31,34.84 -23.71,30.75 -11.01,-2.34 -18.14,-17.8 -22.76,-26.92 -8.15,-16.05 -9.81,-29.39 -14.16,-46.24 -3.62,-14.07 -9.58,-27.89 -13.74,-41.84l-4.4 2.2 -2.2 -8.81c-13.21,2.2 -17.8,-2.72 -19.83,-15.41 -6.81,17.61 5.65,47.17 11.96,63.86 24.13,63.97 76.13,114.52 140,138.74 93.18,35.19 206.09,6.97 269.84,-70.47 31.62,-38.39 48.37,-83.22 53.88,-132.13 6.61,-52.85 -7.13,-109.59 -36.7,-154.16 -8.6,-12.98 -19.65,-34.64 -35.97,-37.44 -2.86,-6.08 -5.62,-8.81 -11.01,-13.21z"/>
    <path class="fil4" d="M524.63 544.66c0.46,1.16 0.87,2.14 1.34,3.09 0.66,1.31 1.4,2.59 2.49,4.25l0.73 1.09 -1.21 -0.51c-3.36,-1.42 -6.45,-2.47 -9.63,-3.18 -3.03,-0.68 -6.15,-1.06 -9.64,-1.18 0.05,7.42 1.46,13.38 4.8,17.68 3.39,4.37 8.82,7.08 16.86,7.94l0.23 0.02 0.1 0.2c1.18,2.5 2.48,4.93 3.75,7.35 2.89,5.45 5.75,10.8 7.28,16.95l0.71 2.81 -1.44 -2.51 -8.2 -14.35c-0.47,5.04 0.04,9.97 0.56,14.94 0.72,6.9 1.47,13.86 -0.44,21.33l-0.12 0.48 -0.43 -0.23 -4.03 -2.01c-0.55,1.38 -1.02,2.61 -1.49,3.81 -1.45,3.79 -2.84,7.4 -4.86,11.05 0.77,1.23 1.54,2.41 2.29,3.56 4.73,7.17 8.69,13.2 1.96,20.94l-0.6 0.69 -0.11 -0.91c-0.57,-5.14 -2.58,-9.34 -4.62,-13.6 -1.54,-3.23 -3.1,-6.48 -4.08,-10.18 -2.06,0.5 -3.67,1.02 -5.23,1.66 -1.65,0.68 -3.27,1.51 -5.29,2.61l-0.59 0.31 0 -0.66 0 -10.2c-1.94,1.5 -3.62,3 -5.22,4.6 -1.67,1.69 -3.24,3.49 -4.82,5.5 2.95,2.03 5.36,3.15 7.88,3.71 2.63,0.6 5.43,0.6 9.13,0.39l0.77 -0.04 -0.39 0.65c-5.6,9.1 -2.88,16.53 -0.03,24.36 2.41,6.56 4.91,13.4 2.88,21.77 -2.45,10.12 -8.72,14.23 -15.18,18.46 -4.25,2.79 -8.61,5.63 -11.92,10.3l-0.22 0.31 -0.32 -0.2c-1.98,-1.27 -4.53,-2.18 -6.86,-2.24 -1.07,-0.02 -2.09,0.12 -3,0.52 -0.87,0.38 -1.63,0.99 -2.2,1.87l0 0c-0.64,1.01 -1.04,2.37 -1.09,4.17 -0.11,4.27 2.63,7.79 5.31,11.23 1.52,1.95 3.02,3.89 4.01,5.96l0 0c5.08,10.45 -2.31,16.96 -9.39,23.18 -0.65,0.58 -1.32,1.16 -1.72,1.52l-0.45 0.4 -0.18 -0.57c-1.44,-4.33 -3.82,-7.55 -6.81,-10.24l0 0c-2.88,-2.59 -6.36,-4.7 -10.11,-6.86 -1.2,11.78 3.06,19.48 7.64,27.77 2.91,5.27 5.96,10.78 7.83,17.73l0.3 1.09 -0.92 -0.67c-13.92,-10.13 -16.96,-23.68 -20.12,-37.84 -1.59,-7.11 -3.22,-14.38 -6.29,-21.42l-10.64 4.26 -0.51 0.2 -0.03 -0.55c-0.64,-9.46 -5.25,-16.43 -10.23,-23.94 -0.9,-1.36 -1.82,-2.75 -2.72,-4.16 -2.17,1.3 -4.06,2.34 -6.05,3.07l0 0c-2.04,0.75 -4.19,1.16 -6.83,1.18 -2.87,3.78 -6.36,7.21 -9.83,10.61 -4.54,4.46 -9.07,8.89 -12.05,14.04l0 0c-2.57,4.51 -3.55,8.65 -4.46,12.53 -1.52,6.49 -2.86,12.24 -11.08,17.81l-0.45 0.31 -0.16 -0.53c-2.9,-9.94 -6.94,-19.88 -10.98,-29.84 -3.05,-7.51 -6.12,-15.05 -8.7,-22.62l-0.39 0.12 -0.01 0c-1.21,0.4 -1.82,0.6 -2.18,0.96 -0.35,0.35 -0.55,0.96 -0.94,2.19l-0.26 0.75 -0.21 0.64 -0.46 -0.49c-1.38,-1.47 -2.78,-3.12 -4.23,-4.83 -4.58,-5.38 -9.59,-11.27 -15.82,-13.64 -5.09,-1.81 -9.97,-1.81 -14.67,-1.81 -7.06,0.02 -13.7,0.02 -20.17,-5.99 -8.15,1.33 -13.07,-1.9 -18.22,-5.28 -3.51,-2.29 -7.12,-4.66 -11.92,-5.65 1.05,3.47 2.3,6.63 4.19,9.13 1.96,2.62 4.64,4.54 8.55,5.38l0.31 0.07 0 0.33 0 8.27c3.46,-1.06 6.28,-2.39 8.89,-4.07 2.74,-1.77 5.25,-3.96 8.06,-6.69l0.54 -0.53 0.12 0.75c0.52,3.22 2.48,6.23 4.39,9.16 2.33,3.59 4.59,7.08 4.25,10.84l0 0.01c-1.67,15.94 -24.69,25.02 -40.95,31.44 -3.72,1.47 -7.1,2.79 -9.75,4.03l-0.42 0.19 -0.13 -0.43c-3.36,-10.45 -7.75,-20.56 -12.67,-30.42 -4.84,-9.65 -10.19,-19.08 -15.58,-28.36 -3.28,5.89 -0.77,10.81 2.03,16.34 0.77,1.52 1.57,3.09 2.28,4.72l0 0.02c0.87,2.15 1.61,4.3 2.34,6.45 1.51,4.43 3.02,8.81 5.57,12.9 2.08,3.31 4.47,6.26 6.81,9.17 3.78,4.67 7.48,9.26 9.86,15.25 4.29,-0.2 8.58,-0.73 12.88,-1.47l0 0c4.4,-0.77 8.79,-1.77 13.18,-2.91l0.61 -0.15 -0.11 0.61c-2.75,15.07 -10.84,23.88 -19.21,33.01 -5.14,5.6 -10.4,11.34 -14.55,18.7 -4.1,7.37 -2.12,13.91 -0.1,20.62 1.31,4.33 2.63,8.73 2.42,13.5 -0.23,5.23 -3.17,8.01 -6.27,10.93 -1.67,1.57 -3.39,3.19 -4.71,5.26 -1.92,3.06 -3.08,7.4 -4.28,11.86 -2.85,10.68 -5.88,22 -19.85,19.05l0 0c-10.49,-2.22 -17.44,-16.02 -22.1,-25.29l-0.93 -1.82 0 0c-6.2,-12.21 -8.66,-22.85 -11.38,-34.64 -0.86,-3.76 -1.76,-7.65 -2.81,-11.69 -2.04,-7.98 -4.85,-15.9 -7.66,-23.79 -2.08,-5.86 -4.16,-11.71 -5.93,-17.58l-3.97 1.98 -0.45 0.23 -0.13 -0.49 -2.11 -8.45c-6.53,1.04 -10.97,0.31 -14.06,-2.26 -2.88,-2.4 -4.54,-6.39 -5.6,-12.02 -5.14,16.19 4.55,41.48 10.89,58.02 0.54,1.41 1.05,2.76 1.56,4.12 11.98,31.73 30.83,60.16 54.58,83.7 24.04,23.82 53.13,42.64 85.2,54.8 46.76,17.67 98.49,19.33 146.47,6.81 47.46,-12.41 91.28,-38.7 122.93,-77.15 15.78,-19.16 27.85,-39.94 36.67,-62.02 8.8,-22.08 14.37,-45.49 17.12,-69.91l0 0c3.28,-26.3 1.53,-53.56 -4.72,-79.8 -6.28,-26.41 -17.12,-51.78 -31.93,-74.09 -1.26,-1.91 -2.63,-4.07 -4.05,-6.34 -7.94,-12.65 -17.96,-28.58 -31.65,-30.92l-0.19 -0.04 -0.1 -0.19c-1.41,-3 -2.8,-5.17 -4.49,-7.14 -1.46,-1.68 -3.13,-3.21 -5.26,-4.98zm0.63 3.44c-0.67,-1.34 -1.22,-2.72 -1.9,-4.56l-0.51 -1.37 1.14 0.93c2.7,2.21 4.76,4 6.5,6.02 1.71,1.98 3.11,4.16 4.52,7.14 13.94,2.53 24,18.53 31.99,31.25 1.4,2.22 2.72,4.34 4.04,6.33 14.86,22.38 25.72,47.85 32.04,74.34 6.26,26.33 8.03,53.68 4.73,80.07 -2.76,24.49 -8.34,47.96 -17.18,70.11 -8.84,22.16 -20.95,43 -36.79,62.24 -31.76,38.58 -75.71,64.96 -123.34,77.41 -48.14,12.56 -100.04,10.89 -146.95,-6.83 -32.17,-12.2 -61.35,-31.09 -85.48,-54.99 -23.83,-23.62 -42.75,-52.14 -54.76,-83.98 -0.46,-1.23 -1,-2.63 -1.56,-4.12 -6.58,-17.14 -16.73,-43.63 -10.39,-60.02l0.54 -1.38 0.23 1.45c1,6.26 2.62,10.58 5.58,13.06 2.95,2.46 7.31,3.11 13.78,2.03l0.37 -0.07 0.09 0.36 2.08 8.33 3.96 -1.97 0.43 -0.22 0.13 0.45c1.79,6.01 3.92,12.01 6.06,18 2.8,7.9 5.62,15.83 7.68,23.86 1.06,4.11 1.95,7.98 2.81,11.72 2.7,11.73 5.15,22.32 11.32,34.45l0 0 0.92 1.81c4.6,9.14 11.44,22.73 21.56,24.88 13.22,2.79 16.15,-8.16 18.92,-18.49 1.21,-4.5 2.38,-8.9 4.36,-12.07l0.01 0c1.37,-2.15 3.13,-3.81 4.83,-5.41 2.98,-2.81 5.81,-5.48 6.02,-10.38 0.21,-4.64 -1.09,-8.98 -2.38,-13.23 -2.08,-6.88 -4.09,-13.57 0.16,-21.25l0 0c4.2,-7.44 9.48,-13.21 14.66,-18.86 8.18,-8.91 16.09,-17.52 18.9,-31.99 -4.21,1.08 -8.44,2.03 -12.64,2.76 -4.42,0.77 -8.85,1.31 -13.27,1.5l-0.27 0.01 -0.12 -0.26c-2.33,-6.01 -6.04,-10.62 -9.83,-15.31 -2.37,-2.92 -4.75,-5.88 -6.87,-9.25 -2.62,-4.18 -4.12,-8.59 -5.66,-13.07 -0.72,-2.13 -1.45,-4.27 -2.31,-6.4l0 0c-0.71,-1.64 -1.5,-3.19 -2.26,-4.68 -3,-5.92 -5.66,-11.17 -1.67,-17.71l0.36 -0.57 0.33 0.58c5.51,9.47 10.99,19.1 15.94,29 4.88,9.77 9.25,19.78 12.59,30.11 2.61,-1.19 5.84,-2.46 9.4,-3.87 16.07,-6.34 38.81,-15.32 40.43,-30.77 0.32,-3.5 -1.87,-6.86 -4.12,-10.33 -1.81,-2.79 -3.67,-5.64 -4.36,-8.73 -2.62,2.51 -5.04,4.57 -7.65,6.27 -2.82,1.81 -5.85,3.21 -9.6,4.32l-0.52 0.15 0 -0.53 0 -8.5c-3.94,-0.92 -6.68,-2.91 -8.7,-5.61 -2.07,-2.75 -3.38,-6.21 -4.49,-10.01l-0.18 -0.62 0.63 0.12c5.28,0.93 9.12,3.45 12.84,5.89 5.06,3.31 9.89,6.48 17.86,5.12l0.19 -0.03 0.14 0.13c6.28,5.93 12.83,5.93 19.77,5.92 4.76,-0.01 9.72,-0.01 14.94,1.85l0.01 0c6.42,2.44 11.49,8.41 16.15,13.88 1.27,1.5 2.51,2.96 3.74,4.3l0.04 -0.11c0.44,-1.34 0.65,-2.02 1.15,-2.51 0.49,-0.48 1.16,-0.71 2.5,-1.14l0.76 -0.26 0.38 -0.12 0.13 0.38c2.59,7.65 5.7,15.31 8.81,22.95 3.98,9.79 7.95,19.57 10.85,29.39 7.55,-5.29 8.86,-10.82 10.31,-17.02 0.91,-3.93 1.9,-8.13 4.54,-12.75l0 0c3.04,-5.23 7.6,-9.71 12.19,-14.21 3.49,-3.42 7.01,-6.87 9.86,-10.68l0.12 -0.16 0.19 0c2.64,0 4.76,-0.4 6.76,-1.13l0 0c2.03,-0.74 3.97,-1.83 6.25,-3.21l0.34 -0.2 0.21 0.33c0.97,1.53 1.95,3.02 2.93,4.48 4.93,7.46 9.51,14.39 10.29,23.79l10.51 -4.21 0.36 -0.14 0.16 0.35c3.19,7.22 4.85,14.66 6.48,21.93 3.05,13.68 5.99,26.78 18.87,36.66 -1.87,-6.33 -4.72,-11.48 -7.44,-16.42 -4.72,-8.54 -9.1,-16.48 -7.66,-28.84l0.06 -0.6 0.54 0.29c3.99,2.29 7.69,4.51 10.76,7.27 2.97,2.66 5.34,5.82 6.83,10.01l1.27 -1.13c6.85,-6.03 14.03,-12.34 9.2,-22.23l0 0c-0.95,-1.98 -2.43,-3.89 -3.93,-5.82 -2.76,-3.55 -5.58,-7.19 -5.46,-11.74 0.05,-1.95 0.49,-3.45 1.21,-4.57l-0.01 0c0.66,-1.03 1.54,-1.74 2.57,-2.18 1.01,-0.44 2.16,-0.61 3.34,-0.59 2.34,0.07 4.89,0.94 6.94,2.18 3.37,-4.63 7.69,-7.45 11.91,-10.22 6.32,-4.15 12.47,-8.17 14.85,-17.98 1.96,-8.13 -0.49,-14.86 -2.85,-21.31 -2.87,-7.83 -5.59,-15.27 -0.3,-24.4 -3.42,0.17 -6.07,0.12 -8.61,-0.44 -2.73,-0.62 -5.31,-1.85 -8.52,-4.07l-0.35 -0.24 0.27 -0.34c1.69,-2.18 3.36,-4.11 5.15,-5.91 1.79,-1.81 3.71,-3.48 5.92,-5.17l0.66 -0.49 0 0.81 0 10.34c1.77,-0.96 3.24,-1.69 4.78,-2.33 1.7,-0.7 3.46,-1.25 5.73,-1.8l0.39 -0.09 0.09 0.38c0.96,3.8 2.54,7.13 4.12,10.42 1.94,4.07 3.87,8.1 4.58,12.95 5.52,-6.96 1.81,-12.6 -2.6,-19.28 -0.8,-1.23 -1.64,-2.49 -2.42,-3.78l-0.13 -0.2 0.12 -0.21c2.06,-3.68 3.47,-7.32 4.94,-11.15 0.55,-1.43 1.11,-2.89 1.65,-4.21l0.15 -0.4 0.39 0.19 3.97 1.98c1.71,-7.16 0.99,-13.89 0.29,-20.56 -0.57,-5.41 -1.14,-10.79 -0.42,-16.35l0.14 -1.18 0.59 1.04 7.13 12.46c-1.6,-4.75 -3.91,-9.11 -6.26,-13.53 -1.25,-2.34 -2.51,-4.71 -3.67,-7.18 -8.17,-0.9 -13.7,-3.7 -17.2,-8.21 -3.52,-4.53 -4.97,-10.79 -4.97,-18.58l0 -0.41 0.41 0.01c3.71,0.1 7,0.49 10.21,1.22l0 0c2.84,0.63 5.61,1.53 8.58,2.73 -0.76,-1.2 -1.34,-2.22 -1.85,-3.26z"/>
    <path class="fil5" d="M536.95 556.61c3.75,12.67 12.21,22.44 19.81,33.04 0,-12.46 -10.36,-25.74 -19.81,-33.04zm-11.01 15.42l0 0 2.19 2.2 -2.19 -2.2zm-330.34 11.01l0 0 2.21 2.2 -2.21 -2.2zm345.74 15.42l0 0c1.52,3.48 1.78,3.91 4.42,6.6 -1.53,-3.05 -2.21,-4.09 -4.42,-6.6z"/>
    <path class="fil4" d="M537.71 557.72c3.19,9.83 9.22,17.95 15.32,26.18 1.1,1.48 2.2,2.96 3.3,4.46 -0.29,-5.16 -2.33,-10.43 -5.26,-15.32 -3.58,-5.99 -8.55,-11.39 -13.36,-15.32zm14.68 26.65c-6.4,-8.62 -12.71,-17.14 -15.83,-27.64l-0.35 -1.18 0.97 0.75c5.21,4.02 10.69,9.83 14.58,16.33 3.25,5.41 5.4,11.29 5.4,17.02l0 1.24 -0.72 -1.01c-1.33,-1.86 -2.7,-3.69 -4.05,-5.51zm-26.18 -12.62l2.21 2.2 -0.56 0.56 -2.21 -2.2 0.56 -0.56zm-330.32 11.01l2.19 2.2 -0.56 0.56 -2.19 -2.2 0.56 -0.56zm347.19 18.43c0.12,0.23 0.25,0.44 0.38,0.65 0.13,0.2 0.26,0.39 0.43,0.58 -0.14,-0.22 -0.27,-0.43 -0.42,-0.64 -0.13,-0.2 -0.26,-0.39 -0.39,-0.59zm-0.29 1.08c-0.6,-0.89 -1.04,-1.89 -1.81,-3.66l-1 -2.31 1.66 1.89c1.11,1.27 1.85,2.17 2.5,3.14 0.65,0.98 1.2,2.02 1.97,3.56l1.13 2.27 -1.77 -1.82c-1.33,-1.36 -2.07,-2.16 -2.68,-3.07z"/>
    <path class="fil3" d="M155.96 609.47l-4.4 11.01c4.39,-3.3 5.54,-5.6 4.4,-11.01zm103.51 39.64l0 0c6.06,2.93 10.89,4.4 17.62,4.4 -1.09,-10.76 -3.97,-22.02 -13.21,-28.62l6.6 -13.22c-2.21,0.24 -4.84,0.16 -6.92,0.95 -17.86,6.82 -1.37,23.29 -4.09,36.49z"/>
    <path class="fil4" d="M155.82 610.91l-3.34 8.33c1.47,-1.22 2.45,-2.35 2.99,-3.63 0.53,-1.29 0.64,-2.77 0.35,-4.7zm-4.63 9.42l4.41 -11.01 0.48 -1.22 0.28 1.29c0.58,2.79 0.57,4.79 -0.15,6.53 -0.73,1.74 -2.17,3.19 -4.41,4.88l-1.14 0.85 0.53 -1.32zm108.73 28.55c2.9,1.39 5.51,2.43 8.21,3.14 2.64,0.69 5.37,1.06 8.51,1.09 -0.55,-5.2 -1.53,-10.51 -3.47,-15.32 -1.98,-4.92 -4.98,-9.33 -9.53,-12.58l-0.27 -0.2 0.14 -0.31 6.28 -12.56c-0.38,0.03 -0.76,0.06 -1.15,0.08 -1.7,0.11 -3.48,0.22 -4.94,0.78 -10.95,4.18 -8.54,12.19 -5.97,20.78 1.52,5.02 3.09,10.25 2.19,15.1zm8.01 3.92c-2.84,-0.75 -5.58,-1.86 -8.63,-3.33l-0.29 -0.14 0.07 -0.3c0.98,-4.74 -0.6,-9.98 -2.11,-15.02 -2.69,-8.96 -5.2,-17.32 6.45,-21.76l0 0c1.57,-0.6 3.41,-0.71 5.16,-0.83 0.65,-0.04 1.29,-0.08 1.85,-0.14l0.72 -0.08 -0.32 0.65 -6.46 12.91c4.55,3.33 7.55,7.79 9.54,12.73 2.03,5.03 3.02,10.57 3.57,15.98l0.04 0.44 -0.43 0c-3.4,0 -6.32,-0.38 -9.16,-1.11z"/>
    <path class="fil5" d="M545.76 611.67c1.25,5.23 1.95,10.04 2.2,15.42 4,-3 2.2,-3.29 6.6,-2.2l2.2 -8.82 -11 -4.4z"/>
    <path class="fil4" d="M546.32 612.33c0.55,2.37 0.98,4.65 1.31,6.94 0.34,2.3 0.56,4.61 0.68,7.04 0.75,-0.6 1.23,-1.05 1.61,-1.4 0.51,-0.48 0.82,-0.77 1.25,-0.92l0 0c0.62,-0.2 1.3,-0.03 2.99,0.38l0.11 0.03 2.03 -8.08 -9.98 -3.99zm0.52 7.05c-0.36,-2.52 -0.85,-5.02 -1.47,-7.62l-0.18 -0.74 0.71 0.28 11.01 4.41 0.32 0.13 -0.08 0.33 -2.2 8.81 -0.1 0.38 -0.38 -0.09 -0.51 -0.12c-1.52,-0.38 -2.13,-0.53 -2.54,-0.4l0 0c-0.27,0.09 -0.52,0.33 -0.96,0.74 -0.48,0.45 -1.15,1.08 -2.27,1.92l-0.6 0.45 -0.04 -0.75c-0.11,-2.67 -0.35,-5.21 -0.71,-7.73z"/>
    <path class="fil3" d="M217.62 620.48l0 8.81c-2.78,-4.12 -4.64,-6.15 -8.8,-8.81 -4.52,7.2 -7.49,13.6 -8.81,22.02 11.01,-1.35 33.69,0.28 37.44,-11.01 -5.9,-2.63 -11.33,-5.18 -17.63,-6.6 4.12,-2.8 6.16,-4.41 8.81,-8.82 -4.4,1.21 -7.16,2.45 -11.01,4.41zm-59.46 0l0 0c-22.92,17.62 -28.63,58.5 -28.63,85.89 4.33,-8.08 4.41,-18.09 9.43,-25.86 5.08,-7.93 15.5,-11.98 23.62,-15.99l-2.21 13.21 19.81 8.82 2.21 -11.02c17.62,6.61 41.34,8.41 37.43,-17.61 -14.14,4.4 -21.61,1.6 -24.22,-13.22l-8.8 4.41c1.11,6.08 0.7,7.73 -2.21,13.21 -2.89,-10.92 -6.6,-19.55 -13.21,-28.63 -2.21,8.27 4.21,15.59 4.41,24.23 -3.87,-5.82 -7.86,-11.4 -11.02,-17.62 -12.2,8.15 -14.3,24.22 -26.42,30.83 2.2,-17.62 18.86,-33.03 19.81,-50.65z"/>
    <path class="fil4" d="M218.03 620.72l0 8.57 0 1.29 -0.73 -1.06c-1.39,-2.04 -2.54,-3.57 -3.85,-4.91 -1.24,-1.25 -2.64,-2.36 -4.51,-3.58 -2.16,3.46 -3.95,6.74 -5.36,10.15 -1.4,3.38 -2.44,6.9 -3.1,10.87 2.17,-0.25 4.76,-0.39 7.53,-0.54 11.26,-0.62 25.79,-1.43 28.94,-9.8l-1.12 -0.51c-5.34,-2.38 -10.36,-4.62 -16.09,-5.93l-0.9 -0.2 0.77 -0.51c2.04,-1.39 3.56,-2.48 4.89,-3.76 1.14,-1.1 2.17,-2.35 3.26,-4.06 -1.75,0.51 -3.25,1.04 -4.69,1.62l0 0c-1.63,0.67 -3.22,1.43 -5.04,2.36zm-0.8 7.29l0 -7.53 0 -0.25 0.21 -0.11c1.92,-0.98 3.58,-1.78 5.33,-2.49 1.73,-0.71 3.54,-1.33 5.76,-1.93l0.97 -0.26 -0.52 0.85c-1.35,2.22 -2.54,3.76 -3.93,5.08 -1.2,1.16 -2.54,2.16 -4.25,3.33 5.44,1.35 10.25,3.5 15.34,5.78l1.47 0.65 0.33 0.14 -0.11 0.35c-3.06,9.22 -18.13,10.05 -29.78,10.69 -2.98,0.16 -5.74,0.31 -7.99,0.59l-0.52 0.07 0.08 -0.53c0.65,-4.24 1.74,-7.98 3.22,-11.56 1.48,-3.58 3.37,-7 5.63,-10.62l0.22 -0.33 0.34 0.21c2.11,1.35 3.64,2.54 4.98,3.92 1.12,1.13 2.12,2.39 3.22,3.95zm-59.52 -6.67c-9.38,7.53 -15.79,19.05 -20.07,31.87 -5.63,16.91 -7.57,36.1 -7.7,51.44 1.52,-3.28 2.46,-6.85 3.4,-10.41 1.28,-4.86 2.55,-9.71 5.28,-13.94 4.43,-6.91 12.79,-10.89 20.24,-14.43 1.21,-0.58 2.4,-1.15 3.54,-1.7l0.69 -0.35 -0.13 0.77 -2.16 12.91 19.09 8.48 2.11 -10.52 0.09 -0.46 0.43 0.16c7.91,2.97 17.06,4.96 24.33,3.87 2.74,-0.42 5.23,-1.27 7.27,-2.69l0 0c2.01,-1.4 3.61,-3.36 4.6,-6 1.13,-3.02 1.48,-6.93 0.78,-11.9 -6.95,2.11 -12.31,2.44 -16.29,0.43 -3.99,-2 -6.55,-6.34 -7.91,-13.57l-8.06 4.03c0.53,2.93 0.67,4.83 0.36,6.68 -0.34,1.91 -1.18,3.72 -2.66,6.5l-0.48 0.9 -0.25 -0.99c-1.45,-5.44 -3.1,-10.31 -5.19,-14.94 -2,-4.39 -4.41,-8.58 -7.44,-12.84 -0.85,4.3 0.6,8.4 2.08,12.6 1.21,3.42 2.44,6.91 2.53,10.67l0.03 1.37 -0.77 -1.14c-0.63,-0.96 -1.39,-2.08 -2.13,-3.19 -3.09,-4.58 -6.15,-9.11 -8.7,-14.06 -5.64,3.9 -9.08,9.57 -12.45,15.11 -3.7,6.09 -7.31,12.03 -13.63,15.48l-0.69 0.37 0.1 -0.77c1.07,-8.54 5.5,-16.55 9.9,-24.52 4.56,-8.26 9.12,-16.49 9.86,-25.22zm-20.82 31.63c4.43,-13.29 11.14,-25.2 21.03,-32.81l0.7 -0.53 -0.05 0.86c-0.51,9.24 -5.26,17.84 -10.01,26.45 -4.25,7.66 -8.49,15.34 -9.7,23.44 5.71,-3.4 9.13,-9.03 12.63,-14.79 3.49,-5.74 7.06,-11.61 13.06,-15.62l0.37 -0.25 0.21 0.4c2.55,5.04 5.69,9.69 8.84,14.38l1.32 1.96c-0.31,-3.09 -1.35,-6.04 -2.39,-8.95 -1.61,-4.59 -3.19,-9.07 -1.91,-13.92l0.21 -0.81 0.51 0.68c3.32,4.56 5.91,9.01 8.03,13.69 2,4.4 3.58,9 4.98,14.09 1.14,-2.21 1.8,-3.77 2.08,-5.37 0.33,-1.8 0.14,-3.7 -0.39,-6.69l-0.06 -0.3 0.27 -0.13 8.81 -4.4 0.47 -0.24 0.09 0.53c1.28,7.27 3.73,11.59 7.59,13.52 3.85,1.95 9.16,1.55 16.13,-0.62l0.45 -0.14 0.07 0.46c0.79,5.33 0.44,9.52 -0.77,12.76 -1.04,2.79 -2.74,4.89 -4.89,6.38 -2.14,1.49 -4.74,2.39 -7.61,2.81 -7.28,1.1 -16.36,-0.83 -24.27,-3.73l-2.11 10.54 -0.1 0.49 -0.45 -0.2 -19.83 -8.81 -0.28 -0.12 0.06 -0.31 2.06 -12.45c-0.92,0.46 -1.88,0.91 -2.85,1.37 -7.35,3.49 -15.6,7.42 -19.9,14.14l0 0c-2.66,4.12 -3.92,8.92 -5.18,13.71 -1.1,4.17 -2.21,8.34 -4.22,12.11l-0.76 1.41 0 -1.59c0,-15.67 1.87,-35.76 7.76,-53.4z"/>
    <path class="fil5" d="M550.16 631.49c3.01,13.25 -1.74,17.78 -11.02,26.43 1.44,2.86 0,2.2 4.41,2.2l0 4.4c-3.26,-2.17 -2.64,-2.2 -6.6,-2.2 1.3,3.43 2.19,5.78 4.39,8.81 9.43,-10.61 27.97,-27.27 8.82,-39.64z"/>
    <path class="fil4" d="M550.76 632.38c1.27,6.19 0.77,10.47 -1.14,14.23 -1.98,3.87 -5.43,7.14 -9.98,11.4 0.23,0.49 0.37,0.86 0.48,1.15 0.15,0.35 0.22,0.54 0.3,0.58 0.14,0.07 0.46,0.05 1.13,0.03 0.5,-0.02 1.15,-0.05 2,-0.05l0.41 0 0 0.4 0 4.4 0 0.75 -0.63 -0.42c-0.43,-0.29 -0.83,-0.56 -1.18,-0.8 -1.78,-1.23 -1.92,-1.32 -4.63,-1.33 1.14,2.96 2.02,5.13 3.86,7.77 0.82,-0.91 1.69,-1.86 2.58,-2.83 3.41,-3.71 7.29,-7.93 10.12,-12.31 4.99,-7.72 6.72,-16.02 -3.32,-22.97zm-1.86 13.87c1.93,-3.79 2.35,-8.15 0.87,-14.67l-0.22 -0.95 0.83 0.52c11.48,7.42 9.73,16.34 4.38,24.63 -2.88,4.44 -6.78,8.69 -10.21,12.42 -1.04,1.12 -2.03,2.2 -2.91,3.2l-0.32 0.37 -0.29 -0.41c-2.22,-3.05 -3.12,-5.4 -4.42,-8.81l0 0 -0.04 -0.08 -0.2 -0.55 0.57 0c3.53,0 3.55,0.03 5.67,1.48l0.55 0.37 0 -3.24c-0.68,0 -1.18,0.02 -1.58,0.03 -0.8,0.04 -1.19,0.05 -1.52,-0.11 -0.35,-0.18 -0.47,-0.46 -0.68,-1.01 -0.12,-0.33 -0.3,-0.76 -0.59,-1.35l-0.13 -0.26 0.21 -0.21c4.6,-4.29 8.09,-7.56 10.03,-11.37z"/>
    <path class="fil8" d="M199.27 645.44c-0.98,0.98 1.35,0.86 1.47,0.73 0.98,-0.98 -1.35,-0.86 -1.47,-0.73z"/>
    <g>
     <path class="fil5" d="M160.37 646.91l2.21 2.2 -2.21 -2.2zm0 4.4l0 0 -2.21 6.61c3.9,-2.16 4.31,-2.69 2.21,-6.61zm11.01 6.61l0 0 -6.61 4.4c4.4,0.61 6.61,0.71 6.61,-4.4z"/>
    </g>
    <line class="fil9" x1="545.76" y1="657.92" x2="547.96" y2= "660.12" />
    <path class="fil5" d="M215.43 662.32l-4.41 2.2c3.19,1.23 4.41,1.33 4.41,-2.2zm-24.97 5.14l0 0c-0.98,0.98 1.35,0.86 1.48,0.73 0.98,-0.97 -1.36,-0.86 -1.48,-0.73z"/>
    <line class="fil9" x1="213.22" y1="688.75" x2="215.43" y2= "690.95" />
    <path class="fil5" d="M519.32 697.56c-1.05,5.2 -1.14,8.06 0,13.21 2.1,-5.03 2.1,-8.18 0,-13.21z"/>
    <path class="fil3" d="M130.34 708.57l0 24.22c3.16,-7.51 3.16,-16.71 0,-24.22zm211.41 0l0 0 2.21 2.2 -2.21 -2.2z"/>
    <path class="fil5" d="M484.1 726.18c4.4,-1.97 4.4,-1.92 6.59,-6.6 -5.2,1.06 -5.53,1.4 -6.59,6.6zm37.43 -2.2l0 0c-1.62,9.14 -1.41,15.62 2.2,24.23 2.21,-3.34 2.01,-3.81 6.6,-4.41 -1.49,3.48 -1.77,3.91 -4.39,6.61l2.19 8.81c2.06,-4.04 3.79,-7.42 6.61,-11.01l-2.2 6.6c5.05,-7.12 0.98,-11.01 -6.6,-13.21 0.73,-7.74 1.07,-11.92 -4.41,-17.62zm-91.76 23.49l0 0c-0.12,0.12 -0.24,2.45 0.74,1.47 0.12,-0.12 0.25,-2.45 -0.74,-1.47zm89.55 0.74l0 0 2.21 2.2 -2.21 -2.2zm-2.2 6.6l0 0 2.2 2.21 -2.2 -2.21zm15.42 2.21l0 0 2.2 6.6c-4.41,-2.81 -2.39,-2.81 -6.61,0l6.61 8.81c4.39,-6.5 4.21,-10.74 -2.2,-15.41zm-17.62 2.2l0 0 -2.2 4.4c2.78,-2.13 3.07,-1.53 2.2,-4.4zm-132.13 2.2l0 0c-1.68,6.05 -1.68,9.37 0,15.41l4.41 0 2.19 -2.2c-1.55,-5.31 -3.13,-8.81 -6.6,-13.21zm127.73 8.81l0 0c-7.02,8.05 -14.49,15.41 -24.22,19.82 0.47,8.8 8.8,26.43 19.81,15.73 7.35,-6.5 8.26,-17.93 6.61,-26.74l6.6 -2.21 -4.4 -6.6 -4.4 0zm-72.67 6.6l0 0c9.29,13.36 20.46,37.02 37.43,39.65 1.16,9.28 16.08,8.8 24.23,8.8l0 -6.6c-12.65,0 -23.77,0 -22.03,-15.42l-6.6 2.21c-3.86,-14.47 -18.27,-26.43 -33.03,-28.64zm94.69 8.81l0 0c-5.76,2.5 -9.78,3.58 -13.22,8.81 5.6,-1.51 14.34,-1.99 13.22,-8.81zm9.55 1.47l0 0c-0.12,0.12 -0.25,2.45 0.73,1.47 0.13,-0.12 0.24,-2.44 -0.73,-1.47zm5.87 2.94l0 0c3.31,8.1 7.5,11.77 15.4,15.42l-2.19 8.8 8.81 0c4.39,-5.05 5.48,-2.2 11.01,0 -2.97,-14.07 -9.45,-24.75 -24.23,-15.42l-2.2 -8.8 -6.6 0zm-101.3 2.2l0 0 2.2 2.2 -2.2 -2.2zm24.22 0l0 0 2.21 2.2 -2.21 -2.2zm44.04 19.82l0 0c3.56,-2.89 3.73,-4.13 4.4,-8.81 2.62,2.28 3.53,2.95 6.62,4.41l-2.21 -8.82 6.6 -2.2c-11.49,-2.6 -14.33,5.58 -15.41,15.42zm-44.04 -15.42l0 0 2.21 2.2 -2.21 -2.2zm114.51 0l0 0 -4.4 2.2c3.19,1.23 4.4,1.34 4.4,-2.2zm-44.05 2.2l0 0 0 4.41 6.62 0c-2.7,-2.63 -3.13,-2.9 -6.62,-4.41zm-89.55 3.68l0 0c-0.12,0.12 -0.24,2.44 0.73,1.47 0.13,-0.13 0.26,-2.46 -0.73,-1.47zm82.95 -1.47l0 0 0 4.41 4.4 0 0 -4.41 -4.4 0zm-53.58 5.14l0 0c-0.98,0.98 1.35,0.85 1.46,0.73 0.98,-0.98 -1.34,-0.85 -1.46,-0.73zm51.38 10.28l0 0 -8.81 11.01c5.54,-2.75 8.81,-4.41 8.81,-11.01zm-22.02 4.4l0 0 -8.81 2.2c4.4,1.71 6.27,1.3 11.01,0l-2.2 -2.2zm4.4 0l0 0c3.31,1.51 5.1,1.82 8.81,2.2 -3.31,-1.5 -5.09,-1.82 -8.81,-2.2zm50.65 0l0 0c-1.63,6.87 -4.4,13.24 -6.6,19.82l-8.81 -4.41 6.6 -11.01 -11 0c-3.44,4.41 -6.62,8.21 -8.81,13.22 -8.91,0 -12.1,2.94 -15.42,11.01 -9.33,1.79 -29.95,15.42 -34.11,24.32 -4.87,10.52 -4.55,22.22 -9.94,32.93 19.35,-1.97 33.04,-15.24 52.85,-15.41l-2.2 8.81c24.16,-12.53 53.48,-51.19 37.44,-79.28zm-51.39 5.14l0 0c-0.97,0.98 1.36,0.86 1.48,0.73 0.98,-0.98 -1.35,-0.86 -1.48,-0.73zm-243.7 12.48l0 0c-10.58,9.39 -28.9,34.34 -4.41,39.64 3.8,-11.87 11.81,-28.31 4.41,-39.64zm22.02 28.63l0 0 -1.2 -1.72 1.2 1.72z"/>
    <path class="fil4" d="M484.43 726.47l-0.17 0.08 -0.71 0.31 0.16 -0.76c0.54,-2.68 0.9,-4.11 1.85,-5.05l0 0 0 0c0.95,-0.95 2.37,-1.32 5.05,-1.86l0.79 -0.16 -0.34 0.72c-2.24,4.75 -2.28,4.76 -6.63,6.72zm0.21 -0.97c3.36,-1.52 3.66,-1.79 5.36,-5.37 -2.03,0.43 -3.18,0.78 -3.87,1.48l0 0c-0.72,0.7 -1.06,1.85 -1.49,3.89zm37.15 -0.66c-0.71,4.2 -1.01,7.84 -0.73,11.42 0.29,3.58 1.16,7.12 2.76,11.1l0.22 -0.34c1.58,-2.49 1.93,-3.02 5.75,-3.55 -1.15,-0.56 -2.49,-1.05 -3.96,-1.48l-0.32 -0.1 0.02 -0.32c0.37,-3.84 0.63,-6.8 0.14,-9.47 -0.45,-2.46 -1.58,-4.71 -3.88,-7.26zm-1.52 11.48c-0.31,-3.87 0.05,-7.8 0.86,-12.41l0.14 -0.77 0.55 0.57c2.8,2.91 4.11,5.45 4.64,8.25 0.5,2.7 0.26,5.61 -0.1,9.35 3.73,1.12 6.61,2.67 7.96,4.84 0.23,0.39 0.43,0.8 0.57,1.22l0.96 -1.22 -0.73 2.18 0 0.01c0.26,1.87 -0.4,4.09 -2.25,6.71l-0.8 1.13 0.7 0.51c3.3,2.41 5,4.73 5.31,7.3 0.32,2.56 -0.76,5.34 -3,8.66l-0.32 0.46 -0.34 -0.45 -6.6 -8.8 -0.25 -0.34 0.35 -0.23c0.84,-0.56 1.42,-1 1.86,-1.33l0 0c0.73,-0.56 1.11,-0.85 1.59,-0.85 0.47,0 0.87,0.28 1.64,0.85 0.28,0.19 0.6,0.43 0.99,0.69l-1.84 -5.51 -0.25 -0.75 -0.59 0.84 0.84 -2.54 1.4 -4.22c-0.75,1.09 -1.42,2.17 -2.05,3.28 -1.05,1.8 -1.99,3.64 -3.01,5.65l-0.49 0.95 -0.26 -1.04 -2.21 -8.81 -0.05 -0.21 0.16 -0.16c1.3,-1.33 2.01,-2.1 2.58,-2.95 0.49,-0.75 0.88,-1.57 1.46,-2.89 -3.27,0.48 -3.6,0.98 -4.99,3.16l0 0 -0.63 0.97 -0.41 0.63 -0.3 -0.69c-1.83,-4.35 -2.79,-8.16 -3.09,-12.04zm10.44 7.63l-0.01 0.01c-0.75,1.77 -1.22,2.76 -1.82,3.66 -0.57,0.87 -1.27,1.64 -2.5,2.91l1.88 7.55c0.85,-1.66 1.68,-3.22 2.54,-4.73 1.01,-1.74 2.12,-3.44 3.48,-5.19 -0.13,-0.57 -0.34,-1.09 -0.64,-1.59 -0.63,-1 -1.64,-1.87 -2.93,-2.62zm-100.66 3.81c-0.02,0.02 0,0.46 0.08,0.83 0,0.06 0.01,0.11 0.04,0.15 0,-0.02 0.02,-0.05 0.05,-0.09 0.02,-0.01 0,-0.45 -0.08,-0.83l-0.02 -0.14c-0.02,0.02 -0.04,0.04 -0.07,0.08zm-0.71 0.98c-0.1,-0.58 0.04,-1.45 0.15,-1.55l0 0c0.3,-0.31 0.59,-0.4 0.84,-0.34l0 0c0.19,0.05 0.35,0.18 0.45,0.37l0 0c0.07,0.13 0.12,0.29 0.15,0.46 0.11,0.57 -0.04,1.44 -0.14,1.54 -0.31,0.31 -0.59,0.4 -0.84,0.34l0 0c-0.21,-0.05 -0.36,-0.18 -0.46,-0.36l0 0c-0.08,-0.14 -0.12,-0.3 -0.15,-0.46zm90.27 -0.82l2.19 2.21 -0.56 0.56 -2.2 -2.2 0.57 -0.57zm-2.2 6.62l2.2 2.2 -0.57 0.56 -2.19 -2.2 0.56 -0.56zm15.92 3.59l1.79 5.37 0.36 1.06 -0.95 -0.6c-0.88,-0.57 -1.51,-1.02 -1.98,-1.36 -0.64,-0.45 -0.95,-0.69 -1.18,-0.69 -0.22,0 -0.52,0.23 -1.12,0.69l0 0c-0.39,0.29 -0.9,0.67 -1.54,1.12l6.01 8.02c1.94,-2.96 2.84,-5.42 2.58,-7.65 -0.26,-2.07 -1.53,-3.98 -3.97,-5.96zm-18.51 2.18l-1.01 2.03 0 0c1.05,-0.74 1.28,-0.9 1.01,-2.03zm-2.46 3.14l2.2 -4.41 0.46 -0.9 0.28 0.96c0.79,2.61 0.72,2.66 -1.03,3.89l0 0c-0.35,0.25 -0.8,0.55 -1.31,0.95l-1.37 1.05 0.77 -1.54zm-129.4 -1.15c-0.68,2.62 -1.03,4.72 -1.03,6.83 0,2.23 0.39,4.46 1.16,7.3l3.95 0 1.91 -1.92c-0.75,-2.53 -1.52,-4.65 -2.5,-6.65 -0.91,-1.86 -2.01,-3.63 -3.49,-5.56zm-1.83 6.83c0,-2.38 0.42,-4.76 1.28,-7.82l0.21 -0.76 0.48 0.62c1.76,2.23 3.03,4.22 4.06,6.34 1.04,2.11 1.83,4.33 2.62,7.01l0.07 0.22 -0.17 0.17 -2.21 2.2 -0.1 0.12 -0.17 0 -4.41 0 -0.3 0 -0.08 -0.29c-0.86,-3.06 -1.28,-5.43 -1.28,-7.81zm129.57 1.5c-3.49,3.99 -7.09,7.8 -11.01,11.18 -3.92,3.36 -8.19,6.28 -12.97,8.49 0.22,3.31 1.54,7.79 3.67,11.53 1.31,2.29 2.92,4.29 4.78,5.54 1.81,1.22 3.86,1.72 6.08,1.05 1.45,-0.43 2.99,-1.37 4.59,-2.93l0.01 -0.01c3.25,-2.87 5.22,-6.75 6.25,-10.92 1.26,-5.1 1.12,-10.67 0.22,-15.45l-0.05 -0.34 0.33 -0.11 6.1 -2.04 -4 -5.99 -4 0zm-11.53 10.57c3.93,-3.38 7.54,-7.22 11.05,-11.23l0.12 -0.14 0.18 0 4.4 0 0.21 0 0.12 0.18 4.41 6.6 0.29 0.43 -0.5 0.17 -6.28 2.1c0.86,4.8 0.96,10.34 -0.3,15.44 -1.07,4.31 -3.11,8.33 -6.48,11.32 -1.7,1.65 -3.34,2.65 -4.92,3.12 -2.46,0.74 -4.75,0.2 -6.75,-1.15 -1.96,-1.32 -3.65,-3.42 -5.02,-5.82 -2.25,-3.94 -3.62,-8.71 -3.81,-12.16l-0.01 -0.26 0.25 -0.12c4.82,-2.18 9.1,-5.1 13.04,-8.48zm-60.46 -3.82c1.62,2.4 3.35,5.12 5.14,7.97 8.15,12.96 18.01,28.64 31.49,30.73l0.3 0.05 0.04 0.3c1.07,8.51 14.5,8.48 22.69,8.46l0.73 0 0 -5.81c-12.55,-0.01 -23.49,-0.17 -22.07,-15.25l-6.02 2.01 -0.41 0.13 -0.1 -0.41c-1.88,-7.06 -6.33,-13.52 -12.09,-18.52 -5.67,-4.91 -12.63,-8.41 -19.7,-9.66zm4.46 8.4c-1.96,-3.13 -3.83,-6.1 -5.65,-8.72l-0.52 -0.75 0.9 0.13c7.54,1.12 15,4.78 21.03,10 5.77,5 10.24,11.45 12.22,18.51l6.21 -2.07 0.59 -0.2 -0.07 0.62c-1.69,14.98 9.22,14.98 21.63,14.98l0.4 0 0 0.4 0 6.6 0 0.4 -0.4 0 -1.14 0c-8.37,0.02 -22.02,0.06 -23.44,-8.86 -10.71,-1.82 -19.09,-11.82 -26.14,-22.3l-0.22 0.22 -2.2 -2.21 0.57 -0.56 0.5 0.5c-1.47,-2.25 -2.9,-4.51 -4.27,-6.69zm89.04 0.44c-0.57,0.25 -1.16,0.49 -1.74,0.73 -4.22,1.76 -7.45,3.1 -10.21,6.85 0.64,-0.15 1.32,-0.29 2,-0.45 4.89,-1.06 10.39,-2.26 9.95,-7.13zm-2.05 0c0.68,-0.29 1.41,-0.59 2.22,-0.94l0.47 -0.21 0.08 0.51c1,6.04 -5.1,7.38 -10.5,8.56 -1.05,0.22 -2.07,0.45 -3,0.7l-1.01 0.27 0.56 -0.87c3.05,-4.63 6.51,-6.08 11.18,-8.02zm12.21 1.17c-0.02,0.02 -0.01,0.47 0.07,0.85l0 0c0.01,0.05 0.01,0.1 0.03,0.14 0.01,-0.02 0.04,-0.04 0.06,-0.07 0.01,-0.02 0,-0.47 -0.06,-0.85 -0.02,-0.06 -0.03,-0.1 -0.04,-0.14 -0.02,0.01 -0.03,0.04 -0.06,0.07zm-0.72 0.99c-0.1,-0.58 0.04,-1.44 0.14,-1.54l0.01 -0.01c0.3,-0.31 0.59,-0.4 0.83,-0.34 0.2,0.04 0.36,0.17 0.46,0.36 0.07,0.13 0.12,0.29 0.16,0.47 0.11,0.57 -0.05,1.43 -0.14,1.53l0 0.01c-0.31,0.3 -0.59,0.4 -0.84,0.35 -0.21,-0.05 -0.35,-0.18 -0.46,-0.37 -0.07,-0.13 -0.13,-0.29 -0.16,-0.46zm6.91 2.06c1.57,3.73 3.36,6.47 5.66,8.7 2.41,2.36 5.4,4.16 9.31,5.96l0.3 0.13 -0.07 0.33 -2.07 8.32 8.11 0c3.47,-3.94 4.99,-3.14 8.09,-1.51 0.74,0.38 1.57,0.82 2.55,1.25 -1.47,-6.66 -3.76,-12.45 -7.39,-15.53 -3.71,-3.14 -8.86,-3.45 -16.07,1.11l-0.47 0.29 -0.13 -0.54 -2.13 -8.51 -5.69 0zm5.1 9.27c-2.49,-2.42 -4.41,-5.41 -6.08,-9.51l-0.22 -0.55 0.6 0 6.6 0 0.32 0 0.07 0.3 2.07 8.29c7.32,-4.48 12.65,-4.06 16.54,-0.76 3.91,3.33 6.32,9.6 7.81,16.71l0.17 0.73 -0.69 -0.28c-1.32,-0.52 -2.41,-1.09 -3.32,-1.57l0 0c-2.78,-1.45 -4.11,-2.15 -7.25,1.47l-0.13 0.13 -0.17 0 -8.81 0 -0.5 0 0.12 -0.49 2.12 -8.5c-3.85,-1.79 -6.83,-3.61 -9.25,-5.97zm-82.49 -7.74l2.19 2.2 -0.57 0.57 -2.19 -2.21 0.57 -0.56zm44.26 19.15c2.7,-2.36 2.9,-3.71 3.48,-7.86l0 -0.01 0.02 -0.05 0.1 -0.72 0.55 0.48c1.3,1.13 2.16,1.85 3.1,2.49 0.77,0.5 1.57,0.95 2.66,1.48l-1.99 -7.98 -0.1 -0.35 0.36 -0.12 5.15 -1.72c-4.71,-0.72 -7.74,0.61 -9.73,3.18 -2.08,2.68 -3.05,6.71 -3.6,11.18zm4.19 -7.08c-0.62,4.21 -0.96,5.51 -4.45,8.34l-0.75 0.61 0.1 -0.96c0.55,-4.99 1.54,-9.56 3.88,-12.58 2.38,-3.07 6.1,-4.52 12.02,-3.18l1.39 0.31 -1.35 0.45 -6.25 2.09 2.12 8.45 0.19 0.82 -0.76 -0.37c-1.56,-0.73 -2.57,-1.27 -3.53,-1.91 -0.81,-0.55 -1.58,-1.18 -2.61,-2.07zm-48.45 -7.67l2.19 2.21 -0.57 0.56 -2.19 -2.21 0.57 -0.56zm113.81 0.94l-2.99 1.49c1.05,0.37 1.8,0.54 2.26,0.37 0.44,-0.17 0.67,-0.73 0.73,-1.86zm-4.17 1.19l4.41 -2.2 0.57 -0.29 0 0.64c0,1.96 -0.38,2.93 -1.26,3.26 -0.82,0.31 -1.99,-0.03 -3.68,-0.68l-0.85 -0.32 0.81 -0.41zm-39.06 0.96l0 3.4 5.23 0c-0.93,-0.88 -1.56,-1.43 -2.25,-1.89 -0.76,-0.51 -1.61,-0.91 -2.98,-1.51zm-0.8 3.8l0 -4.4 0 -0.61 0.55 0.25c1.77,0.75 2.77,1.2 3.67,1.8 0.91,0.61 1.7,1.34 3.06,2.67l0.71 0.69 -0.98 0 -6.62 0 -0.39 0 0 -0.4zm-88.88 -0.45c-0.02,0.02 0.01,0.46 0.08,0.84l0 0c0,0.05 0.02,0.1 0.03,0.14 0.01,-0.02 0.04,-0.04 0.06,-0.07 0.03,-0.04 0,-0.47 -0.07,-0.85 0,-0.05 -0.02,-0.1 -0.03,-0.14 -0.01,0.02 -0.04,0.04 -0.07,0.08zm-0.7 0.98c-0.12,-0.57 0.04,-1.44 0.14,-1.54 0.3,-0.31 0.59,-0.4 0.83,-0.35l0 0c0.2,0.05 0.35,0.18 0.47,0.37 0.06,0.13 0.12,0.29 0.14,0.45 0.12,0.58 -0.04,1.45 -0.13,1.55l-0.01 0.01c-0.31,0.31 -0.59,0.39 -0.84,0.34l0 0c-0.2,-0.05 -0.34,-0.18 -0.46,-0.37l0 0c-0.06,-0.13 -0.11,-0.29 -0.14,-0.46zm83.77 -2.33l0 3.6 3.6 0 0 -3.6 -3.6 0zm-0.79 4l0 -4.4 0 -0.4 0.39 0 4.4 0 0.41 0 0 0.4 0 4.4 0 0.4 -0.41 0 -4.4 0 -0.39 0 0 -0.4zm-52.9 1.02c-0.04,0.03 -0.07,0.05 -0.09,0.06 0.05,0.02 0.09,0.03 0.14,0.04 0.39,0.07 0.82,0.09 0.84,0.07l0.01 0c0.02,-0.03 0.05,-0.05 0.07,-0.06 -0.04,-0.01 -0.09,-0.03 -0.14,-0.03 -0.38,-0.08 -0.82,-0.1 -0.83,-0.08zm-0.92 0.27c-0.05,-0.24 0.04,-0.53 0.34,-0.83 0.11,-0.11 0.97,-0.26 1.55,-0.15 0.17,0.03 0.33,0.08 0.45,0.15 0.2,0.1 0.33,0.26 0.38,0.45 0.05,0.25 -0.04,0.54 -0.34,0.85l0 0c-0.13,0.1 -0.98,0.25 -1.54,0.14 -0.17,-0.03 -0.33,-0.08 -0.46,-0.15 -0.19,-0.11 -0.33,-0.25 -0.38,-0.46zm51.58 10.91l-6.93 8.66c1.97,-1.01 3.58,-1.95 4.75,-3.17 1.25,-1.3 2,-2.98 2.18,-5.49zm-8.69 9.57l8.82 -11 0.7 -0.89 0 1.14c0,3.41 -0.86,5.56 -2.44,7.22 -1.56,1.64 -3.79,2.75 -6.59,4.15l-1.61 0.79 1.12 -1.41zm-13.02 -5.91l-7.32 1.83c1.54,0.5 2.76,0.7 4,0.66 1.41,-0.04 2.88,-0.39 4.88,-0.93l-1.56 -1.56zm-8.79 1.38l8.81 -2.21 0.22 -0.06 0.16 0.16 2.2 2.21 0.49 0.48 -0.67 0.18c-2.4,0.66 -4.07,1.1 -5.73,1.15 -1.65,0.05 -3.27,-0.28 -5.53,-1.16l-1.16 -0.45 1.21 -0.3zm16.45 -1.02c0.41,0.12 0.8,0.23 1.21,0.33 0.43,0.1 0.86,0.19 1.3,0.26 -0.4,-0.12 -0.78,-0.23 -1.19,-0.32 -0.43,-0.1 -0.86,-0.19 -1.32,-0.27zm1.02 1.11c-1.33,-0.32 -2.64,-0.78 -4.32,-1.55l-2.22 -1.01 2.42 0.25c1.89,0.19 3.27,0.37 4.61,0.69 1.34,0.32 2.64,0.79 4.32,1.55l2.23 1.01 -2.43 -0.25c-1.87,-0.19 -3.27,-0.37 -4.61,-0.69zm46.65 -0.83c-1.1,4.28 -2.6,8.37 -4.11,12.46 -0.78,2.13 -1.56,4.28 -2.27,6.4l-0.15 0.44 -0.41 -0.2 -8.81 -4.41 -0.39 -0.2 0.23 -0.36 6.24 -10.41 -10.11 0 -0.92 1.18c-3.01,3.84 -5.77,7.35 -7.73,11.79l-0.1 0.25 -0.26 0c-4.36,0 -7.3,0.71 -9.55,2.4 -2.27,1.69 -3.86,4.39 -5.49,8.36l-0.08 0.2 -0.22 0.04c-4.83,0.93 -12.78,5.1 -19.86,10.14 -6.37,4.55 -12.01,9.79 -13.95,13.96l0 0c-2.32,5 -3.46,10.3 -4.6,15.63 -1.22,5.6 -2.43,11.24 -5.03,16.66 8.65,-1.02 16.19,-4.28 23.7,-7.54 8.92,-3.86 17.8,-7.71 28.47,-7.8l0.51 0 -0.12 0.49 -1.98 7.95c0.4,-0.22 0.78,-0.43 1.17,-0.66 11.64,-6.63 24.14,-19.02 31.98,-33.13 7.81,-14.07 10.98,-29.85 4,-43.31l-0.16 -0.33zm-4.85 12.18c1.61,-4.37 3.21,-8.75 4.3,-13.36l0.24 -0.98 0.49 0.88c0.24,0.41 0.47,0.83 0.68,1.24 7.13,13.74 3.93,29.78 -4.01,44.07 -7.9,14.23 -20.53,26.73 -32.28,33.44 -0.66,0.38 -1.33,0.74 -1.98,1.08l-0.79 0.41 0.22 -0.86 2.07 -8.31c-10.28,0.22 -18.95,3.97 -27.64,7.73 -7.78,3.37 -15.59,6.76 -24.66,7.68l-0.72 0.07 0.33 -0.64c2.77,-5.53 4.04,-11.35 5.27,-17.13 1.15,-5.37 2.3,-10.71 4.67,-15.8l0 0c2,-4.29 7.74,-9.65 14.22,-14.26 7.04,-5.03 14.99,-9.22 19.95,-10.24 1.66,-3.99 3.31,-6.74 5.66,-8.5 2.36,-1.77 5.39,-2.53 9.78,-2.56 1.99,-4.42 4.73,-7.92 7.72,-11.74l1.05 -1.32 0.11 -0.16 0.2 0 11 0 0.71 0 -0.37 0.6 -6.38 10.65 8.01 4.01c0.69,-2.03 1.42,-4.02 2.15,-6zm-46.4 -7.84c-0.04,0.03 -0.07,0.05 -0.08,0.06l0.13 0.04c0.38,0.07 0.84,0.08 0.85,0.07 0.03,-0.04 0.05,-0.05 0.08,-0.06 -0.05,-0.02 -0.09,-0.03 -0.14,-0.04 -0.38,-0.07 -0.83,-0.09 -0.84,-0.07zm-0.92 0.26c-0.05,-0.25 0.04,-0.52 0.35,-0.83 0.11,-0.1 0.96,-0.25 1.55,-0.14 0.17,0.03 0.33,0.08 0.45,0.15 0.19,0.1 0.32,0.25 0.37,0.45 0.06,0.25 -0.03,0.54 -0.35,0.85l0 0c-0.1,0.1 -0.97,0.25 -1.53,0.14 -0.17,-0.03 -0.34,-0.08 -0.48,-0.16 -0.18,-0.1 -0.32,-0.26 -0.36,-0.46zm-243.17 12.55c-4.17,3.79 -9.46,9.89 -12.81,16.2 -1.95,3.69 -3.25,7.44 -3.28,10.82 -0.02,3.34 1.22,6.32 4.28,8.53 1.77,1.28 4.13,2.3 7.22,3.01 0.59,-1.83 1.28,-3.73 1.96,-5.69 3.82,-10.74 8.37,-23.55 2.63,-32.87zm-13.52 15.82c3.5,-6.57 9.06,-12.92 13.35,-16.73l0.34 -0.31 0.25 0.39c6.33,9.68 1.63,22.9 -2.29,33.97 -0.75,2.11 -1.47,4.14 -2.07,6.01l-0.1 0.35 -0.36 -0.08c-3.38,-0.73 -5.96,-1.83 -7.87,-3.22 -3.31,-2.38 -4.63,-5.59 -4.6,-9.18 0.01,-3.52 1.35,-7.4 3.35,-11.2zm35.31 12.42l-1.21 -1.71 0.66 -0.45 1.2 1.7 -0.65 0.46z"/>
    <path class="fil2" d="M389.39 774.63c-1.25,-5.16 -3.62,-9.43 -6.6,-13.21 -1.7,5.46 -1.6,10.58 0,15.41l4.41 0 2.19 -2.2z"/>
    <path class="fil4" d="M388.95 774.51c-0.61,-2.46 -1.48,-4.72 -2.56,-6.82 -1,-1.93 -2.16,-3.72 -3.44,-5.41 -0.69,2.43 -1.01,4.79 -1,7.08 0.02,2.43 0.41,4.78 1.13,7.07l3.96 0 1.91 -1.92zm-1.86 -7.18c1.14,2.21 2.06,4.6 2.7,7.2l0.05 0.22 -0.16 0.16 -2.21 2.2 -0.1 0.12 -0.17 0 -4.41 0 -0.29 0 -0.09 -0.27c-0.81,-2.45 -1.24,-4.98 -1.26,-7.6 -0.01,-2.6 0.4,-5.29 1.26,-8.06l0.22 -0.72 0.47 0.59c1.51,1.91 2.87,3.95 3.99,6.16z"/>
    <path class="fil1" d="M201.15 928.46c-5.56,-3.13 -9.94,-7.44 -13.79,-12.48 134.7,-70.38 280.38,-199.16 406.51,-335.54l9.97 9.53c-120.48,124.78 -253.77,247.33 -402.69,338.49z"/>
    <path class="fil1" d="M114.93 586.32c2.27,-5.96 5.88,-10.94 10.3,-15.49 89.6,122.74 251.83,256.67 405.43,361.15l-12 8.74c-141.28,-100.61 -291.46,-220.67 -403.73,-354.4z"/>
    <path class="fil1" d="M285.72 474.54c-17.5,3.69 -34.67,9.92 -50.88,23.59 -11.42,153.98 -10.98,306.08 -0.23,456.53 13.13,7.61 27.7,14.79 40.17,16.12 -11.02,-163.41 -7.57,-329.16 10.94,-496.24z"/>
    <path class="fil10" d="M421.07 246.55c-2.33,-0.61 -3.36,0.08 -3.22,1.94l18.21 66.18 13.71 2.07 16.4 3.36 5.09 13.89 22.77 -7.55 35.11 8.57c1.61,0.05 2.46,-1.54 2.33,-5.2l-10.24 -72.33 -39.54 -4.9 -1.37 -1.45 -23.52 6.79 -2.61 0.19 -3.32 -8.06 -29.8 -3.5z"/>
    <polygon class="fil11" points="481.15,253.6 459.05,259.6 474.66,332.87 494.03,326.44 "/>
    <path class="fil12" d="M465.47 268.41l13.1 -3.01c1.27,-0.3 2.55,0.51 2.84,1.77l1.34 5.87c0.16,0.63 -0.24,1.27 -0.87,1.41l-16 3.68c-0.31,0.08 -0.62,-0.12 -0.7,-0.44l-1.48 -6.44c-0.3,-1.27 0.5,-2.55 1.77,-2.84z"/>
    <path class="fil12" d="M468.15 282.08l13.1 -3.02c1.27,-0.29 2.54,0.51 2.83,1.78l1.34 5.87c0.16,0.63 -0.25,1.27 -0.88,1.41l-15.99 3.68c-0.31,0.07 -0.63,-0.13 -0.69,-0.44l-1.48 -6.45c-0.3,-1.26 0.5,-2.54 1.77,-2.83z"/>
    <path class="fil12" d="M470.21 291.43l13.11 -3.02c1.26,-0.29 2.53,0.51 2.83,1.78l1.35 5.86c0.14,0.64 -0.26,1.27 -0.89,1.42l-15.98 3.68c-0.31,0.07 -0.64,-0.12 -0.71,-0.44l-1.48 -6.44c-0.29,-1.27 0.5,-2.55 1.77,-2.84z"/>
    <path class="fil12" d="M472.14 300.72l13.1 -3.02c1.27,-0.29 2.54,0.51 2.84,1.78l1.34 5.86c0.16,0.64 -0.25,1.27 -0.88,1.42l-15.99 3.68c-0.31,0.07 -0.62,-0.12 -0.7,-0.44l-1.48 -6.44c-0.3,-1.28 0.5,-2.55 1.77,-2.84z"/>
    <path class="fil12" d="M474.05 312.7l13.1 -3.02c1.27,-0.29 2.55,0.51 2.84,1.77l1.34 5.87c0.16,0.63 -0.25,1.27 -0.87,1.42l-16 3.67c-0.31,0.08 -0.63,-0.12 -0.7,-0.44l-1.48 -6.43c-0.3,-1.28 0.5,-2.55 1.77,-2.84z"/>
    <path class="fil12" d="M476.5 322.15l11.18 -2.57c1.09,-0.24 3.73,-0.16 3.98,0.92l1.15 5c0.13,0.54 -0.21,1.08 -0.76,1.22l-15.18 3.73c-0.28,0.07 -0.55,-0.11 -0.61,-0.38l-1.26 -5.49c-0.26,-1.08 0.42,-2.17 1.5,-2.43z"/>
    <path class="fil13" d="M467.27 260.13c0.89,-0.13 1.81,1.12 2.06,2.8 0.25,1.68 -0.25,3.16 -1.14,3.29 -0.88,0.13 -1.81,-1.12 -2.06,-2.81 -0.25,-1.68 0.26,-3.15 1.14,-3.28z"/>
    <polygon class="fil13" points="482.99,263.99 481.15,253.6 500.88,257.17 502.63,266.47 "/>
    <polygon class="fil13" points="484.9,274.45 483.06,264.06 502.63,266.47 504.19,276.6 "/>
    <polygon class="fil13" points="487.57,288.19 485.82,278.36 504.36,280.64 505.82,290.23 "/>
    <polygon class="fil13" points="488.98,298.26 487.24,288.43 505.77,290.71 507.24,300.3 "/>
    <polygon class="fil13" points="490.98,306.24 488.85,298.87 507.26,300.98 508.3,308.17 "/>
    <polygon class="fil14" points="492.51,317.84 491.14,310.12 508.82,313.6 510.3,321.28 "/>
    <polygon class="fil13" points="494.03,325.77 492.67,318.06 510.34,321.52 511.82,329.21 "/>
    <polygon class="fil13" points="503.64,266.45 502.45,257.26 520.66,259.53 522.12,268.78 "/>
    <polygon class="fil13" points="505.12,276.55 503.93,267.36 522.13,269.63 523.6,278.88 "/>
    <polygon class="fil13" points="506.89,290.21 505.74,281.11 524.01,284.08 525.48,293.34 "/>
    <polygon class="fil13" points="508.57,299.64 507.04,291.6 525.31,294.56 526.58,302.62 "/>
    <polygon class="fil13" points="509.84,308.55 508.29,300.5 526.56,303.47 527.83,311.52 "/>
    <polygon class="fil15" points="511.83,321.66 510.28,313.61 528.55,316.58 529.83,324.64 "/>
    <polygon class="fil16" points="513.38,329.79 512.35,322.76 528.91,325.77 530.02,332.67 "/>
    <path class="fil17" d="M477.25 241.38l3.54 6.52c0.64,1.18 -0.42,2.67 -1.71,3l-22.11 5.6c-1.3,0.33 -2.69,-0.41 -3,-1.72l-1.78 -7.33c-0.14,-0.64 0.17,-1.85 1.47,-2.2l17.81 -4.66c1.29,-0.35 5.14,-0.39 5.78,0.79z"/>
    <polygon class="fil18" points="457.16,244.89 455.72,240.96 456.52,240.67 457.96,244.59 "/>
    <polygon class="fil18" points="479.77,247.69 491.36,245.09 491.54,245.91 479.96,248.52 "/>
    <polygon class="fil19" points="457.63,257.75 473.73,333.28 472.07,333.63 455.98,258.1 "/>
    <polygon class="fil19" points="457.63,257.75 480.01,252.31 480.22,253.13 457.65,258.82 "/>
    <path class="fil1" d="M496.21 276.92c0.59,0.26 0.88,0.92 0.63,1.46 -0.24,0.55 -0.92,0.77 -1.52,0.5 -0.59,-0.26 -0.86,-0.91 -0.63,-1.46 0.25,-0.54 0.92,-0.76 1.52,-0.5z"/>
    <path class="fil12" d="M500.5 308.63c0.86,0.38 1.28,1.3 0.96,2.04 -0.34,0.76 -1.3,1.05 -2.16,0.67 -0.85,-0.38 -1.28,-1.3 -0.94,-2.04 0.32,-0.76 1.29,-1.05 2.14,-0.67z"/>
    <path class="fil12" d="M475.3 277.12c0.89,0.41 1.35,1.37 0.99,2.16 -0.35,0.79 -1.37,1.11 -2.27,0.71 -0.9,-0.41 -1.36,-1.37 -1,-2.17 0.35,-0.78 1.37,-1.1 2.28,-0.7z"/>
    <path class="fil12" d="M447.98 269.69c0.77,0.35 1.15,1.18 0.86,1.85 -0.31,0.68 -1.17,0.94 -1.94,0.6 -0.78,-0.35 -1.16,-1.17 -0.85,-1.85 0.3,-0.67 1.16,-0.94 1.93,-0.6z"/>
    <path class="fil20" d="M422.18 249.51l9.31 0.44c0.65,0.03 1.84,0.49 1.98,1.12l1.13 5.55 -12.33 -0.2 -1.52 -4.84c-0.28,-0.94 0.46,-2.12 1.43,-2.07z"/>
    <path class="fil20" d="M423.57 257.4l10.62 0.28c0.66,0.02 1.79,1.35 1.92,1.99l1.27 6.25 -12.65 -0.82 -1.53 -4.91c-0.3,-0.95 -0.63,-2.82 0.37,-2.79z"/>
    <path class="fil20" d="M438.8 251.42l9.31 0.43c0.64,0.04 1.84,0.5 1.96,1.13l1.26 6.15 -12.45 -0.8 -1.51 -4.84c-0.29,-0.94 0.45,-2.12 1.43,-2.07z"/>
    <path class="fil20" d="M440.13 259.35l10.68 0.6c0.69,0.03 1.17,1.58 1.31,2.26l1.33 6.5 -13.17 -0.85 -1.61 -5.12c-0.3,-0.99 0.43,-3.45 1.46,-3.39z"/>
    <path class="fil20" d="M428.46 271.08l9.46 0.45c0.66,0.03 1.87,0.5 2,1.14l1.27 6.24 -12.63 -0.81 -1.54 -4.91c-0.3,-0.95 0.45,-2.15 1.44,-2.11z"/>
    <path class="fil20" d="M430.12 278.82l9.74 0.82c0.66,0.06 1.87,0.5 2,1.15l1.28 6.24 -12.64 -0.82 -1.54 -4.91c-0.29,-0.95 0.17,-2.56 1.16,-2.48z"/>
    <path class="fil20" d="M432.33 287.14l9.61 0.36c0.66,0.03 1.82,0.96 1.95,1.61l1.28 6.24 -12.66 -0.82 -1.53 -4.91c-0.29,-0.95 0.35,-2.52 1.35,-2.48z"/>
    <path class="fil20" d="M443.9 272.4l9.44 0.44c0.67,0.03 1.87,0.5 2,1.15l1.29 6.24 -12.65 -0.81 -1.53 -4.92c-0.3,-0.95 0.46,-2.14 1.45,-2.1z"/>
    <path class="fil20" d="M445.21 280.43l9.61 0.4c0.65,0.03 1.68,0.82 1.82,1.47l1.27 6.24 -12.65 -0.82 -1.53 -4.91c-0.3,-0.95 0.49,-2.42 1.48,-2.38z"/>
    <path class="fil20" d="M447.42 288.83l9.71 0.52c0.67,0.03 1.82,1.15 1.96,1.8l1.28 6.24 -12.65 -0.81 -1.53 -4.92c-0.3,-0.94 0.23,-2.88 1.23,-2.83z"/>
    <path class="fil20" d="M450.71 301.56l9.46 0.44c0.67,0.03 1.87,0.49 2,1.14l1.27 6.25 -12.63 -0.82 -1.55 -4.92c-0.29,-0.94 0.46,-2.14 1.45,-2.09z"/>
    <path class="fil20" d="M435.39 298.85l9.47 0.45c0.65,0.03 1.87,0.5 2,1.14l1.27 6.25 -12.64 -0.82 -1.54 -4.92c-0.3,-0.94 0.46,-2.14 1.44,-2.1z"/>
    <path class="fil20" d="M437.36 306.73l9.58 0.2c0.65,0.01 1.76,0.74 1.88,1.39l1.28 6.24 -12.65 -0.82 -1.53 -4.92c-0.29,-0.94 0.46,-2.11 1.44,-2.09z"/>
    <path class="fil20" d="M452.21 309.56l9.45 0.43c0.67,0.04 1.87,0.51 2,1.15l1.27 6.24 -12.63 -0.81 -1.53 -4.92c-0.3,-0.94 0.45,-2.14 1.44,-2.09z"/>
    <polygon class="fil21" points="504.92,279.04 509.1,308.28 508.83,308.32 504.63,279.07 "/>
    <polygon class="fil18" points="476.7,256.31 473.43,250.54 474.16,250.12 477.43,255.89 "/>
    <path class="fil10" d="M676.77 426.65c-0.9,-2.32 -2.09,-2.77 -3.56,-1.53l-44.34 54.81 6.5 12.68 7.02 15.69 -8.55 12.58 19.92 14.46 13.87 34.44c0.92,1.35 2.75,1.11 5.72,-1.19l54.24 -51.82 -19.59 -35.93 0.4 -2.02 -19.74 -15.55 -1.72 -2.07 4.73 -7.59 -14.9 -26.96z"/>
    <polygon class="fil11" points="706.82,481 688.59,466.14 636.79,523.03 653.76,535.34 "/>
    <path class="fil12" d="M685.09 476.78l10.36 9.13c0.99,0.88 1.09,2.42 0.21,3.42l-4.09 4.64c-0.44,0.5 -1.21,0.55 -1.71,0.11l-12.64 -11.13c-0.24,-0.23 -0.27,-0.61 -0.04,-0.86l4.47 -5.1c0.89,-1 2.43,-1.09 3.44,-0.21z"/>
    <path class="fil12" d="M675.28 487.19l10.36 9.13c1,0.88 1.11,2.42 0.22,3.42l-4.09 4.65c-0.44,0.49 -1.21,0.54 -1.71,0.1l-12.64 -11.14c-0.25,-0.21 -0.27,-0.6 -0.05,-0.85l4.48 -5.09c0.89,-1.01 2.42,-1.1 3.43,-0.22z"/>
    <path class="fil12" d="M668.72 494.51l10.35 9.13c1.02,0.89 1.11,2.43 0.22,3.43l-4.09 4.64c-0.43,0.5 -1.2,0.55 -1.71,0.1l-12.63 -11.13c-0.25,-0.22 -0.28,-0.61 -0.06,-0.85l4.49 -5.1c0.89,-1 2.43,-1.1 3.43,-0.22z"/>
    <path class="fil12" d="M662.12 501.68l10.36 9.13c1.01,0.88 1.1,2.42 0.21,3.43l-4.08 4.63c-0.44,0.5 -1.21,0.55 -1.71,0.11l-12.65 -11.14c-0.23,-0.22 -0.26,-0.6 -0.04,-0.85l4.49 -5.09c0.87,-1.01 2.42,-1.11 3.42,-0.22z"/>
    <path class="fil12" d="M653.27 510.44l10.36 9.13c1,0.88 1.1,2.42 0.22,3.43l-4.09 4.64c-0.45,0.5 -1.22,0.54 -1.72,0.1l-12.63 -11.14c-0.25,-0.21 -0.28,-0.6 -0.05,-0.85l4.48 -5.09c0.88,-1 2.42,-1.1 3.43,-0.22z"/>
    <path class="fil12" d="M646.85 518.16l8.84 7.78c0.85,0.75 2.37,3.02 1.61,3.87l-3.48 3.95c-0.38,0.43 -1.03,0.47 -1.47,0.09l-12.21 -10.44c-0.21,-0.18 -0.24,-0.51 -0.04,-0.73l3.82 -4.34c0.76,-0.86 2.07,-0.94 2.93,-0.18z"/>
    <path class="fil13" d="M693.08 473.33c0.64,0.66 0.14,2.18 -1.11,3.39 -1.25,1.22 -2.79,1.67 -3.43,1.02 -0.63,-0.66 -0.14,-2.18 1.12,-3.4 1.25,-1.22 2.78,-1.67 3.42,-1.01z"/>
    <polygon class="fil13" points="699.26,488.74 706.82,481 715.65,499.6 708.95,506.63 "/>
    <polygon class="fil13" points="691.68,496.6 699.25,488.86 708.95,506.63 701.43,513.98 "/>
    <polygon class="fil13" points="681.8,507.06 688.97,499.72 698.16,516.55 691.04,523.52 "/>
    <polygon class="fil13" points="674.25,514.26 681.41,506.92 690.6,523.75 683.48,530.72 "/>
    <polygon class="fil13" points="668.79,520.71 673.67,514.52 682.92,531.13 677.54,536.32 "/>
    <polygon class="fil22" points="660.02,528.92 665.64,523.17 673.33,539.99 667.8,545.83 "/>
    <polygon class="fil13" points="654.32,534.94 659.94,529.18 667.63,546 662.1,551.84 "/>
    <polygon class="fil13" points="709.57,507.45 716.53,500.96 725.53,517.51 718.68,524.26 "/>
    <polygon class="fil13" points="702.02,514.74 708.98,508.24 717.99,524.79 711.14,531.55 "/>
    <polygon class="fil13" points="691.69,524.39 698.59,517.99 707.05,535.01 700.2,541.77 "/>
    <polygon class="fil13" points="684.83,531.44 690.62,525.34 699.08,542.37 693.12,548.25 "/>
    <polygon class="fil13" points="678.15,537.82 683.94,531.71 692.4,548.74 686.43,554.62 "/>
    <polygon class="fil23" points="668.4,547.33 674.19,541.23 682.65,558.25 676.68,564.13 "/>
    <polygon class="fil24" points="662.55,553.48 667.8,548.42 675.19,564.05 670.11,569.1 "/>
    <path class="fil17" d="M714.71 470.43l-3.33 6.85c-0.61,1.25 -2.49,1.26 -3.54,0.37l-17.9 -15.09c-1.05,-0.89 -1.27,-2.49 -0.35,-3.54l5.05 -5.86c0.44,-0.51 1.63,-0.98 2.7,-0.1l14.56 12.07c1.06,0.88 3.4,4.06 2.81,5.3z"/>
    <polygon class="fil18" points="699.75,455.77 702.16,452.22 702.89,452.71 700.47,456.26 "/>
    <polygon class="fil18" points="710.93,476.31 720.05,484.42 719.47,485.08 710.35,476.96 "/>
    <polygon class="fil19" points="689.3,463.86 635.9,522.49 634.62,521.33 688,462.69 "/>
    <polygon class="fil19" points="689.3,463.86 707.22,479.27 706.67,479.94 688.41,464.51 "/>
    <path class="fil1" d="M696.39 507.52c0.14,0.65 -0.24,1.28 -0.84,1.4 -0.6,0.12 -1.19,-0.3 -1.33,-0.96 -0.13,-0.64 0.24,-1.28 0.85,-1.4 0.59,-0.12 1.19,0.31 1.32,0.96z"/>
    <path class="fil12" d="M672.5 530.09c0.19,0.94 -0.32,1.84 -1.14,2.01 -0.83,0.17 -1.65,-0.46 -1.85,-1.4 -0.18,-0.94 0.32,-1.84 1.15,-2.01 0.82,-0.17 1.65,0.46 1.84,1.4z"/>
    <path class="fil12" d="M683.7 490.19c0.21,0.99 -0.34,1.95 -1.21,2.12 -0.87,0.19 -1.74,-0.47 -1.94,-1.47 -0.21,-0.99 0.34,-1.95 1.2,-2.12 0.88,-0.19 1.74,0.47 1.95,1.47z"/>
    <path class="fil12" d="M673.55 462.96c0.18,0.85 -0.28,1.66 -1.03,1.81 -0.74,0.15 -1.49,-0.41 -1.66,-1.26 -0.17,-0.85 0.29,-1.66 1.02,-1.82 0.76,-0.15 1.49,0.42 1.67,1.27z"/>
    <path class="fil20" d="M674.95 429.35l5.21 8.02c0.36,0.56 0.69,1.84 0.23,2.33l-3.93 4.27 -7.22 -10.41 3.14 -4.16c0.6,-0.81 2.02,-0.9 2.57,-0.05z"/>
    <path class="fil20" d="M669.2 435.22l6.12 9.03c0.38,0.56 -0.05,2.3 -0.51,2.8l-4.46 4.8 -6.88 -11.04 3.19 -4.23c0.6,-0.8 1.96,-2.2 2.54,-1.36z"/>
    <path class="fil20" d="M683.3 444.35l5.21 8.03c0.37,0.56 0.7,1.84 0.24,2.32l-4.38 4.73 -6.79 -10.87 3.14 -4.16c0.6,-0.8 2.03,-0.89 2.58,-0.05z"/>
    <path class="fil20" d="M677.48 450.22l5.9 9.26c0.37,0.59 -0.63,1.93 -1.1,2.45l-4.63 5 -7.18 -11.5 3.32 -4.4c0.64,-0.84 3.12,-1.71 3.69,-0.81z"/>
    <path class="fil20" d="M660.71 447.5l5.29 8.15c0.36,0.57 0.7,1.86 0.24,2.36l-4.44 4.8 -6.89 -11.04 3.19 -4.22c0.61,-0.81 2.05,-0.9 2.61,-0.05z"/>
    <path class="fil20" d="M655.24 453.51l5.16 8.62c0.34,0.59 0.69,1.86 0.23,2.36l-4.44 4.8 -6.89 -11.04 3.18 -4.23c0.62,-0.8 2.24,-1.39 2.76,-0.51z"/>
    <path class="fil20" d="M649.62 460.33l5.46 8.24c0.37,0.57 0.28,2.09 -0.19,2.59l-4.43 4.8 -6.89 -11.04 3.19 -4.23c0.6,-0.81 2.3,-1.21 2.86,-0.36z"/>
    <path class="fil20" d="M668.85 461.16l5.28 8.15c0.38,0.57 0.71,1.86 0.25,2.36l-4.45 4.8 -6.88 -11.03 3.18 -4.23c0.61,-0.81 2.06,-0.9 2.62,-0.05z"/>
    <path class="fil20" d="M662.93 467.06l5.42 8.26c0.37,0.57 0.32,1.9 -0.13,2.39l-4.46 4.8 -6.88 -11.03 3.19 -4.22c0.6,-0.82 2.3,-1.05 2.86,-0.2z"/>
    <path class="fil20" d="M657.25 473.93l5.37 8.42c0.38,0.57 0.14,2.22 -0.33,2.71l-4.43 4.8 -6.89 -11.03 3.19 -4.22c0.6,-0.82 2.54,-1.54 3.09,-0.68z"/>
    <path class="fil20" d="M648.6 484.3l5.3 8.16c0.36,0.57 0.69,1.86 0.23,2.35l-4.44 4.8 -6.88 -11.03 3.18 -4.23c0.61,-0.81 2.05,-0.9 2.61,-0.05z"/>
    <path class="fil20" d="M641.68 469.91l5.3 8.15c0.37,0.57 0.7,1.87 0.24,2.36l-4.45 4.8 -6.88 -11.04 3.18 -4.23c0.61,-0.8 2.06,-0.89 2.61,-0.04z"/>
    <path class="fil20" d="M636.29 476.26l5.56 8.1c0.4,0.56 0.44,1.92 -0.02,2.42l-4.45 4.8 -6.89 -11.04 3.19 -4.23c0.61,-0.81 2.04,-0.88 2.61,-0.05z"/>
    <path class="fil20" d="M642.82 490.34l5.29 8.15c0.37,0.57 0.7,1.86 0.24,2.36l-4.44 4.79 -6.88 -11.03 3.18 -4.22c0.61,-0.82 2.05,-0.91 2.61,-0.05z"/>
    <polygon class="fil21" points="699.84,516.06 677.94,537.05 677.74,536.84 699.63,515.85 "/>
    <polygon class="fil18" points="701.92,478.91 704.77,472.72 705.55,473.09 702.7,479.26 "/>
    <path class="fil10" d="M534.87 988.84c-2.16,1.25 -2.42,2.49 -0.97,3.74l60.94 35.42 11.56 -8.35 14.41 -9.33 13.75 6.52 11.23 -21.91 31.91 -18.97c1.2,-1.12 0.68,-2.89 -2.03,-5.48l-59.54 -45.66 -32.5 24.85 -2.05 -0.08 -12.34 21.9 -1.78 2.01 -8.23 -3.52 -24.36 18.86z"/>
    <polygon class="fil11" points="583.97,950.81 572.08,971.1 636.22,1013.58 645.79,994.93 "/>
    <path class="fil12" d="M583.14 972.94l7.43 -11.64c0.71,-1.12 2.23,-1.45 3.35,-0.73l5.21 3.33c0.55,0.36 0.72,1.11 0.37,1.67l-9.08 14.19c-0.17,0.28 -0.55,0.37 -0.83,0.19l-5.71 -3.65c-1.14,-0.72 -1.47,-2.23 -0.74,-3.36z"/>
    <path class="fil12" d="M594.92 981.04l7.44 -11.64c0.72,-1.13 2.22,-1.46 3.35,-0.74l5.2 3.33c0.57,0.36 0.74,1.11 0.38,1.67l-9.07 14.2c-0.19,0.28 -0.55,0.36 -0.84,0.19l-5.72 -3.66c-1.12,-0.72 -1.46,-2.23 -0.74,-3.35z"/>
    <path class="fil12" d="M603.16 986.4l7.44 -11.63c0.72,-1.13 2.22,-1.46 3.35,-0.74l5.21 3.33c0.57,0.36 0.73,1.11 0.37,1.67l-9.07 14.2c-0.18,0.28 -0.57,0.36 -0.84,0.18l-5.73 -3.65c-1.11,-0.72 -1.44,-2.23 -0.73,-3.36z"/>
    <path class="fil12" d="M611.25 991.82l7.44 -11.63c0.72,-1.13 2.23,-1.46 3.35,-0.74l5.22 3.33c0.55,0.36 0.72,1.11 0.36,1.68l-9.07 14.19c-0.17,0.28 -0.55,0.36 -0.84,0.18l-5.71 -3.65c-1.14,-0.72 -1.47,-2.23 -0.75,-3.36z"/>
    <path class="fil12" d="M621.27 999.23l7.44 -11.64c0.72,-1.12 2.22,-1.45 3.35,-0.74l5.2 3.33c0.57,0.36 0.74,1.11 0.37,1.68l-9.06 14.2c-0.19,0.28 -0.56,0.36 -0.84,0.18l-5.73 -3.65c-1.11,-0.73 -1.45,-2.23 -0.73,-3.36z"/>
    <path class="fil12" d="M629.88 1004.4l6.34 -9.93c0.61,-0.95 2.61,-2.8 3.57,-2.19l4.45 2.84c0.48,0.31 0.61,0.95 0.31,1.43l-8.45 13.67c-0.14,0.24 -0.47,0.31 -0.72,0.16l-4.88 -3.12c-0.95,-0.61 -1.24,-1.9 -0.62,-2.86z"/>
    <path class="fil13" d="M578.49 965.57c0.57,-0.73 2.14,-0.47 3.53,0.58 1.39,1.05 2.07,2.5 1.52,3.23 -0.55,0.73 -2.12,0.47 -3.52,-0.58 -1.39,-1.05 -2.07,-2.5 -1.53,-3.23z"/>
    <polygon class="fil13" points="592.79,957.1 583.97,950.81 601,939.23 608.97,944.78 "/>
    <polygon class="fil13" points="601.72,963.39 592.9,957.1 608.97,944.78 617.4,951.09 "/>
    <polygon class="fil13" points="613.55,971.56 605.21,965.6 620.43,953.93 628.41,959.91 "/>
    <polygon class="fil13" points="621.83,977.92 613.49,971.96 628.71,960.3 636.69,966.27 "/>
    <polygon class="fil13" points="629.04,982.32 622.17,978.44 637.17,966.76 643.12,971.28 "/>
    <polygon class="fil25" points="638.49,989.73 631.95,985.05 647.4,974.89 654.02,979.45 "/>
    <polygon class="fil13" points="645.32,994.44 638.77,989.77 654.21,979.6 660.83,984.17 "/>
    <polygon class="fil13" points="609.7,944.05 602.21,938.17 617.19,926.73 624.92,932.47 "/>
    <polygon class="fil13" points="618.04,950.39 610.56,944.51 625.54,933.07 633.26,938.81 "/>
    <polygon class="fil13" points="629.18,959.13 621.78,953.29 637.32,942.32 645.04,948.06 "/>
    <polygon class="fil13" points="637.19,964.83 630.27,960.04 645.79,949.07 652.52,954.07 "/>
    <polygon class="fil13" points="644.52,970.45 637.59,965.66 653.13,954.69 659.85,959.69 "/>
    <polygon class="fil26" points="655.4,978.62 648.48,973.83 664.02,962.87 670.74,967.87 "/>
    <polygon class="fil27" points="662.38,983.47 656.58,979.05 670.89,969.36 676.66,973.61 "/>
    <path class="fil17" d="M572.32 944.65l7.29 2.24c1.32,0.4 1.62,2.25 0.9,3.43l-12.18 20c-0.72,1.18 -2.26,1.64 -3.43,0.9l-6.57 -4.1c-0.58,-0.36 -1.22,-1.47 -0.51,-2.66l9.69 -16.23c0.72,-1.18 3.48,-3.99 4.81,-3.58z"/>
    <polygon class="fil18" points="560.12,961.67 556.25,959.83 556.63,959.04 560.5,960.89 "/>
    <polygon class="fil18" points="578.7,947.47 585.33,937.22 586.07,937.69 579.44,947.95 "/>
    <polygon class="fil19" points="569.72,970.76 635.84,1014.54 634.88,1015.99 568.75,972.21 "/>
    <polygon class="fil19" points="569.72,970.76 582.2,950.69 582.95,951.13 570.49,971.54 "/>
    <path class="fil1" d="M611.79 957.07c0.61,-0.24 1.29,0.04 1.5,0.62 0.22,0.56 -0.12,1.22 -0.74,1.45 -0.62,0.23 -1.31,-0.04 -1.52,-0.62 -0.21,-0.57 0.12,-1.22 0.76,-1.45z"/>
    <path class="fil12" d="M637.74 977.22c0.9,-0.34 1.87,0.03 2.16,0.82 0.29,0.79 -0.19,1.69 -1.09,2.03 -0.91,0.34 -1.87,-0.03 -2.16,-0.82 -0.3,-0.79 0.19,-1.7 1.09,-2.03z"/>
    <path class="fil12" d="M596.59 972.26c0.96,-0.35 1.98,0.03 2.29,0.86 0.31,0.84 -0.21,1.8 -1.15,2.15 -0.97,0.36 -1.99,-0.02 -2.3,-0.86 -0.31,-0.83 0.22,-1.79 1.16,-2.15z"/>
    <path class="fil12" d="M571.24 986.45c0.82,-0.3 1.68,0.04 1.95,0.75 0.26,0.71 -0.18,1.53 -0.99,1.83 -0.82,0.3 -1.7,-0.03 -1.96,-0.74 -0.26,-0.71 0.18,-1.53 1,-1.84z"/>
    <path class="fil20" d="M537.81 990.23l7.14 -6.38c0.5,-0.45 1.7,-0.97 2.25,-0.59l4.84 3.23 -9.2 8.73 -4.59 -2.46c-0.88,-0.48 -1.19,-1.87 -0.44,-2.53z"/>
    <path class="fil20" d="M544.49 995l7.99 -7.42c0.5,-0.47 2.28,-0.3 2.84,0.08l5.43 3.65 -9.85 8.5 -4.67 -2.49c-0.9,-0.49 -2.48,-1.62 -1.74,-2.32z"/>
    <path class="fil20" d="M551.36 979.67l7.14 -6.38c0.5,-0.44 1.7,-0.96 2.26,-0.59l5.34 3.61 -9.71 8.37 -4.59 -2.46c-0.89,-0.48 -1.19,-1.88 -0.44,-2.55z"/>
    <path class="fil20" d="M558.04 984.52l8.25 -7.24c0.54,-0.47 2.01,0.32 2.59,0.71l5.65 3.81 -10.25 8.85 -4.86 -2.6c-0.93,-0.5 -2.18,-2.83 -1.38,-3.53z"/>
    <path class="fil20" d="M557.93 1001.52l7.25 -6.48c0.5,-0.45 1.73,-0.98 2.29,-0.6l5.42 3.66 -9.85 8.49 -4.66 -2.49c-0.9,-0.49 -1.21,-1.9 -0.45,-2.58z"/>
    <path class="fil20" d="M564.71 1005.99l7.73 -6.4c0.52,-0.43 1.73,-0.98 2.29,-0.6l5.42 3.66 -9.84 8.49 -4.67 -2.5c-0.89,-0.48 -1.73,-1.99 -0.93,-2.65z"/>
    <path class="fil20" d="M572.31 1010.5l7.31 -6.65c0.5,-0.45 2.01,-0.6 2.58,-0.22l5.41 3.66 -9.84 8.5 -4.66 -2.5c-0.89,-0.48 -1.56,-2.1 -0.8,-2.79z"/>
    <path class="fil20" d="M570.19 991.39l7.24 -6.48c0.5,-0.45 1.73,-0.98 2.29,-0.6l5.43 3.65 -9.86 8.5 -4.66 -2.5c-0.9,-0.48 -1.2,-1.9 -0.44,-2.57z"/>
    <path class="fil20" d="M576.92 996.33l7.33 -6.62c0.51,-0.45 1.83,-0.61 2.39,-0.24l5.43 3.66 -9.85 8.5 -4.68 -2.5c-0.89,-0.48 -1.37,-2.12 -0.62,-2.8z"/>
    <path class="fil20" d="M584.59 1000.89l7.49 -6.61c0.51,-0.45 2.17,-0.46 2.73,-0.09l5.42 3.66 -9.85 8.5 -4.66 -2.51c-0.9,-0.47 -1.9,-2.27 -1.13,-2.95z"/>
    <path class="fil20" d="M596.16 1007.84l7.25 -6.48c0.51,-0.45 1.72,-0.97 2.29,-0.59l5.42 3.66 -9.85 8.49 -4.66 -2.5c-0.89,-0.48 -1.22,-1.9 -0.45,-2.58z"/>
    <path class="fil20" d="M582.98 1016.89l7.26 -6.48c0.51,-0.46 1.72,-0.98 2.29,-0.6l5.42 3.65 -9.85 8.5 -4.66 -2.5c-0.89,-0.48 -1.22,-1.9 -0.46,-2.57z"/>
    <path class="fil20" d="M590.09 1021.24l7.16 -6.74c0.48,-0.46 1.82,-0.72 2.39,-0.34l5.41 3.66 -9.84 8.5 -4.67 -2.51c-0.89,-0.47 -1.18,-1.87 -0.45,-2.57z"/>
    <path class="fil20" d="M603 1012.63l7.25 -6.47c0.51,-0.45 1.72,-0.98 2.29,-0.6l5.42 3.65 -9.85 8.5 -4.66 -2.5c-0.89,-0.48 -1.21,-1.89 -0.45,-2.58z"/>
    <polygon class="fil21" points="619.69,952.36 643.79,970.78 643.62,971.01 619.52,952.58 "/>
    <polygon class="fil18" points="582.65,955.99 576.1,954.12 576.35,953.28 582.89,955.16 "/>
   </g>
  </g>
 </g>
</svg>
